<svg width="45" height="48" viewBox="0 0 45 48" fill="none" xmlns="http://www.w3.org/2000/svg">
<path d="M41.0202 45.4885C38.1254 45.4885 36.1806 42.4855 37.4325 39.8489L40.5033 33.3475C40.6932 32.9467 41.3471 32.9467 41.537 33.3475L44.6151 39.8489C45.8548 42.4588 43.9519 45.4885 41.0202 45.4885Z" fill="black"/>
<path d="M24.9075 15.7108L23.7373 14.5469L23.9349 21.9102C24.1325 21.7816 24.3529 21.7213 24.5884 21.7213C24.7555 21.7213 24.9153 21.7516 25.0674 21.8119L24.9075 15.7108Z" fill="black"/>
<path d="M26.1232 18.5276L26.1915 21.1888C26.2297 21.2264 26.2752 21.2644 26.3131 21.3021C27.2633 22.2473 27.2633 23.7817 26.3131 24.7269C25.3628 25.6721 23.8201 25.6721 22.8698 24.7269C21.95 23.812 21.9195 22.3532 22.7787 21.4003L22.6116 15.0348L17.8992 10.3477L15.7026 12.5325V12.5402L12.4569 15.7607L1.76317 26.3972C0.630714 27.5236 0 29.0281 0 30.6232C0 32.2183 0.630672 33.7151 1.76317 34.8415L13.2324 46.2566C14.3725 47.383 15.8775 48.003 17.4811 48.003C19.0848 48.003 20.5897 47.3829 21.7299 46.2566L37.8657 30.2072L26.1232 18.5276Z" fill="black"/>
<path d="M22.5666 13.3844L18.6065 9.44597C17.3981 8.244 17.3981 6.29334 18.6065 5.09127C19.6101 4.0931 21.056 3.97378 22.1104 4.47893C22.2624 4.8494 22.3458 5.25021 22.3613 5.666L22.5666 13.3844Z" fill="black"/>
<path d="M43.1491 29.5019C41.9484 30.6962 39.9872 30.7116 38.7637 29.5019L26.0786 16.8848V16.8771L25.8428 7.93359L43.1497 25.1395C44.3581 26.3493 44.3581 28.2998 43.1497 29.5019L43.1491 29.5019Z" fill="black"/>
<path d="M25.0907 22.5855C25.0985 22.903 24.8476 23.1602 24.5361 23.1675H24.5211C24.2096 23.1675 23.9587 22.9256 23.951 22.6154C23.6594 11.5607 23.7599 15.3739 23.7383 14.5492L23.5021 5.63647C23.4642 4.38148 22.932 3.22476 22.0122 2.37057C21.0925 1.52366 19.9145 1.08525 18.6454 1.13826C16.1373 1.23654 14.1685 3.27777 14.1685 5.77241C14.1685 5.85573 14.1685 5.94632 14.1762 6.02964L14.5336 12.0927L13.4463 13.1738L13.036 6.10522C13.0283 6.00694 13.0283 5.88601 13.0283 5.77277C13.0283 2.66581 15.4758 0.133168 18.5995 0.00457371C20.1654 -0.0560933 21.6475 0.488293 22.7873 1.54677C23.9351 2.60524 24.5963 4.04141 24.6418 5.60659L24.9078 15.7141C24.9102 15.7925 25.1025 23.0381 25.0907 22.5855Z" fill="black"/>
</svg>
