<svg width="34" height="48" viewBox="0 0 34 48" fill="none" xmlns="http://www.w3.org/2000/svg">
<path d="M27.5098 48C27.5393 48 27.6096 48 27.6545 48C27.6995 48 27.6868 48 27.7276 48C27.7445 48 27.7768 48 27.8245 48C27.8793 48 27.906 48 27.9431 48H31.1293C31.1216 47.9945 31.114 47.9885 31.1063 47.983V48C31.2066 48 31.3415 48 31.4315 48C31.6886 48 31.8811 48 32.061 48H33.5448C33.5448 47.4578 33.5448 47.5646 33.5448 46.9346V44.8197V42.7117V0H0.450195V47.9992H3.81262V41.0031C3.81262 40.7587 4.01077 40.5604 4.25501 40.5604H9.56421C9.80847 40.5604 10.0066 40.7587 10.0066 41.0031V47.9992H21.1421L21.6744 47.9865C21.8528 47.9865 22.2845 47.9865 22.5287 47.9865H23.6078C23.8521 47.9865 24.3722 47.9865 24.642 47.9865H25.4513L26.2157 48C26.2717 48 27.011 48 27.0784 48H27.1599H27.5098ZM7.88412 36.7528C7.88412 36.9973 7.68598 37.1955 7.44174 37.1955H4.25607C4.01182 37.1955 3.81369 36.9972 3.81369 36.7528V32.5017C3.81369 32.2573 4.01184 32.059 4.25607 32.059H7.44174C7.68599 32.059 7.88412 32.2573 7.88412 32.5017V36.7528ZM7.88412 28.2511C7.88412 28.4956 7.68598 28.6938 7.44174 28.6938H4.25607C4.01182 28.6938 3.81369 28.4955 3.81369 28.2511V24C3.81369 23.7556 4.01184 23.5573 4.25607 23.5573H7.44174C7.68599 23.5573 7.88412 23.7556 7.88412 24V28.2511ZM7.88412 18.6864C7.88412 18.9309 7.68598 19.1292 7.44174 19.1292L4.25607 19.1297C4.01182 19.1297 3.81369 18.9314 3.81369 18.687V14.4359C3.81369 14.1915 4.01184 13.9932 4.25607 13.9932H7.44174C7.68599 13.9932 7.88412 14.1915 7.88412 14.4359V18.6864ZM7.88412 10.1847C7.88412 10.4292 7.68598 10.6275 7.44174 10.6275L4.25607 10.628C4.01182 10.628 3.81369 10.4297 3.81369 10.1853V5.93422C3.81369 5.68977 4.01184 5.49148 4.25607 5.49148H7.44174C7.68599 5.49148 7.88412 5.68978 7.88412 5.93422V10.1847ZM26.1126 5.93409C26.1126 5.68964 26.3108 5.49135 26.555 5.49135H29.7407C29.9849 5.49135 30.1831 5.68966 30.1831 5.93409V10.1851C30.1831 10.4296 29.9849 10.6279 29.7407 10.6279H26.555C26.3107 10.6279 26.1126 10.4296 26.1126 10.1851V5.93409ZM26.1126 14.4358C26.1126 14.1913 26.3108 13.993 26.555 13.993H29.7407C29.9849 13.993 30.1831 14.1914 30.1831 14.4358V18.6868C30.1831 18.9313 29.9849 19.1296 29.7407 19.1296H26.555C26.3107 19.1296 26.1126 18.9313 26.1126 18.6868V14.4358ZM26.1126 24.0005C26.1126 23.756 26.3108 23.5577 26.555 23.5577H29.7407C29.9849 23.5577 30.1831 23.756 30.1831 24.0005V28.2515C30.1831 28.496 29.9849 28.6943 29.7407 28.6943H26.555C26.3107 28.6943 26.1126 28.496 26.1126 28.2515V24.0005ZM18.6793 5.93451C18.6793 5.69006 18.8774 5.49177 19.1217 5.49177H22.3074C22.5516 5.49177 22.7497 5.69008 22.7497 5.93451V10.1856C22.7497 10.43 22.5516 10.6283 22.3074 10.6283H19.1217C18.8774 10.6283 18.6793 10.43 18.6793 10.1856V5.93451ZM18.6793 14.4362C18.6793 14.1918 18.8774 13.9935 19.1217 13.9935H22.3074C22.5516 13.9935 22.7497 14.1918 22.7497 14.4362V18.6873C22.7497 18.9317 22.5516 19.13 22.3074 19.13H19.1217C18.8774 19.13 18.6793 18.9317 18.6793 18.6873V14.4362ZM18.6793 24.0009C18.6793 23.7564 18.8774 23.5581 19.1217 23.5581H22.3074C22.5516 23.5581 22.7497 23.7565 22.7497 24.0009V28.252C22.7497 28.4964 22.5516 28.6947 22.3074 28.6947L19.1217 28.6941C18.8774 28.6941 18.6793 28.4958 18.6793 28.2514V24.0009ZM15.3169 36.7532C15.3169 36.9977 15.1187 37.196 14.8745 37.196H11.6888C11.4446 37.196 11.2464 36.9977 11.2464 36.7532V32.5022C11.2464 32.2577 11.4446 32.0594 11.6888 32.0594L14.8745 32.06C15.1187 32.06 15.3169 32.2583 15.3169 32.5027V36.7532ZM15.3169 28.2515C15.3169 28.496 15.1187 28.6943 14.8745 28.6943H11.6888C11.4446 28.6943 11.2464 28.496 11.2464 28.2515V24.0005C11.2464 23.756 11.4446 23.5577 11.6888 23.5577L14.8745 23.5583C15.1187 23.5583 15.3169 23.7566 15.3169 24.001V28.2515ZM15.3169 18.6868C15.3169 18.9313 15.1187 19.1296 14.8745 19.1296H11.6888C11.4446 19.1296 11.2464 18.9313 11.2464 18.6868V14.4358C11.2464 14.1913 11.4446 13.993 11.6888 13.993L14.8745 13.9936C15.1187 13.9936 15.3169 14.1919 15.3169 14.4363V18.6868ZM15.3169 10.1851C15.3169 10.4296 15.1187 10.6279 14.8745 10.6279H11.6888C11.4446 10.6279 11.2464 10.4296 11.2464 10.1851V5.93409C11.2464 5.68964 11.4446 5.49135 11.6888 5.49135L14.8745 5.4919C15.1187 5.4919 15.3169 5.69021 15.3169 5.93464V10.1851ZM26.1693 37.196H25.8546L25.5848 37.1965H24.9553C24.5956 37.1965 24.2104 37.196 23.9661 37.196L23.1568 37.1965C22.9125 37.1965 22.3074 37.196 22.0327 37.1965L21.1432 37.196H19.1216C18.8774 37.196 18.6793 36.9977 18.6793 36.7532V32.5022C18.6793 32.2577 18.8774 32.0594 19.1216 32.0594H22.3073C22.3386 32.0594 22.366 32.071 22.3957 32.0776L23.3057 32.06C23.4715 32.0594 24.5231 32.0594 24.6406 32.0594H25.8546C26.0988 32.0594 26.6639 32.0594 27.1136 32.0594L27.981 32.06H29.7406C29.9849 32.06 30.183 32.2583 30.183 32.5027V36.7538C30.183 36.9982 29.9848 37.1965 29.7406 37.1965H27.2485C27.0042 37.196 26.555 37.1965 26.1693 37.196Z" fill="black"/>
</svg>
