<svg width="48" height="43" viewBox="0 0 48 43" fill="none" xmlns="http://www.w3.org/2000/svg">
<path d="M21.3313 21.1155H26.6687V27.0459H21.3313V21.1155Z" fill="#232323"/>
<path d="M35.6903 0C30.6814 0 26.5051 2.92158 24.0021 7.09604C21.4949 2.92148 17.3229 0 12.3139 0C5.21413 0 0 5.42713 0 12.5203C0 26.2919 19.6152 36.406 24.0021 42.6074C30.8016 34.9663 48 26.2919 48 12.5203C48 5.42258 42.7813 0 35.6903 0ZM33.6818 19.936C33.423 20.1948 33.0342 20.3404 32.6166 20.3404C32.3871 20.3404 32.0964 20.2994 31.905 20.2176V28.5518C31.905 29.3209 31.2834 29.9449 30.5172 29.9449H17.4824C16.717 29.9449 16.0947 29.3209 16.0947 28.5518V20.2668C15.902 20.3495 15.6121 20.3933 15.3838 20.3933C14.9653 20.3933 14.5775 20.2428 14.3198 19.9835C14.0601 19.7197 13.9191 19.3727 13.9191 19.0018C13.9191 18.635 14.0597 18.2881 14.3169 18.0259L22.9703 10.1739C23.5376 9.65492 24.4627 9.65492 25.0305 10.1685L33.6693 17.9622C34.2148 18.5138 34.2148 19.3959 33.6822 19.936L33.6818 19.936Z" fill="#232323"/>
</svg>
