<svg width="41" height="48" viewBox="0 0 41 48" fill="none" xmlns="http://www.w3.org/2000/svg">
<path fill-rule="evenodd" clip-rule="evenodd" d="M33.4285 10.2853H36.7714V20.5713H18.3859C17.5001 20.5713 16.6492 20.9328 16.0225 21.5759C15.3959 22.2186 15.043 23.0914 15.043 23.9999V30.8573H13.3718C12.449 30.8573 11.7005 31.6254 11.7005 32.5714V42.8573C11.7005 45.696 13.9469 48 16.7146 48C19.4823 48 21.7287 45.696 21.7287 42.8573V32.5714C21.7287 31.625 20.9798 30.8573 20.0575 30.8573H18.3863V23.9999H36.7717C38.6188 23.9999 40.1146 22.4657 40.1146 20.5713V10.2854C40.1146 8.39099 38.6188 6.85679 36.7717 6.85679H33.4288V5.1427C33.4288 2.30403 31.1824 0 28.4147 0H5.01412C2.24643 0 0 2.30403 0 5.1427V12C0 14.8387 2.24643 17.1427 5.01412 17.1427H28.4147C31.1824 17.1427 33.4288 14.8387 33.4288 12V10.2859L33.4285 10.2853ZM15.043 34.286H18.3859V42.8575C18.3859 43.8038 17.637 44.5715 16.7147 44.5715C15.792 44.5715 15.0435 43.8034 15.0435 42.8575V34.286H15.043Z" fill="black"/>
</svg>
