<svg width="49" height="30" viewBox="0 0 49 30" fill="none" xmlns="http://www.w3.org/2000/svg">
<path d="M48.0363 20.3161C47.9345 20.3712 45.1967 21.8545 45.3694 21.761C45.2619 21.7024 43.1715 20.5615 43.305 20.6344C43.4068 20.5789 46.1387 19.0901 45.9662 19.184L48.0363 20.3161ZM24.0493 29.9759L24.0329 26.923C24.9209 25.9789 32.0562 18.3925 32.6936 17.7151L39.7823 13.8093L48.0804 13.5996L48.0887 16.8901C47.7908 17.052 23.9309 30.0402 24.049 29.9756L24.0493 29.9759ZM23.4008 26.1077C22.1279 25.4109 16.3022 22.2217 14.2575 21.1026L22.3401 12.5096L31.4821 17.5143C30.6555 18.3928 34.453 14.3547 23.4008 26.1077ZM38.5889 13.3173L32.2279 16.7821C31.5711 16.4226 24.1861 12.3802 23.2441 11.8643L29.5676 8.37937C32.9296 10.2199 35.2771 11.5044 38.5889 13.3174V13.3173ZM46.7453 12.6469L39.7682 12.8232L31.4277 8.25587C31.5307 8.25316 38.5044 8.07652 38.4018 8.07885L46.7453 12.6469ZM25.3322 0.921875L33.6798 5.49144L26.6982 5.67584L18.3597 1.10628L25.3322 0.921875ZM16.5071 1.23128L25.5205 6.17084C25.42 6.22558 18.9667 9.7288 19.3763 9.50668L10.3542 4.56792L16.5071 1.23128ZM9.41674 5.19531C11.4437 6.30481 16.6785 9.17057 18.5551 10.1974L15.9756 12.9432L6.83766 7.94112L9.41674 5.19531ZM3.60667 7.31452L5.20798 8.18955L3.40361 10.1081L0.946052 8.76566L3.60667 7.31452ZM0.429688 9.62316C0.587508 9.70934 2.84146 10.9408 2.6981 10.8623L2.02974 11.5786L0.434656 10.6997L0.429688 9.62316ZM6.131 8.69455L15.2685 13.6966C15.1795 13.7917 10.0027 19.3015 10.332 18.9514L1.19817 13.9451C1.36629 13.7661 6.42805 8.37773 6.131 8.69455ZM0.908919 14.9273L9.91707 19.8645C9.91748 19.9616 9.93396 22.9989 9.93314 22.811L0.91634 17.8749L0.908919 14.9273ZM12.9198 21.7605L10.9802 22.8185L10.9637 19.7656C18.3236 11.947 19.6463 10.5235 19.5577 10.6182C19.5812 10.6003 19.6038 10.5801 19.624 10.558L26.7111 6.66156L35.0097 6.44261V7.17826L29.5539 7.31608C29.4682 7.3184 29.3821 7.34092 29.3075 7.38168L22.1179 11.2956C22.0676 11.3232 22.0227 11.3577 21.9852 11.3985L13.0509 20.8999C12.9961 20.9589 12.9203 21.1212 12.9203 21.2264L12.9198 21.7605ZM13.966 22.0847L22.9873 27.0216C22.9878 27.1186 23.0042 30.1568 23.0034 29.9692L13.9859 25.0331L13.966 22.0847ZM31.8926 26.8457L34.4771 28.2638L34.4808 29.3381L30.9087 27.3814L31.8926 26.8457ZM35.5291 29.3449L35.5242 28.2629C35.626 28.2074 38.3592 26.7187 38.1869 26.8126L38.1898 27.8976L35.5291 29.3449ZM35.5942 24.8324L37.6595 25.9582C37.5577 26.0137 34.8262 27.5021 34.9988 27.4082L32.9368 26.2769C33.0386 26.2218 35.7669 24.7385 35.5942 24.8324ZM41.275 21.7403L42.2606 21.2042C42.4156 21.2889 45.0095 22.7047 44.8464 22.6153L44.8525 23.6988L41.275 21.7403ZM45.8992 23.7043L45.8963 22.6193C45.998 22.5641 48.7317 21.0785 48.5594 21.1721L48.5623 22.2559L45.8992 23.7043Z" fill="black"/>
</svg>
