<svg width="42" height="44" viewBox="0 0 42 44" fill="none" xmlns="http://www.w3.org/2000/svg">
<path d="M35 14C37.76 14 40 11.76 40 9C40 5.66 35 0 35 0C35 0 30 5.66 30 9C30 11.76 32.24 14 35 14ZM25 16C26.66 16 28 14.66 28 13C28 11.32 25 8 25 8C25 8 22 11.32 22 13C22 14.66 23.34 16 25 16ZM16.24 8L1.88 21.58C0.68 22.7 0 24.28 0 25.94V38C0 41.32 2.68 44 6 44H18.5H22H33.5C34.88 44 36 42.88 36 41.5C36 40.12 34.88 39 33.5 39H22V37H37.5C38.88 37 40 35.88 40 34.5C40 33.12 38.88 32 37.5 32H22V30H39.5C40.88 30 42 28.88 42 27.5C42 26.12 40.88 25 39.5 25H22V23H35.5C36.88 23 38 21.88 38 20.5C38 19.12 36.88 18 35.5 18H15.72C17 15.78 18.68 12.84 18.7 12.78C18.88 12.46 18.98 12.12 18.98 11.72C18.98 11.2 18.8 10.72 18.46 10.32C18.44 10.24 16.24 8 16.24 8Z" fill="black"/>
</svg>
