<svg width="50" height="50" viewBox="0 0 50 50" fill="none" xmlns="http://www.w3.org/2000/svg">
<path d="M29.2617 1L1 31.7925M20.7383 1L1 22.283M10.4206 1L1 11.4151M37.785 1L1 41.3019M45.8598 1L22.5327 28.1698M27.4673 31.7925L49 7.33962M22.9813 49L49 18.2075M34.6449 49L49 30.8868M44.9626 49L49 44.4717" stroke="black" stroke-width="1.5"/>
<path d="M37.3933 26.607L26.472 17.7349C25.869 17.245 24.9863 17.3413 24.501 17.9501L18.3485 25.6671L31.454 36.3136L37.6065 28.5966C38.0918 27.9879 37.9963 27.0969 37.3933 26.607ZM16.5907 27.8719C15.6198 29.0898 15.811 30.8714 17.0171 31.8512L19.2014 33.6256L17.4435 35.8305C16.4726 37.0483 16.6638 38.83 17.8699 39.8098C19.076 40.7896 20.8411 40.5972 21.812 39.3793L23.5699 37.1745L25.7541 38.9489C26.9602 39.9287 28.7253 39.7363 29.6962 38.5185L30.5751 37.416L17.4696 26.7695L16.5907 27.8719ZM20.287 36.7781C20.7392 37.1455 20.8111 37.8135 20.4469 38.2703C20.0829 38.7268 19.4208 38.7991 18.9686 38.4317C18.5164 38.0644 18.4447 37.396 18.8087 36.9395C19.1729 36.4827 19.8347 36.4107 20.287 36.7781Z" fill="black"/>
</svg>
