<svg width="49" height="45" viewBox="0 0 49 45" fill="none" xmlns="http://www.w3.org/2000/svg">
<path d="M30.553 23.1936C31.6728 23.1936 31.3532 34.1408 32.5264 34.1408C33.6995 34.1408 33.2198 28.0063 34.713 28.0063C36.2062 28.0063 35.8328 38.7415 37.1664 38.7415C38.4996 38.7415 38.6063 25.5206 39.9932 25.5206C41.3797 25.5206 41.0067 31.232 42.2865 31.232C43.5664 31.232 43.4063 23.1408 45.5396 23.0879H46.073C47.3529 23.035 48.0997 23.035 48.0997 23.035C48.2064 23.035 48.2598 22.9821 48.2598 22.9821C48.2598 22.9292 48.2064 22.8763 48.0997 22.8763C48.0997 22.8763 47.3529 22.8234 46.073 22.8234H45.593C43.4597 22.8234 43.5663 14.6263 42.3399 14.6263C41.06 14.6263 41.433 20.3377 40.0465 20.3377C38.66 20.3377 38.6066 7.1168 37.2198 7.1168C35.8866 7.1168 36.2596 17.852 34.7663 17.852C33.2731 17.852 33.7528 11.7175 32.5797 11.7175C31.4066 11.7175 31.6729 22.6648 30.6064 22.6648C28.7931 22.6648 28.8998 15.8955 27.8863 15.8955C26.8195 15.8955 27.1395 22.559 26.0197 22.6119H23.2996C21.3796 22.6119 21.2197 12.0351 20.1527 12.0351C19.0858 12.0351 19.1392 16.3716 18.0194 16.3716C16.8997 16.3716 16.9526 6.05923 15.7794 6.05923C14.6063 6.05923 15.086 11.0834 13.5928 11.0834C12.0996 11.0834 12.473 0.929688 11.0865 0.929688C9.75326 0.929688 9.64655 18.6464 8.25968 18.6464C6.87313 18.6464 7.51287 10.0791 6.23299 10.0791C4.95315 10.0791 5.11321 22.7185 2.97992 22.771H2.49982C1.21998 22.8239 0.473136 22.8239 0.473136 22.8239C0.366451 22.8239 0.259766 22.8768 0.259766 22.9297C0.259766 22.9826 0.31311 23.0355 0.419794 23.0355C0.419794 23.0355 1.1666 23.0884 2.44648 23.0884H2.97992C5.11321 23.1413 4.95325 35.7802 6.23299 35.7802C7.51284 35.7802 6.87312 27.2129 8.25968 27.2129C9.64623 27.2129 9.69958 44.9297 11.0865 44.9297C12.4197 44.9297 12.0466 34.7231 13.5399 34.7231C15.0331 34.7231 14.5534 39.7472 15.7265 39.7472C16.8996 39.7472 16.8463 29.4348 17.9665 29.4348C19.0863 29.4348 19.0334 33.7713 20.0998 33.7713C21.1666 33.7713 21.3263 23.1946 23.2467 23.1946H25.9667C27.0865 23.3004 26.7669 29.911 27.8334 29.911C28.8994 29.963 28.7931 23.1938 30.553 23.1938L30.553 23.1936Z" fill="black"/>
</svg>
