<svg width="32" height="38" viewBox="0 0 32 38" fill="none" xmlns="http://www.w3.org/2000/svg">
<path d="M4.68 10.5447C-1.56 16.8202 -1.56 27.0179 4.68 33.2934C7.8 36.4311 11.9 38 16 38C20.1 38 24.2 36.4311 27.32 33.2934C33.56 27.0179 33.56 16.8202 27.32 10.5447L17.42 0.588329C16.64 -0.19611 15.38 -0.19611 14.6 0.588329L4.68 10.5447ZM16 33.9974C12.8 33.9974 9.78 32.7503 7.52 30.4573C5.24 28.1644 4 25.1473 4 21.9291C4 18.7109 5.24 15.6737 7.52 13.4008L16 4.85245V33.9974Z" fill="#232323"/>
</svg>
