<svg width="37" height="37" viewBox="0 0 37 37" fill="none" xmlns="http://www.w3.org/2000/svg">
<g clip-path="url(#clip0_7696_47283)">
<path d="M21.9688 16.1899H19.6563C19.2872 16.1909 18.9238 16.2802 18.5963 16.4504C18.2688 16.6205 17.9868 16.8666 17.7739 17.168L14.8601 12.7997C15.562 12.222 16.0223 11.4027 16.1507 10.5028C16.2791 9.60284 16.0662 8.68745 15.5539 7.93654L10.8907 1.08114C10.5366 0.565095 9.99993 0.202583 9.38899 0.0667459C8.77805 -0.0690908 8.13832 0.03186 7.59889 0.349229L1.21177 4.1001C0.92731 4.26719 0.679432 4.48989 0.482931 4.75488C0.28643 5.01988 0.145334 5.32175 0.068066 5.64248C-0.0092021 5.96321 -0.0210586 6.29621 0.0332043 6.62163C0.0874671 6.94704 0.206737 7.25818 0.383894 7.53648L4.80193 14.4647C5.25096 15.1901 5.94003 15.7352 6.74931 16.0052C7.5586 16.2751 8.43691 16.2529 9.23152 15.9424L10.175 17.3461H7.44743C6.72044 17.3473 6.0122 17.5769 5.42277 18.0024C4.83333 18.4279 4.39249 19.0279 4.16252 19.7176L0.566582 30.4904C0.376146 31.051 0.411179 31.6638 0.664276 32.1991C0.917372 32.7344 1.3687 33.1504 1.92286 33.359L1.21524 35.4807C1.11833 35.7721 1.14113 36.0899 1.2786 36.3645C1.41608 36.639 1.65698 36.8476 1.9483 36.9445C2.23962 37.0414 2.55751 37.0187 2.83203 36.8812C3.10655 36.7437 3.31521 36.5028 3.41211 36.2115L4.30243 33.5336H5.06671C5.49577 33.5354 5.9168 33.4173 6.28231 33.1926C6.64781 32.9678 6.94323 32.6454 7.13524 32.2617L8.81643 28.897C9.19569 28.8522 9.55777 28.7134 9.8699 28.4934C10.182 28.2733 10.4343 27.9789 10.604 27.6367L12.2771 24.2836H17.6652C17.8666 24.634 18.1565 24.9253 18.506 25.1282C18.8555 25.3312 19.2521 25.4386 19.6563 25.4399H21.9688C22.5821 25.4399 23.1703 25.1962 23.604 24.7625C24.0376 24.3289 24.2813 23.7407 24.2813 23.1274V18.5024C24.2813 17.889 24.0376 17.3008 23.604 16.8672C23.1703 16.4335 22.5821 16.1899 21.9688 16.1899ZM6.75252 13.2218L2.33449 6.29235C2.36455 6.17673 2.41427 5.97554 2.38421 6.09348L8.77133 2.33682C8.80506 2.31574 8.84568 2.30865 8.88456 2.31707C8.92343 2.3255 8.95748 2.34876 8.97946 2.38192L13.6438 9.23617C13.7496 9.39226 13.8216 9.56883 13.8549 9.75446C13.8883 9.94009 13.8823 10.1307 13.8374 10.3138C13.7925 10.497 13.7097 10.6687 13.5943 10.8179C13.4789 10.9671 13.3334 11.0904 13.1674 11.1798L8.68461 13.6912C8.36352 13.8745 7.98448 13.9279 7.62522 13.8407C7.26597 13.7534 6.95372 13.5319 6.75252 13.2218ZM11.3001 14.8764L12.8749 13.9941L15.1122 17.3461H12.95L11.3001 14.8764ZM10.2086 23.2488L8.53546 26.5961H8.09377C7.8789 26.596 7.66826 26.6558 7.48547 26.7687C7.30268 26.8817 7.15497 27.0433 7.05893 27.2355L5.06671 31.2211H2.75999L6.3513 20.4495C6.42795 20.2193 6.57505 20.0191 6.77176 19.8772C6.96848 19.7353 7.20485 19.6588 7.44743 19.6586H17.3438V21.9711H12.2771C11.8474 21.9697 11.4259 22.0886 11.0603 22.3144C10.6947 22.5402 10.3996 22.8639 10.2086 23.2488ZM21.9688 23.1274H19.6563V18.5024H21.9688V23.1274Z" fill="black"/>
<path d="M26.5938 21.9688C27.2323 21.9688 27.75 21.4511 27.75 20.8125C27.75 20.1739 27.2323 19.6562 26.5938 19.6562C25.9552 19.6562 25.4375 20.1739 25.4375 20.8125C25.4375 21.4511 25.9552 21.9688 26.5938 21.9688Z" fill="black"/>
<path d="M35.8438 21.9688C36.4823 21.9688 37 21.4511 37 20.8125C37 20.1739 36.4823 19.6562 35.8438 19.6562C35.2052 19.6562 34.6875 20.1739 34.6875 20.8125C34.6875 21.4511 35.2052 21.9688 35.8438 21.9688Z" fill="black"/>
<path d="M35.8438 26.5938C36.4823 26.5938 37 26.0761 37 25.4375C37 24.7989 36.4823 24.2812 35.8438 24.2812C35.2052 24.2812 34.6875 24.7989 34.6875 25.4375C34.6875 26.0761 35.2052 26.5938 35.8438 26.5938Z" fill="black"/>
<path d="M35.8438 17.3438C36.4823 17.3438 37 16.8261 37 16.1875C37 15.5489 36.4823 15.0312 35.8438 15.0312C35.2052 15.0312 34.6875 15.5489 34.6875 16.1875C34.6875 16.8261 35.2052 17.3438 35.8438 17.3438Z" fill="black"/>
<path d="M31.2188 19.6562C31.8573 19.6562 32.375 19.1386 32.375 18.5C32.375 17.8614 31.8573 17.3438 31.2188 17.3438C30.5802 17.3438 30.0625 17.8614 30.0625 18.5C30.0625 19.1386 30.5802 19.6562 31.2188 19.6562Z" fill="black"/>
<path d="M31.2188 24.2812C31.8573 24.2812 32.375 23.7636 32.375 23.125C32.375 22.4864 31.8573 21.9688 31.2188 21.9688C30.5802 21.9688 30.0625 22.4864 30.0625 23.125C30.0625 23.7636 30.5802 24.2812 31.2188 24.2812Z" fill="black"/>
</g>
<defs>
<clipPath id="clip0_7696_47283">
<rect width="37" height="37" fill="white"/>
</clipPath>
</defs>
</svg>
