<svg width="48" height="48" viewBox="0 0 48 48" fill="none" xmlns="http://www.w3.org/2000/svg">
<path d="M5.09985 29.0998C5.24991 29.55 5.32476 29.9998 5.55005 30.45H7.27527C7.20043 30.225 7.12521 29.9249 7.12521 29.7L7.12483 15.1497C7.12483 13.8747 8.09968 12.8995 9.37501 12.8995H25.6496C26.8498 12.8995 27.8998 13.8744 27.8998 15.1497C31.425 16.7248 33.8997 20.3249 33.8997 24.45C33.8997 26.7002 33.1498 28.7999 31.9496 30.4499H36.8246C38.0997 30.4499 39.0748 31.4247 39.0748 32.7001V42.7504L43.7249 38.1002C44.0251 37.8001 44.0251 37.3503 43.7998 37.1254L40.8748 33.6754C41.8496 32.0255 42.5247 30.2255 42.9749 28.4254L47.3249 28.0504C47.6999 28.0504 48 27.6754 48 27.3005V20.1004C48 19.7254 47.6999 19.3504 47.3249 19.3504L42.8248 18.9755C42.2998 17.1006 41.5498 15.3754 40.5746 13.8003L43.3495 10.4251C43.5744 10.125 43.5744 9.67517 43.2746 9.37498L38.1747 4.27507C37.8746 3.97493 37.4996 3.97493 37.1999 4.20023L33.7499 7.12522C32.1 6.15036 30.3 5.47525 28.4999 5.02506L28.1249 0.675105C28.1249 0.300133 27.7499 0 27.3749 0H20.1C19.725 0 19.3501 0.300133 19.3501 0.675105L18.9751 5.17519C17.1002 5.70023 15.375 6.45022 13.725 7.42538L10.4251 4.65052C10.125 4.42561 9.67517 4.42561 9.37499 4.72536L4.27507 9.82528C3.97493 10.1254 3.97493 10.5752 4.20023 10.8001L7.12522 14.2501C6.15036 15.9001 5.47525 17.7 5.02506 19.5001L0.675105 19.8751C0.300133 19.8751 0 20.2501 0 20.6251V27.9C0 28.275 0.300133 28.6499 0.675105 28.6499L5.09985 29.0998Z" fill="black"/>
<path d="M47.1758 46.4998H37.5758V32.6992C37.5758 32.249 37.2757 31.9492 36.8259 31.9492H31.2758V36.1491C31.2758 36.5993 30.9756 36.8991 30.5258 36.8991H26.851C26.4008 36.8991 26.101 36.599 26.101 36.1491V31.9492H20.5509C20.1759 31.9492 19.801 32.2494 19.801 32.6992L19.8006 46.4998H18.3006L18.3003 32.6992C18.3003 32.249 18.0001 31.9492 17.5503 31.9492H12.0002V36.1491C12.0002 36.5993 11.7001 36.8991 11.2503 36.8991H7.57539C7.1252 36.8991 6.82545 36.599 6.82545 36.1491V31.9492H1.27534C0.825141 31.9492 0.525391 32.2494 0.525391 32.6992V47.2494C0.525391 47.6996 0.900363 47.9994 1.27534 47.9994H47.1762C47.6264 47.9994 47.9261 47.6993 47.9261 47.2494C47.9261 46.8745 47.626 46.4995 47.1762 46.4995L47.1758 46.4998Z" fill="black"/>
<path d="M8.32422 31.9492H10.4992V35.3992H8.32422V31.9492Z" fill="black"/>
<path d="M27.5996 31.9492H29.7746V35.3992H27.5996V31.9492Z" fill="black"/>
<path d="M16.5 14.3984H18.675V17.8484H16.5V14.3984Z" fill="black"/>
<path d="M26.4741 29.6987V15.1484C26.4741 14.6982 26.0991 14.3984 25.7241 14.3984H20.174V18.5984C20.174 19.0486 19.8739 19.3483 19.4241 19.3483H15.7492C15.299 19.3483 14.9993 19.0482 14.9993 18.5984V14.3984H9.44916C8.99897 14.3984 8.69922 14.6986 8.69922 15.1484V29.6987C8.69922 30.0736 8.99935 30.4486 9.44916 30.4486H25.7238C26.0988 30.4486 26.4737 30.1489 26.4737 29.6987H26.4741Z" fill="black"/>
</svg>
