<svg width="48" height="48" viewBox="0 0 48 48" fill="none" xmlns="http://www.w3.org/2000/svg">
<path d="M12.6799 15.8599C6.43994 22.0999 6.43994 32.2399 12.6799 38.4799C15.7999 41.5999 19.8999 43.1599 23.9999 43.1599C28.0999 43.1599 32.1999 41.5999 35.3199 38.4799C41.5599 32.2399 41.5599 22.0999 35.3199 15.8599L25.4199 5.95986C24.6399 5.17986 23.3799 5.17986 22.5999 5.95986L12.6799 15.8599ZM23.9999 39.1799C20.7999 39.1799 17.7799 37.9399 15.5199 35.6599C13.2399 33.3799 11.9999 30.3799 11.9999 27.1799C11.9999 23.9799 13.2399 20.9599 15.5199 18.6999L23.9999 10.1999V39.1799Z" fill="black"/>
</svg>
