<svg xmlns="http://www.w3.org/2000/svg" width="46" height="46" viewBox="0 0 46 46" fill="none">
  <g clip-path="url(#clip0_1_205)">
    <path d="M29.1103 15.5855L25.4527 15.0544L23.8168 11.7392C23.7284 11.56 23.5834 11.4151 23.4042 11.3266C22.9542 11.1043 22.4092 11.289 22.187 11.7392L20.5511 15.0544L16.8925 15.5855C16.6945 15.6141 16.5114 15.7071 16.3717 15.8504C16.0212 16.2097 16.0283 16.7851 16.3876 17.1356L19.0343 19.7156L18.4092 23.359C18.4005 23.4097 18.3962 23.4611 18.3962 23.5124C18.3962 24.0144 18.8031 24.4213 19.305 24.4213C19.4527 24.4202 19.5979 24.3832 19.7281 24.3132L22.9999 22.5966L26.2718 24.3132C26.4486 24.407 26.6514 24.4397 26.8488 24.4064C27.3437 24.3229 27.6771 23.854 27.5936 23.359L26.9685 19.7156L29.6153 17.1356C29.7584 16.9959 29.8516 16.8128 29.8802 16.6148C29.9517 16.1179 29.6071 15.6571 29.1103 15.5855ZM25.3558 18.7401C25.1404 18.9496 25.0426 19.252 25.0943 19.5479L25.4881 21.8473L23.4231 20.7617C23.2923 20.6943 23.1471 20.6597 22.9999 20.6607C22.8523 20.6618 22.707 20.6989 22.5768 20.7688L20.5118 21.8544L20.9066 19.555C20.9583 19.259 20.8605 18.9567 20.6451 18.7472L18.9748 17.1183L21.2832 16.7831C21.5793 16.7402 21.8353 16.5545 21.9679 16.2863L22.9999 14.194L24.032 16.2863C24.1645 16.5545 24.4206 16.7403 24.7167 16.7831L27.0261 17.1123L25.3558 18.7401Z" fill="#187692"/>
    <path d="M22.9999 6.20117C16.4682 6.20117 11.1731 11.4963 11.1731 18.028C11.1731 24.5597 16.4682 29.8548 22.9999 29.8548C29.5287 29.8475 34.8196 24.5568 34.8267 18.028C34.8267 11.4963 29.5317 6.20117 22.9999 6.20117ZM22.9999 28.0372C17.472 28.0372 12.9907 23.5559 12.9907 18.028C12.9907 12.5001 17.472 8.01881 22.9999 8.01881C28.5254 8.02497 33.003 12.5027 33.0091 18.028C33.0091 23.556 28.5278 28.0372 22.9999 28.0372Z" fill="#187692"/>
    <path d="M39.6456 20.4789L37.945 21.1221C38.2096 21.8219 38.5389 22.6924 38.4257 23.0408C38.2985 23.4325 37.528 23.9345 36.8474 24.3777C36.0395 24.9049 35.1206 25.5027 34.4894 26.371C33.8583 27.2395 33.5605 28.3149 33.3049 29.2541C33.103 29.9923 32.8546 30.9112 32.5324 31.1454C32.2103 31.3797 31.2772 31.3282 30.5128 31.2919C29.5364 31.2454 28.4296 31.1909 27.3885 31.5322C26.3787 31.8594 25.5396 32.542 24.7963 33.1408C24.1592 33.6559 23.4361 34.2395 23.001 34.2395C22.5658 34.2395 21.8427 33.6559 21.2045 33.1389C20.4613 32.538 19.6192 31.8574 18.6134 31.5313C18.0379 31.3444 17.3926 31.2576 16.5817 31.2576C16.2071 31.2576 15.8405 31.2748 15.4871 31.292C14.7288 31.3283 13.7856 31.3728 13.4736 31.1455C13.1616 30.9184 12.902 29.9903 12.7001 29.2521C12.4446 28.312 12.1558 27.2476 11.5166 26.3691C10.8773 25.4906 9.96753 24.9038 9.15763 24.3758C8.47808 23.9325 7.70756 23.4306 7.58028 23.0388C7.46716 22.6925 7.7974 21.821 8.062 21.1202C8.41244 20.1942 8.80821 19.145 8.80821 18.0281C8.80821 16.9113 8.41131 15.8621 8.06097 14.9361C7.79637 14.2363 7.46716 13.3648 7.57926 13.0174C7.70653 12.6257 8.47695 12.1237 9.15763 11.6795C9.96548 11.1523 10.8834 10.5545 11.5156 9.68715C12.1477 8.81971 12.4445 7.74326 12.7001 6.80413C12.902 6.06592 13.1504 5.147 13.4726 4.91275C13.7947 4.67851 14.7278 4.72999 15.4871 4.7663C16.4636 4.81276 17.5714 4.86732 18.6175 4.526C19.6273 4.19884 20.4654 3.51621 21.2097 2.91738C21.8418 2.40038 22.5649 1.81764 23 1.81764C23.4352 1.81764 24.1583 2.40028 24.7954 2.91727C25.5387 3.51806 26.3808 4.19874 27.3876 4.5259C28.4297 4.86414 29.5374 4.81163 30.518 4.7662C31.2763 4.73081 32.2195 4.68641 32.5315 4.91265C32.8435 5.13889 33.098 6.06479 33.3 6.80403C33.5554 7.74418 33.8443 8.80854 34.4835 9.68705C35.1227 10.5656 36.0325 11.1533 36.8424 11.6804C37.5221 12.1236 38.2925 12.6256 38.4208 13.0173C38.5339 13.3647 38.2037 14.2361 37.9391 14.936C37.5887 15.862 37.1919 16.9122 37.1919 18.028C37.1919 19.1439 37.5888 20.1941 37.9391 21.1201L38.7893 20.7989L39.6395 20.4778C39.3153 19.6216 39.0094 18.8127 39.0094 18.028C39.0094 17.2433 39.3124 16.4346 39.6385 15.5782C40.0596 14.4674 40.4584 13.4101 40.1484 12.4559C39.8223 11.4532 38.8115 10.7948 37.834 10.1576C37.1271 9.69413 36.3879 9.21549 35.9528 8.61767C35.5175 8.01986 35.2782 7.15447 35.053 6.32744C34.7349 5.15807 34.435 4.05331 33.5959 3.4434C32.7567 2.83348 31.6307 2.8941 30.4271 2.9506C29.5657 2.99101 28.6741 3.03337 27.9481 2.79708C27.2614 2.57391 26.5878 2.02963 25.9375 1.50351C25.0195 0.76447 24.0783 0 22.9999 0C21.9215 0 20.9804 0.76447 20.0614 1.50463C19.4111 2.03076 18.7376 2.57401 18.0509 2.79718C17.3249 3.03245 16.4725 2.99306 15.5718 2.95071C14.3681 2.8942 13.2311 2.84066 12.4021 3.4435C11.573 4.04634 11.2631 5.16012 10.9449 6.32847C10.7197 7.1555 10.4875 8.01084 10.0452 8.6187C9.60284 9.22656 8.8758 9.69515 8.16394 10.1586C7.18646 10.7958 6.17564 11.4542 5.84951 12.4569C5.53947 13.4113 5.93832 14.4644 6.35943 15.5803C6.68259 16.4366 6.98852 17.2454 6.98852 18.029C6.98852 18.8127 6.68556 19.6215 6.35943 20.4789C5.93832 21.5897 5.53947 22.648 5.84951 23.6011C6.17564 24.6049 7.18646 25.2633 8.16394 25.9005C8.87077 26.364 9.61002 26.8426 10.0441 27.4404C10.4784 28.0382 10.7187 28.9036 10.9439 29.7307C11.1377 30.4456 11.3266 31.1363 11.6356 31.7048L7.9539 41.1203C7.77135 41.5878 8.00241 42.1149 8.46998 42.2974C8.60925 42.3518 8.75981 42.371 8.90821 42.3532L14.0582 41.7373L17.4219 45.6816C17.7479 46.0632 18.3216 46.1082 18.7033 45.7821C18.818 45.684 18.9065 45.5589 18.9609 45.418L22.6315 36.0268C22.8759 36.0675 23.1254 36.0675 23.3698 36.0268L27.0394 45.418C27.2223 45.8854 27.7494 46.1161 28.2169 45.9332C28.3564 45.8787 28.4801 45.7905 28.5774 45.6765L31.9411 41.7322L37.091 42.3482C37.5895 42.4072 38.0414 42.0508 38.1003 41.5523C38.1177 41.4061 38.0991 41.2578 38.0464 41.1203L34.3632 31.7028C34.6722 31.1344 34.86 30.4436 35.055 29.7287C35.2791 28.9017 35.5113 28.0463 35.9547 27.4385C36.398 26.8306 37.1241 26.362 37.8359 25.8986C38.8134 25.2614 39.8253 24.6029 40.1504 23.6002C40.4604 22.6459 40.0626 21.5937 39.6456 20.4789ZM17.8165 43.3469L15.1234 40.1872C14.9258 39.9559 14.6256 39.8388 14.3236 39.8752L10.1995 40.369L13.0967 32.9591C13.8187 33.1893 14.676 33.1489 15.5707 33.1066C15.9039 33.0904 16.2483 33.0743 16.5805 33.0743C17.1944 33.0743 17.662 33.1328 18.0508 33.2591C18.7374 33.4822 19.41 34.0255 20.0613 34.5526C20.3643 34.796 20.6672 35.0414 20.9782 35.2595L17.8165 43.3469ZM35.8001 40.369L31.6771 39.8752C31.375 39.8391 31.0747 39.9565 30.8773 40.1882L28.1831 43.3479L25.0194 35.2614C25.3305 35.0413 25.6354 34.7959 25.9363 34.5546C26.5866 34.0285 27.2601 33.4852 27.9468 33.262C28.6719 33.0268 29.5232 33.0662 30.4269 33.1085C31.3306 33.151 32.1789 33.1903 32.9009 32.961L35.8001 40.369Z" fill="#187692"/>
  </g>
  <defs>
    <clipPath id="clip0_1_205">
      <rect width="46" height="46" fill="white"/>
    </clipPath>
  </defs>
</svg>