<svg width="48" height="35" viewBox="0 0 48 35" fill="none" xmlns="http://www.w3.org/2000/svg">
<path d="M47.4665 0H0.53344C0.239022 0 0 0.241715 0 0.540409V31.7118C0 32.01 0.238599 32.2522 0.53344 32.2522H6.51411C6.40494 27.0948 7.37174 23.3443 9.40662 21.0914C10.2961 20.1069 11.2588 19.5451 12.1321 19.2293C11.8617 18.5205 11.7074 17.7538 11.7074 16.9495C11.7074 13.4482 14.5193 10.6 17.9751 10.6C21.4312 10.6 24.2423 13.4485 24.2423 16.9495C24.2423 18.0496 23.964 19.0847 23.4761 19.9879L26.7428 21.0474C26.9471 21.1127 27.1563 21.1458 27.3643 21.1458C28.0937 21.1458 28.7591 20.7453 29.1444 20.0742L29.6808 19.14C29.7217 19.0688 29.7697 19.0047 29.8148 18.9377L29.4823 18.7366C29.3405 18.6507 29.2404 18.5083 29.2077 18.3441L28.8368 16.5012C28.7719 16.1791 28.9774 15.8645 29.2954 15.7987L36.9561 14.2168C36.9958 14.2085 37.0351 14.2047 37.074 14.2047C37.3477 14.2047 37.5925 14.3995 37.6496 14.6814L38.0205 16.5243C38.0536 16.6885 38.0168 16.859 37.9192 16.9943L37.5206 17.5477C36.1316 19.4752 35.5986 21.6871 36.0187 23.7749L36.3643 25.4937C36.4293 25.8159 36.2238 26.1305 35.9058 26.1962L34.891 26.4057C34.8513 26.4141 34.812 26.4178 34.7731 26.4178C34.4994 26.4178 34.2546 26.223 34.1975 25.9411L34.0119 25.0174C32.8305 26.7785 31.322 28.339 29.5343 28.7478C28.8818 28.897 28.2078 28.9728 27.5304 28.9728C26.8055 28.9728 26.1427 28.8882 25.5641 28.7663V32.2508L47.4666 32.2513C47.761 32.2513 48 32.0095 48 31.7108L47.9996 0.540568C47.9996 0.241874 47.761 0.000157095 47.4666 0.000157095L47.4665 0ZM26.0489 6.58667H24.8907V7.76045C24.8907 8.20828 24.5326 8.57106 24.0905 8.57106C23.6485 8.57106 23.2904 8.20828 23.2904 7.76045V6.58667H22.1317C21.6897 6.58667 21.3316 6.22389 21.3316 5.77606C21.3316 5.32824 21.6897 4.96545 22.1317 4.96545H23.2904V3.79167C23.2904 3.34385 23.6485 2.98106 24.0905 2.98106C24.5326 2.98106 24.8907 3.34385 24.8907 3.79167V4.96545H26.0489C26.4905 4.96545 26.849 5.32824 26.849 5.77606C26.8486 6.22389 26.4905 6.58667 26.0489 6.58667ZM27.9056 9.28159C27.8468 8.98918 28.0329 8.7039 28.3216 8.64441L35.0896 7.24692C35.3782 7.18744 35.6598 7.37595 35.7186 7.66836L36.221 10.1664C36.1523 10.1739 36.0833 10.1735 36.0159 10.1873L28.6053 11.7173C28.5374 11.7315 28.4742 11.7596 28.4084 11.7797L27.9056 9.28159ZM37.0748 12.5839C36.9284 12.5839 36.7812 12.599 36.6373 12.6288L28.9766 14.2106C28.8298 14.2408 28.6883 14.2868 28.5535 14.3447L28.4741 14.0426C28.3869 13.7112 28.5932 13.374 28.9249 13.3057L36.3355 11.7754C36.3752 11.767 36.4149 11.7632 36.4538 11.7632C36.7399 11.7632 36.993 11.976 37.0352 12.2747L37.0786 12.5843C37.0773 12.5843 37.0761 12.5839 37.0748 12.5839ZM39.4757 6.18579C39.4757 6.63362 39.1172 6.9964 38.6756 6.9964C38.2339 6.9964 37.8754 6.63362 37.8754 6.18579V5.105H36.8086C36.3669 5.105 36.0084 4.74221 36.0084 4.29439C36.0084 3.84656 36.3669 3.48378 36.8086 3.48378H37.8754V2.40298C37.8754 1.95515 38.2339 1.59237 38.6756 1.59237C39.1172 1.59237 39.4757 1.95515 39.4757 2.40298V3.48378H40.5426C40.9842 3.48378 41.3427 3.84656 41.3427 4.29439C41.3427 4.74221 40.9842 5.105 40.5426 5.105H39.4757V6.18579ZM44.5852 15.588H43.4265V16.7618C43.4265 17.2096 43.068 17.5724 42.6264 17.5724C42.1847 17.5724 41.8262 17.2096 41.8262 16.7618V15.588H40.668C40.2264 15.588 39.8679 15.2253 39.8679 14.7774C39.8679 14.3296 40.2264 13.9668 40.668 13.9668H41.8262V12.793C41.8262 12.3452 42.1847 11.9824 42.6264 11.9824C43.068 11.9824 43.4265 12.3452 43.4265 12.793V13.9668H44.5852C45.0268 13.9668 45.3853 14.3296 45.3853 14.7774C45.3853 15.2253 45.0268 15.588 44.5852 15.588ZM27.5311 27.3526C25.4528 27.3526 23.9646 26.5014 23.9646 26.5014V34.4596C23.9646 34.7579 23.726 35 23.4312 35L12.5064 34.9996V27.0422C12.5064 26.5948 12.1483 26.2316 11.7063 26.2316C11.2642 26.2316 10.9061 26.5948 10.9061 27.0422L10.9065 34.9996H8.75872C8.48042 34.9996 8.24638 34.7784 8.22487 34.4973C7.42348 24.0859 10.6939 21.3536 12.9137 20.6768C14.0546 22.262 15.896 23.298 17.976 23.298C19.7392 23.298 21.3316 22.554 22.4713 21.363L26.262 22.5925C26.6284 22.7098 26.9998 22.7664 27.3657 22.7664C28.6398 22.7664 29.8448 22.0806 30.5287 20.8892L31.0655 19.955C31.4025 19.3681 31.9793 19.0849 32.5541 19.0849C33.2248 19.0849 33.8922 19.4703 34.1709 20.2085C34.352 20.6878 34.2953 21.2248 34.0704 21.6844C33.3058 23.2453 31.4044 26.6587 29.1826 27.1672C28.6045 27.2996 28.05 27.3524 27.5314 27.3524L27.5311 27.3526ZM13.3078 16.9492C13.3078 14.3419 15.4018 12.2204 17.9756 12.2204C20.5493 12.2204 22.6429 14.3418 22.6429 16.9492C22.6429 19.5566 20.5493 21.6775 17.9756 21.6775C15.4018 21.6775 13.3078 19.5566 13.3078 16.9492Z" fill="black"/>
</svg>
