<svg width="49" height="34" viewBox="0 0 49 34" fill="none" xmlns="http://www.w3.org/2000/svg">
<path d="M24.4972 23.0026H13.5772C13.2425 23.0026 12.9294 22.8356 12.7439 22.5587C12.5573 22.2818 12.5222 21.9298 12.6506 21.6209L15.9698 13.6216C16.1243 13.2476 16.4915 13.0039 16.8964 13.0039H24.4976C25.0521 13.0039 25.5003 13.4519 25.5003 14.0038V22.0031C25.5003 22.555 25.0521 23.0026 24.4976 23.0026L24.4972 23.0026ZM15.077 21.0029H23.4943V15.0034H17.5669L15.077 21.0029Z" fill="black"/>
<path d="M19.4832 18.9996C19.2265 18.9996 18.9697 18.9018 18.7741 18.7068L15.7659 15.7071C15.3736 15.316 15.3736 14.6841 15.7659 14.2933C16.1581 13.9022 16.7917 13.9022 17.1836 14.2933L20.1919 17.293C20.5842 17.6841 20.5842 18.316 20.1919 18.7068C19.9964 18.9018 19.74 18.9996 19.4832 18.9996Z" fill="black"/>
<mask id="mask0_7514_50480" style="mask-type:luminance" maskUnits="userSpaceOnUse" x="0" y="0" width="23" height="4">
<path d="M0.429688 0H22.5858V3.239H0.429688V0Z" fill="white"/>
</mask>
<g mask="url(#mask0_7514_50480)">
<path d="M1.43304 3.00751H22.4915V1.00771C22.4915 0.455843 22.0433 0.0078125 21.4887 0.0078125H1.43343C0.878859 0.0078125 0.430664 0.455852 0.430664 1.00771V3.19137C0.745642 3.07936 1.0804 3.00754 1.43343 3.00754L1.43304 3.00751Z" fill="black"/>
</g>
<mask id="mask1_7514_50480" style="mask-type:luminance" maskUnits="userSpaceOnUse" x="0" y="4" width="33" height="12">
<path d="M0.429688 4.95312H32.7128V15.0512H0.429688V4.95312Z" fill="white"/>
</mask>
<g mask="url(#mask1_7514_50480)">
<path d="M32.5176 14.0031V6.0038C32.5176 5.65177 32.5896 5.31798 32.702 5.00391H1.43245C0.877884 5.00391 0.429688 5.45194 0.429688 6.0038V14.0031C0.429688 14.555 0.877894 15.003 1.43245 15.003H32.7029C32.5906 14.6889 32.5182 14.3547 32.5182 14.0031H32.5176Z" fill="black"/>
</g>
<path d="M37.5327 5.00391H35.5272C34.9726 5.00391 34.5244 5.45195 34.5244 6.00381V14.0031C34.5244 14.555 34.9726 15.003 35.5272 15.003H37.5327C40.2974 15.003 42.5465 12.7602 42.5465 10.0035C42.5465 7.24682 40.2973 5.004 37.5327 5.004V5.00391Z" fill="black"/>
<mask id="mask2_7514_50480" style="mask-type:luminance" maskUnits="userSpaceOnUse" x="44" y="8" width="5" height="4">
<path d="M44.4639 8.95703H48.5626V11.0529H44.4639V8.95703Z" fill="white"/>
</mask>
<g mask="url(#mask2_7514_50480)">
<path d="M47.56 10.9998H45.5545C45 10.9998 44.5518 10.5518 44.5518 9.9999C44.5518 9.44804 45 9 45.5545 9H47.56C48.1146 9 48.5628 9.44804 48.5628 9.9999C48.5628 10.5518 48.1146 10.9998 47.56 10.9998Z" fill="black"/>
</g>
<path d="M45.554 7.0035C45.2973 7.0035 45.0405 6.90563 44.845 6.71063C44.4527 6.31952 44.4527 5.68768 44.845 5.2969L46.2627 3.88318C46.655 3.49207 47.2886 3.49207 47.6805 3.88318C48.0727 4.27429 48.0727 4.90613 47.6805 5.2969L46.2627 6.71063C46.0676 6.90526 45.8108 7.0035 45.554 7.0035Z" fill="black"/>
<path d="M46.9728 16.4176C46.716 16.4176 46.4593 16.3197 46.2637 16.1247L44.8459 14.711C44.4537 14.3199 44.4537 13.688 44.8459 13.2972C45.2382 12.9061 45.8718 12.9061 46.2637 13.2972L47.6815 14.711C48.0737 15.1021 48.0737 15.7339 47.6815 16.1247C47.4859 16.3197 47.2295 16.4176 46.9728 16.4176Z" fill="black"/>
<path d="M34.5244 6.00097V6.87399C34.6618 6.79808 34.7823 6.6909 34.8722 6.55694C35.0588 6.27896 35.0939 5.92693 34.9655 5.61917L34.776 5.16406L34.5935 5.675C34.5468 5.80189 34.5244 5.90868 34.5244 6.00097Z" fill="black"/>
<mask id="mask3_7514_50480" style="mask-type:luminance" maskUnits="userSpaceOnUse" x="1" y="12" width="17" height="22">
<path d="M1.47168 12.9531H17.9042V33.9971H1.47168V12.9531Z" fill="white"/>
</mask>
<g mask="url(#mask3_7514_50480)">
<path d="M17.7282 13.444C17.5416 13.1667 17.23 13 16.8948 13H10.3871C9.98179 13 9.61495 13.2441 9.46044 13.617L1.56855 32.6156C1.44017 32.9245 1.47525 33.2765 1.66185 33.5534C1.84844 33.8303 2.16044 33.9981 2.49519 33.9981H9.00332C9.40861 33.9981 9.77434 33.754 9.92996 33.3811L17.8219 14.3825C17.9499 14.0736 17.9148 13.7219 17.7282 13.444Z" fill="black"/>
</g>
</svg>
