<svg width="48" height="48" viewBox="0 0 48 48" fill="none" xmlns="http://www.w3.org/2000/svg">
<path d="M8.82579 12.6953C8.67097 12.6953 8.36133 12.8501 8.36133 13.1598V22.2952C8.36133 22.6048 8.51615 22.7596 8.82579 22.7596H22.2973C22.607 22.7596 22.7618 22.6048 22.7618 22.2952L22.7614 13.1598C22.7614 12.8501 22.6066 12.6953 22.2969 12.6953H8.82579Z" fill="black"/>
<path d="M0.464462 10.0643H13.936C14.2456 10.0643 14.4005 9.9095 14.4005 9.59986V0.464456C14.4005 0.154825 14.2456 0 13.936 0H0.464462C0.154828 0 0 0.154816 0 0.464456V9.59986C0 9.90949 0.154818 10.0643 0.464462 10.0643Z" fill="black"/>
<path d="M17.3421 10.0643H30.8136C31.1233 10.0643 31.2781 9.9095 31.2781 9.59986L31.2777 0.464456C31.2777 0.154825 31.1229 0 30.8133 0H17.4971C17.1875 0 17.0326 0.154816 17.0326 0.464456V9.59986C16.8774 9.90949 17.0323 10.0643 17.3423 10.0643H17.3421Z" fill="black"/>
<path d="M25.7027 12.6953C25.3931 12.6953 25.2383 12.8501 25.2383 13.1598V22.2952C25.2383 22.6048 25.3931 22.7596 25.7027 22.7596H39.1743C39.4839 22.7596 39.6387 22.6048 39.6387 22.2952L39.6384 13.1598C39.6384 12.8501 39.4835 12.6953 39.1739 12.6953H25.7027Z" fill="black"/>
<path d="M5.41947 37.9375H0.464462C0.154828 37.9375 0 38.0923 0 38.402V47.5374C0 47.847 0.154818 48.0018 0.464462 48.0018H5.41947C5.7291 48.0018 5.88393 47.847 5.88393 47.5374V38.402C5.88393 38.0923 5.5743 37.9375 5.41947 37.9375Z" fill="black"/>
<path d="M0.464462 22.7596H5.41947C5.7291 22.7596 5.88393 22.6048 5.88393 22.2952V13.1598C5.88393 12.8501 5.72911 12.6953 5.41947 12.6953H0.464462C0.154828 12.6953 0 12.8501 0 13.1598V22.2952C0 22.45 0.154818 22.7596 0.464462 22.7596Z" fill="black"/>
<path d="M47.5357 37.9375H42.5807C42.271 37.9375 42.1162 38.0923 42.1162 38.402V47.5374C42.1162 47.847 42.271 48.0018 42.5807 48.0018H47.5357C47.8453 48.0018 48.0001 47.847 48.0001 47.5374V38.402C48.0001 38.0923 47.8453 37.9375 47.5357 37.9375Z" fill="black"/>
<path d="M47.5357 12.6953H42.5807C42.271 12.6953 42.1162 12.8501 42.1162 13.1598V22.2952C42.1162 22.6048 42.271 22.7596 42.5807 22.7596H47.5357C47.8453 22.7596 48.0001 22.6048 48.0001 22.2952V13.1598C48.0001 12.8501 47.8453 12.6953 47.5357 12.6953Z" fill="black"/>
<path d="M47.5356 25.2383H34.0641C33.7544 25.2383 33.5996 25.3931 33.5996 25.7027L33.6 34.8381C33.6 35.1478 33.7548 35.3026 34.0645 35.3026H47.535C47.8446 35.3026 47.9995 35.1478 47.9995 34.8381V25.7027C47.9995 25.5479 47.8447 25.2383 47.535 25.2383H47.5356Z" fill="black"/>
<path d="M47.5355 0H34.2193C33.9097 0 33.7549 0.154814 33.7549 0.464455V9.59986C33.7549 9.90949 33.9097 10.0643 34.2193 10.0643H47.5355C47.8451 10.0643 48 9.9095 48 9.59986V0.464455C48 0.154824 47.8451 0 47.5355 0Z" fill="black"/>
<path d="M39.1743 37.9375H25.7027C25.3931 37.9375 25.2383 38.0923 25.2383 38.402V47.5374C25.2383 47.847 25.3931 48.0018 25.7027 48.0018H39.0189C39.3285 48.0018 39.4834 47.847 39.4834 47.5374V38.402C39.6386 38.0923 39.3289 37.9375 39.1741 37.9375H39.1743Z" fill="black"/>
<path d="M13.7806 35.3026C14.0902 35.3026 14.2451 35.1478 14.2451 34.8381V25.7027C14.2451 25.3931 14.0903 25.2383 13.7806 25.2383H0.464462C0.154828 25.2383 0 25.3931 0 25.7027V34.8381C0 35.1478 0.154818 35.3026 0.464462 35.3026H13.7806Z" fill="black"/>
<path d="M22.2963 37.9375H8.82579C8.51616 37.9375 8.36133 38.0923 8.36133 38.402V47.5374C8.36133 47.847 8.51615 48.0018 8.82579 48.0018H22.1419C22.4516 48.0018 22.6064 47.847 22.6064 47.5374V38.402C22.7612 38.0923 22.4516 37.9375 22.2968 37.9375H22.2963Z" fill="black"/>
<path d="M30.6587 35.3026C30.9683 35.3026 31.1231 35.1478 31.1231 34.8381V25.7027C31.1231 25.3931 30.9683 25.2383 30.6587 25.2383H17.1871C16.8775 25.2383 16.7227 25.3931 16.7227 25.7027V34.8381C16.7227 35.1478 16.8775 35.3026 17.1871 35.3026H30.6587Z" fill="black"/>
</svg>
