<svg width="48" height="46" viewBox="0 0 48 46" fill="none" xmlns="http://www.w3.org/2000/svg">
<path d="M7.06344 27.1401L6.96758 25.5086C6.94956 25.2013 7.19085 24.9421 7.49522 24.9421H19.5945C19.8984 24.9421 20.1397 25.2013 20.1217 25.5086L20.0263 27.1401C19.9394 27.1289 19.8538 27.1131 19.7641 27.1131H7.32503C7.23531 27.1131 7.14969 27.1289 7.06284 27.1401H7.06344ZM0 19.2477C0 19.9863 0.591142 20.5847 1.32078 20.5847H2.08316C1.99098 20.7672 1.93363 20.9712 1.93363 21.1902C1.93363 21.9288 2.52477 22.5273 3.25441 22.5273H3.82343C3.73125 22.7097 3.6739 22.9133 3.6739 23.1327C3.6739 23.8713 4.26504 24.4698 4.99468 24.4698H5.97705L5.97746 18.4453C5.97746 18.2595 6.00818 18.0824 6.05243 17.9103H1.32126C0.59166 17.9103 6.88105e-05 18.5091 6.88105e-05 19.2478L0 19.2477ZM19.5275 18.4452C19.5275 18.1499 19.2911 17.9102 18.999 17.9102H17.0646V20.7302C17.0646 21.0255 16.8282 21.2652 16.5361 21.2652C16.2444 21.2652 16.0077 21.0259 16.0077 20.7302V17.9102H14.0733V20.7302C14.0733 21.0255 13.8369 21.2652 13.5448 21.2652C13.2531 21.2652 13.0163 21.0259 13.0163 20.7302V17.9102H11.0819V20.7302C11.0819 21.0255 10.8456 21.2652 10.5535 21.2652C10.2618 21.2652 10.025 21.0259 10.025 20.7302V17.9102H8.09061C7.79893 17.9102 7.56214 18.1495 7.56214 18.4452V23.3375H19.5272L19.5275 18.4452ZM47.9996 0.534981V45.4645C47.9996 45.7597 47.7632 45.9994 47.4711 45.9994H34.5329V38.1038C34.5329 37.9561 34.4145 37.8363 34.2686 37.8363H28.5219C28.376 37.8363 28.2576 37.9561 28.2576 38.1038V45.9994H24.7637C24.472 45.9994 24.2352 45.7602 24.2352 45.4645V0.534981C24.2352 0.239712 24.4716 0 24.7637 0H47.4719C47.7636 0 48 0.239701 48 0.534981H47.9996ZM32.4405 30.2286C32.4405 30.0809 32.3221 29.9611 32.1763 29.9611H28.5212C28.3754 29.9611 28.257 30.0805 28.257 30.2286V33.5993C28.257 33.747 28.3754 33.8668 28.5212 33.8668H32.1763C32.3221 33.8668 32.4405 33.7474 32.4405 33.5993V30.2286ZM32.4405 21.8199C32.4405 21.6723 32.3221 21.5524 32.1763 21.5524H28.5212C28.3754 21.5524 28.257 21.6719 28.257 21.8199V25.1907C28.257 25.3383 28.3754 25.4582 28.5212 25.4582H32.1763C32.3221 25.4582 32.4405 25.3387 32.4405 25.1907V21.8199ZM32.4405 13.4112C32.4405 13.2636 32.3221 13.1437 32.1763 13.1437H28.5212C28.3754 13.1437 28.257 13.2632 28.257 13.4112V16.782C28.257 16.9296 28.3754 17.0495 28.5212 17.0495H32.1763C32.3221 17.0495 32.4405 16.93 32.4405 16.782V13.4112ZM32.4405 5.00256C32.4405 4.85492 32.3221 4.73507 32.1763 4.73507H28.5212C28.3754 4.73507 28.257 4.85451 28.257 5.00256V8.37333C28.257 8.52096 28.3754 8.64081 28.5212 8.64081H32.1763C32.3221 8.64081 32.4405 8.52138 32.4405 8.37333V5.00256ZM38.2086 30.2287C38.2086 30.081 38.0902 29.9612 37.9443 29.9612H34.2897C34.1439 29.9612 34.0255 30.0806 34.0255 30.2287V33.5995C34.0255 33.7471 34.1439 33.8669 34.2897 33.8669H37.9443C38.0902 33.8669 38.2086 33.7475 38.2086 33.5995V30.2287ZM38.2086 21.82C38.2086 21.6724 38.0902 21.5525 37.9443 21.5525H34.2897C34.1439 21.5525 34.0255 21.672 34.0255 21.82V25.1908C34.0255 25.3384 34.1439 25.4583 34.2897 25.4583H37.9443C38.0902 25.4583 38.2086 25.3388 38.2086 25.1908V21.82ZM38.2086 13.4113C38.2086 13.2637 38.0902 13.1438 37.9443 13.1438H34.2897C34.1439 13.1438 34.0255 13.2633 34.0255 13.4113V16.7821C34.0255 16.9297 34.1439 17.0496 34.2897 17.0496H37.9443C38.0902 17.0496 38.2086 16.9302 38.2086 16.7821V13.4113ZM38.2086 5.00266C38.2086 4.85503 38.0902 4.73518 37.9443 4.73518H34.2897C34.1439 4.73518 34.0255 4.85461 34.0255 5.00266V8.37344C34.0255 8.52107 34.1439 8.64092 34.2897 8.64092H37.9443C38.0902 8.64092 38.2086 8.52148 38.2086 8.37344V5.00266ZM43.9766 38.1042C43.9766 37.9565 43.8582 37.8367 43.7124 37.8367H38.5375C38.3917 37.8367 38.2733 37.9565 38.2733 38.1042V42.2057C38.2733 42.3533 38.3917 42.4732 38.5375 42.4732H43.7124C43.8582 42.4732 43.9766 42.3533 43.9766 42.2057V38.1042ZM43.9766 30.2288C43.9766 30.0812 43.8582 29.9613 43.7124 29.9613H40.0578C39.9119 29.9613 39.7935 30.0807 39.7935 30.2288V33.5996C39.7935 33.7472 39.9115 33.867 40.0578 33.867H43.7124C43.8582 33.867 43.9766 33.7476 43.9766 33.5996V30.2288ZM43.9766 21.8201C43.9766 21.6725 43.8582 21.5526 43.7124 21.5526H40.0578C39.9119 21.5526 39.7935 21.6721 39.7935 21.8201V25.1909C39.7935 25.3385 39.9115 25.4584 40.0578 25.4584H43.7124C43.8582 25.4584 43.9766 25.3389 43.9766 25.1909V21.8201ZM43.9766 13.4114C43.9766 13.2638 43.8582 13.144 43.7124 13.144H40.0578C39.9119 13.144 39.7935 13.2634 39.7935 13.4114V16.7822C39.7935 16.9298 39.9115 17.0497 40.0578 17.0497H43.7124C43.8582 17.0497 43.9766 16.9303 43.9766 16.7822V13.4114ZM43.9766 5.00277C43.9766 4.85513 43.8582 4.73528 43.7124 4.73528H40.0578C39.9119 4.73528 39.7935 4.85472 39.7935 5.00277V8.37354C39.7935 8.52118 39.9115 8.64103 40.0578 8.64103H43.7124C43.8582 8.64103 43.9766 8.52159 43.9766 8.37354V5.00277ZM19.7634 28.7181H7.32437C7.03269 28.7181 6.7959 28.9574 6.7959 29.2531V32.5895C6.7959 32.74 6.85858 32.8835 6.96836 32.9847L7.83398 33.7835C10.446 36.1942 11.8851 39.2817 11.8851 42.4767V45.465C11.8851 45.7603 12.1215 46 12.4136 46H14.6749C14.9666 46 15.2034 45.7607 15.2034 45.465V42.4767C15.2034 39.2817 16.6417 36.1942 19.2537 33.7835L20.1193 32.9847C20.2291 32.8835 20.2918 32.74 20.2918 32.5895V29.2531C20.2914 28.9579 20.055 28.7181 19.7633 28.7181H19.7634Z" fill="black"/>
</svg>
