<svg width="41" height="46" viewBox="0 0 41 46" fill="none" xmlns="http://www.w3.org/2000/svg">
<path d="M8.06689 2.6888C8.06689 2.56095 8.01605 2.43833 7.92595 2.34786C7.83548 2.25739 7.71286 2.20654 7.58501 2.20654H5.17415C4.90798 2.20654 4.69189 2.42262 4.69189 2.6888V6.43242L8.06696 3.05142L8.06689 2.6888Z" fill="black"/>
<path d="M24.0677 15.5591C24.2562 15.7475 24.5612 15.7475 24.7496 15.5591L26.5919 13.7172C26.7799 13.5292 26.7799 13.2238 26.5919 13.0357L13.7189 0.141629C13.6538 0.0780762 13.5716 0.034709 13.4826 0.0167647C13.3155 -0.0284704 13.1375 0.0193818 13.0153 0.141629L0.141315 13.0357C-0.0471051 13.2237 -0.0471051 13.5292 0.141315 13.7172L1.98322 15.5591C2.17126 15.7475 2.47668 15.7475 2.66473 15.5591L13.3672 4.85856L24.0677 15.5591Z" fill="black"/>
<path d="M19.5811 18.1498H22.5314V16.0694L13.3671 6.9043L4.20198 16.0694V23.9357H3.24495C2.97878 23.9357 2.7627 24.1514 2.7627 24.418V26.3466C2.7627 26.4744 2.81354 26.5971 2.90401 26.6875C2.99448 26.778 3.1171 26.8285 3.24495 26.8285H16.5975C16.3758 26.3615 16.2603 25.8509 16.2599 25.3339V21.573C16.2479 20.6792 16.5907 19.8167 17.2132 19.1752C17.8356 18.5333 18.6872 18.1647 19.5811 18.1498ZM10.4773 13.8102C10.4773 13.5441 10.6934 13.328 10.9596 13.328H15.7814H15.781C15.9089 13.328 16.0315 13.3788 16.122 13.4693C16.2124 13.5598 16.2633 13.6824 16.2633 13.8102V15.2566H10.4774L10.4773 13.8102ZM12.8882 19.1139H10.9596C10.6934 19.1139 10.4773 18.8982 10.4773 18.632V16.2212H12.8882L12.8882 19.1139ZM15.7813 19.1139H13.8527L13.8523 16.2211H16.2632V18.6319C16.2632 18.7598 16.2123 18.8824 16.1219 18.9729C16.0314 19.063 15.9088 19.1138 15.7809 19.1138L15.7813 19.1139Z" fill="black"/>
<path d="M39.4041 22.7301H36.9932V21.5731C37.0063 21.0624 36.8164 20.5678 36.465 20.1969C36.1132 19.8265 35.6294 19.6104 35.1188 19.5962H19.5814C19.0708 19.6104 18.5866 19.8265 18.2353 20.1969C17.8838 20.5678 17.6939 21.0624 17.7067 21.5731V25.3339C17.6939 25.8446 17.8839 26.3396 18.2353 26.71C18.5867 27.0805 19.0708 27.2966 19.5814 27.3108H35.1188C35.6295 27.2966 36.1133 27.0805 36.465 26.71C36.8164 26.3395 37.0063 25.8446 36.9932 25.3339V24.1769H38.6807V28.9987L27.3505 28.9983C26.9512 28.9983 26.6274 29.322 26.6274 29.7217V32.6148L24.4577 32.6144C23.941 32.6144 23.4632 32.8903 23.2049 33.3378C22.9466 33.7853 22.9466 34.3367 23.2049 34.7842C23.4632 35.2316 23.941 35.5075 24.4577 35.5075V42.2576C24.4577 43.2913 25.0091 44.2464 25.904 44.7631C26.799 45.2801 27.9018 45.2801 28.7971 44.7631C29.6921 44.2464 30.2435 43.2913 30.2435 42.2576V35.5075C30.7601 35.5075 31.2379 35.2316 31.4963 34.7842C31.7546 34.3367 31.7546 33.7852 31.4963 33.3378C31.2379 32.8903 30.7602 32.6144 30.2435 32.6144H28.0737V30.445H39.404C39.8036 30.445 40.1274 30.1209 40.1274 29.7216V23.4535C40.1274 23.0542 39.8037 22.7301 39.4041 22.7301ZM19.582 20.5607H35.1194C35.6492 20.591 36.0555 21.043 36.0297 21.5731V22.6632C35.3411 22.8329 35.174 23.3384 34.2192 23.3384C33.073 23.3384 33.073 22.6057 31.9265 22.6057C30.7799 22.6057 30.781 23.3384 29.6355 23.3384C28.4904 23.3384 28.4908 22.6057 27.3461 22.6057C26.2014 22.6057 26.2018 23.3384 25.0575 23.3384C23.9128 23.3384 23.9128 22.6049 22.7704 22.6049C21.6276 22.6049 21.6257 23.3376 20.481 23.3376C19.528 23.3376 19.3609 22.8348 18.6738 22.6625V21.5731C18.648 21.0437 19.0532 20.5921 19.5822 20.5607L19.582 20.5607Z" fill="black"/>
</svg>
