<svg width="48" height="48" viewBox="0 0 48 48" fill="none" xmlns="http://www.w3.org/2000/svg">
<path d="M42 22.0002C42 20.9002 41.1 20.0002 40 20.0002H38V14.0002L33.42 9.42017C32.64 8.64017 31.38 8.64017 30.6 9.42017L28 12.0002L25.42 9.42017C24.64 8.64017 23.38 8.64017 22.6 9.42017L20 12.0002L17.42 9.42017C16.64 8.64017 15.38 8.64017 14.6 9.42017L10 14.0002V20.0002H8C6.9 20.0002 6 20.9002 6 22.0002C6 23.1002 6.9 24.0002 8 24.0002H10V28.0002H8C6.9 28.0002 6 28.9002 6 30.0002C6 31.1002 6.9 32.0002 8 32.0002H10V38.0002C10 39.1002 10.9 40.0002 12 40.0002H36C37.1 40.0002 38 39.1002 38 38.0002V32.0002H40C41.1 32.0002 42 31.1002 42 30.0002C42 28.9002 41.1 28.0002 40 28.0002H38V24.0002H40C41.1 24.0002 42 23.1002 42 22.0002ZM32 13.6602L34 15.6602V20.0002H30V15.6602L30.82 14.8402L32 13.6602ZM24 13.6602L25.18 14.8402L26 15.6602V20.0002H22V15.6602L22.82 14.8402L24 13.6602ZM22 28.0002V24.0002H26V28.0002H22ZM26 32.0002V36.0002H22V32.0002H26ZM14 15.6602L16 13.6602L17.18 14.8402L18 15.6602V20.0002H14V15.6602ZM14 24.0002H18V28.0002H14V24.0002ZM14 32.0002H18V36.0002H14V32.0002ZM34 36.0002H30V32.0002H34V36.0002ZM34 28.0002H30V24.0002H34V28.0002Z" fill="black"/>
</svg>
