<svg width="81" height="79" viewBox="0 0 81 79" fill="none" xmlns="http://www.w3.org/2000/svg">
<rect x="0.624512" y="0.275024" width="80.368" height="78.3073" rx="15" fill="#E6EFF5"/>
<path d="M32.1051 51.9966C31.2904 51.182 31.7151 51.4117 29.7501 50.8857C28.8586 50.6467 28.0748 50.1873 27.3661 49.637L23.1127 60.0655C22.7011 61.0752 23.4699 62.1721 24.5592 62.1308L29.4989 61.9424L32.8963 65.5311C33.6463 66.3223 34.9626 66.0757 35.3741 65.0661L40.2538 53.1019C39.2375 53.6682 38.1097 54 36.9435 54C35.1154 54 33.3979 53.2885 32.1051 51.9966ZM58.8873 60.0655L54.6339 49.637C53.9252 50.1882 53.1414 50.6467 52.2499 50.8857C50.2746 51.4145 50.7077 51.1838 49.8949 51.9966C48.6021 53.2885 46.8837 54 45.0556 54C43.8893 54 42.7615 53.6672 41.7453 53.1019L46.6249 65.0661C47.0365 66.0757 48.3537 66.3223 49.1027 65.5311L52.5011 61.9424L57.4408 62.1308C58.5301 62.1721 59.2989 61.0743 58.8873 60.0655ZM47.6562 49.8751C49.0887 48.4173 49.2527 48.543 51.2927 47.987C52.5949 47.6317 53.613 46.5958 53.9617 45.2702C54.663 42.6078 54.4811 42.9293 56.3945 40.9812C57.348 40.0109 57.7201 38.5963 57.3714 37.2707C56.6711 34.6101 56.6702 34.9814 57.3714 32.318C57.7201 30.9924 57.348 29.5777 56.3945 28.6074C54.4811 26.6593 54.663 26.98 53.9617 24.3184C53.613 22.9928 52.5949 21.9569 51.2927 21.6016C48.679 20.8882 48.994 21.0748 47.0787 19.1257C46.1253 18.1554 44.735 17.7758 43.4328 18.1311C40.82 18.8436 41.1847 18.8445 38.5672 18.1311C37.265 17.7758 35.8747 18.1545 34.9213 19.1257C33.0079 21.0738 33.3229 20.8882 30.7082 21.6016C29.4061 21.9569 28.3879 22.9928 28.0392 24.3184C27.3389 26.98 27.5198 26.6593 25.6064 28.6074C24.653 29.5777 24.2799 30.9924 24.6295 32.318C25.3298 34.9767 25.3308 34.6054 24.6295 37.2697C24.2808 38.5953 24.653 40.01 25.6064 40.9812C27.5198 42.9293 27.338 42.6078 28.0392 45.2702C28.3879 46.5958 29.4061 47.6317 30.7082 47.987C32.8063 48.5589 32.9629 48.4689 34.3438 49.8751C35.5841 51.1379 37.5163 51.3638 39.0069 50.4207C39.603 50.0423 40.2944 49.8414 41.0005 49.8414C41.7065 49.8414 42.398 50.0423 42.994 50.4207C44.4837 51.3638 46.4159 51.1379 47.6562 49.8751ZM32.1557 34.4967C32.1557 29.5252 36.1157 25.495 41 25.495C45.8843 25.495 49.8443 29.5252 49.8443 34.4967C49.8443 39.4681 45.8843 43.4984 41 43.4984C36.1157 43.4984 32.1557 39.4681 32.1557 34.4967Z" fill="#232323"/>
</svg>
