<svg width="48" height="48" viewBox="0 0 48 48" fill="none" xmlns="http://www.w3.org/2000/svg">
<path d="M0 7.86885C0 3.523 3.52301 0 7.86885 0H40.1311C44.477 0 48 3.52301 48 7.86885V40.1311C48 44.477 44.477 48 40.1311 48H7.86885C3.523 48 0 44.477 0 40.1311V7.86885Z" fill="black"/>
<path d="M7.86885 6.68852C7.86885 7.3404 7.3404 7.86885 6.68852 7.86885C6.03665 7.86885 5.5082 7.3404 5.5082 6.68852C5.5082 6.03665 6.03665 5.5082 6.68852 5.5082C7.3404 5.5082 7.86885 6.03665 7.86885 6.68852Z" fill="white"/>
<path d="M11.8033 9.04918C11.8033 9.70106 11.2748 10.2295 10.623 10.2295C9.97107 10.2295 9.44262 9.70106 9.44262 9.04918C9.44262 8.3973 9.97107 7.86885 10.623 7.86885C11.2748 7.86885 11.8033 8.3973 11.8033 9.04918Z" fill="white"/>
<path d="M14.1639 5.90164C14.1639 6.55352 13.6355 7.08197 12.9836 7.08197C12.3317 7.08197 11.8033 6.55352 11.8033 5.90164C11.8033 5.24976 12.3317 4.72131 12.9836 4.72131C13.6355 4.72131 14.1639 5.24976 14.1639 5.90164Z" fill="white"/>
<path d="M18.0984 14.5574C18.0984 15.2093 17.5699 15.7377 16.918 15.7377C16.2662 15.7377 15.7377 15.2093 15.7377 14.5574C15.7377 13.9055 16.2662 13.377 16.918 13.377C17.5699 13.377 18.0984 13.9055 18.0984 14.5574Z" fill="white"/>
<path d="M18.0984 9.83607C18.0984 10.4879 17.5699 11.0164 16.918 11.0164C16.2662 11.0164 15.7377 10.4879 15.7377 9.83607C15.7377 9.18419 16.2662 8.65574 16.918 8.65574C17.5699 8.65574 18.0984 9.18419 18.0984 9.83607Z" fill="white"/>
<path d="M20.459 6.68852C20.459 7.3404 19.9306 7.86885 19.2787 7.86885C18.6268 7.86885 18.0984 7.3404 18.0984 6.68852C18.0984 6.03665 18.6268 5.5082 19.2787 5.5082C19.9306 5.5082 20.459 6.03665 20.459 6.68852Z" fill="white"/>
<path d="M25.9672 8.2623C25.9672 8.91417 25.4388 9.44262 24.7869 9.44262C24.135 9.44262 23.6066 8.91417 23.6066 8.2623C23.6066 7.61042 24.135 7.08197 24.7869 7.08197C25.4388 7.08197 25.9672 7.61042 25.9672 8.2623Z" fill="white"/>
<path d="M29.1148 5.90164C29.1148 6.55352 28.5863 7.08197 27.9344 7.08197C27.2825 7.08197 26.7541 6.55352 26.7541 5.90164C26.7541 5.24976 27.2825 4.72131 27.9344 4.72131C28.5863 4.72131 29.1148 5.24976 29.1148 5.90164Z" fill="white"/>
<path d="M32.2623 14.5574C32.2623 15.2093 31.7338 15.7377 31.082 15.7377C30.4301 15.7377 29.9016 15.2093 29.9016 14.5574C29.9016 13.9055 30.4301 13.377 31.082 13.377C31.7338 13.377 32.2623 13.9055 32.2623 14.5574Z" fill="white"/>
<path d="M22.8197 15.3443C22.8197 15.9961 22.2912 16.5246 21.6393 16.5246C20.9875 16.5246 20.459 15.9961 20.459 15.3443C20.459 14.6924 20.9875 14.1639 21.6393 14.1639C22.2912 14.1639 22.8197 14.6924 22.8197 15.3443Z" fill="white"/>
<path d="M8.65574 14.5574C8.65574 15.2093 8.12729 15.7377 7.47541 15.7377C6.82353 15.7377 6.29508 15.2093 6.29508 14.5574C6.29508 13.9055 6.82353 13.377 7.47541 13.377C8.12729 13.377 8.65574 13.9055 8.65574 14.5574Z" fill="white"/>
<path d="M27.541 13.7705C27.541 14.4224 27.0125 14.9508 26.3607 14.9508C25.7088 14.9508 25.1803 14.4224 25.1803 13.7705C25.1803 13.1186 25.7088 12.5902 26.3607 12.5902C27.0125 12.5902 27.541 13.1186 27.541 13.7705Z" fill="white"/>
<path d="M29.9016 10.623C29.9016 11.2748 29.3732 11.8033 28.7213 11.8033C28.0694 11.8033 27.541 11.2748 27.541 10.623C27.541 9.97107 28.0694 9.44262 28.7213 9.44262C29.3732 9.44262 29.9016 9.97107 29.9016 10.623Z" fill="white"/>
<path d="M22.8197 11.4098C22.8197 12.0617 22.2912 12.5902 21.6393 12.5902C20.9875 12.5902 20.459 12.0617 20.459 11.4098C20.459 10.758 20.9875 10.2295 21.6393 10.2295C22.2912 10.2295 22.8197 10.758 22.8197 11.4098Z" fill="white"/>
<path d="M24.3934 4.32787C24.3934 4.97975 23.865 5.5082 23.2131 5.5082C22.5612 5.5082 22.0328 4.97975 22.0328 4.32787C22.0328 3.67599 22.5612 3.14754 23.2131 3.14754C23.865 3.14754 24.3934 3.67599 24.3934 4.32787Z" fill="white"/>
<path d="M33.8361 9.04918C33.8361 9.70106 33.3076 10.2295 32.6557 10.2295C32.0039 10.2295 31.4754 9.70106 31.4754 9.04918C31.4754 8.3973 32.0039 7.86885 32.6557 7.86885C33.3076 7.86885 33.8361 8.3973 33.8361 9.04918Z" fill="white"/>
<path d="M37.7705 5.90164C37.7705 6.55352 37.242 7.08197 36.5902 7.08197C35.9383 7.08197 35.4098 6.55352 35.4098 5.90164C35.4098 5.24976 35.9383 4.72131 36.5902 4.72131C37.242 4.72131 37.7705 5.24976 37.7705 5.90164Z" fill="white"/>
<path d="M39.3443 10.623C39.3443 11.2748 38.8158 11.8033 38.1639 11.8033C37.5121 11.8033 36.9836 11.2748 36.9836 10.623C36.9836 9.97107 37.5121 9.44262 38.1639 9.44262C38.8158 9.44262 39.3443 9.97107 39.3443 10.623Z" fill="white"/>
<path d="M44.0656 7.47541C44.0656 8.12729 43.5371 8.65574 42.8852 8.65574C42.2334 8.65574 41.7049 8.12729 41.7049 7.47541C41.7049 6.82353 42.2334 6.29508 42.8852 6.29508C43.5371 6.29508 44.0656 6.82353 44.0656 7.47541Z" fill="white"/>
<path d="M36.1967 13.7705C36.1967 14.4224 35.6683 14.9508 35.0164 14.9508C34.3645 14.9508 33.8361 14.4224 33.8361 13.7705C33.8361 13.1186 34.3645 12.5902 35.0164 12.5902C35.6683 12.5902 36.1967 13.1186 36.1967 13.7705Z" fill="white"/>
<path d="M13.377 13.7705C13.377 14.4224 12.8486 14.9508 12.1967 14.9508C11.5448 14.9508 11.0164 14.4224 11.0164 13.7705C11.0164 13.1186 11.5448 12.5902 12.1967 12.5902C12.8486 12.5902 13.377 13.1186 13.377 13.7705Z" fill="white"/>
<path d="M44.8525 12.1967C44.8525 12.8486 44.324 13.377 43.6721 13.377C43.0203 13.377 42.4918 12.8486 42.4918 12.1967C42.4918 11.5448 43.0203 11.0164 43.6721 11.0164C44.324 11.0164 44.8525 11.5448 44.8525 12.1967Z" fill="white"/>
<path d="M40.918 14.5574C40.918 15.2093 40.3896 15.7377 39.7377 15.7377C39.0858 15.7377 38.5574 15.2093 38.5574 14.5574C38.5574 13.9055 39.0858 13.377 39.7377 13.377C40.3896 13.377 40.918 13.9055 40.918 14.5574Z" fill="white"/>
<path d="M6.29508 11.4098C6.29508 12.0617 5.76663 12.5902 5.11475 12.5902C4.46288 12.5902 3.93443 12.0617 3.93443 11.4098C3.93443 10.758 4.46288 10.2295 5.11475 10.2295C5.76663 10.2295 6.29508 10.758 6.29508 11.4098Z" fill="white"/>
<path d="M40.918 20.0656C40.918 20.7175 41.4465 21.2459 42.0984 21.2459C42.7502 21.2459 43.2787 20.7175 43.2787 20.0656C43.2787 19.4137 42.7502 18.8852 42.0984 18.8852C41.4465 18.8852 40.918 19.4137 40.918 20.0656Z" fill="white"/>
<path d="M36.9836 22.4262C36.9836 23.0781 37.5121 23.6066 38.1639 23.6066C38.8158 23.6066 39.3443 23.0781 39.3443 22.4262C39.3443 21.7744 38.8158 21.2459 38.1639 21.2459C37.5121 21.2459 36.9836 21.7744 36.9836 22.4262Z" fill="white"/>
<path d="M34.623 19.2787C34.623 19.9306 35.1514 20.459 35.8033 20.459C36.4552 20.459 36.9836 19.9306 36.9836 19.2787C36.9836 18.6268 36.4552 18.0984 35.8033 18.0984C35.1514 18.0984 34.623 18.6268 34.623 19.2787Z" fill="white"/>
<path d="M30.6885 27.9344C30.6885 28.5863 31.217 29.1148 31.8689 29.1148C32.5207 29.1148 33.0492 28.5863 33.0492 27.9344C33.0492 27.2825 32.5207 26.7541 31.8689 26.7541C31.217 26.7541 30.6885 27.2825 30.6885 27.9344Z" fill="white"/>
<path d="M30.6885 23.2131C30.6885 23.865 31.217 24.3934 31.8689 24.3934C32.5207 24.3934 33.0492 23.865 33.0492 23.2131C33.0492 22.5612 32.5207 22.0328 31.8689 22.0328C31.217 22.0328 30.6885 22.5612 30.6885 23.2131Z" fill="white"/>
<path d="M28.3279 20.0656C28.3279 20.7175 28.8563 21.2459 29.5082 21.2459C30.1601 21.2459 30.6885 20.7175 30.6885 20.0656C30.6885 19.4137 30.1601 18.8852 29.5082 18.8852C28.8563 18.8852 28.3279 19.4137 28.3279 20.0656Z" fill="white"/>
<path d="M22.8197 21.6393C22.8197 22.2912 23.3481 22.8197 24 22.8197C24.6519 22.8197 25.1803 22.2912 25.1803 21.6393C25.1803 20.9875 24.6519 20.459 24 20.459C23.3481 20.459 22.8197 20.9875 22.8197 21.6393Z" fill="white"/>
<path d="M19.6721 19.2787C19.6721 19.9306 20.2006 20.459 20.8525 20.459C21.5043 20.459 22.0328 19.9306 22.0328 19.2787C22.0328 18.6268 21.5043 18.0984 20.8525 18.0984C20.2006 18.0984 19.6721 18.6268 19.6721 19.2787Z" fill="white"/>
<path d="M12.5902 23.2131C12.5902 23.865 13.1186 24.3934 13.7705 24.3934C14.4224 24.3934 14.9508 23.865 14.9508 23.2131C14.9508 22.5612 14.4224 22.0328 13.7705 22.0328C13.1186 22.0328 12.5902 22.5612 12.5902 23.2131Z" fill="white"/>
<path d="M25.9672 28.7213C25.9672 29.3732 26.4957 29.9016 27.1475 29.9016C27.7994 29.9016 28.3279 29.3732 28.3279 28.7213C28.3279 28.0694 27.7994 27.541 27.1475 27.541C26.4957 27.541 25.9672 28.0694 25.9672 28.7213Z" fill="white"/>
<path d="M40.1311 27.9344C40.1311 28.5863 40.6596 29.1148 41.3115 29.1148C41.9634 29.1148 42.4918 28.5863 42.4918 27.9344C42.4918 27.2825 41.9634 26.7541 41.3115 26.7541C40.6596 26.7541 40.1311 27.2825 40.1311 27.9344Z" fill="white"/>
<path d="M21.2459 26.3607C21.2459 27.0125 21.7744 27.541 22.4262 27.541C23.0781 27.541 23.6066 27.0125 23.6066 26.3607C23.6066 25.7088 23.0781 25.1803 22.4262 25.1803C21.7744 25.1803 21.2459 25.7088 21.2459 26.3607Z" fill="white"/>
<path d="M17.3115 22.4262C17.3115 23.0781 17.8399 23.6066 18.4918 23.6066C19.1437 23.6066 19.6721 23.0781 19.6721 22.4262C19.6721 21.7744 19.1437 21.2459 18.4918 21.2459C17.8399 21.2459 17.3115 21.7744 17.3115 22.4262Z" fill="white"/>
<path d="M25.9672 24.7869C25.9672 25.4388 26.4957 25.9672 27.1475 25.9672C27.7994 25.9672 28.3279 25.4388 28.3279 24.7869C28.3279 24.135 27.7994 23.6066 27.1475 23.6066C26.4957 23.6066 25.9672 24.135 25.9672 24.7869Z" fill="white"/>
<path d="M24.3934 17.7049C24.3934 18.3568 24.9219 18.8852 25.5738 18.8852C26.2256 18.8852 26.7541 18.3568 26.7541 17.7049C26.7541 17.053 26.2256 16.5246 25.5738 16.5246C24.9219 16.5246 24.3934 17.053 24.3934 17.7049Z" fill="white"/>
<path d="M14.9508 18.4918C14.9508 19.1437 15.4793 19.6721 16.1311 19.6721C16.783 19.6721 17.3115 19.1437 17.3115 18.4918C17.3115 17.8399 16.783 17.3115 16.1311 17.3115C15.4793 17.3115 14.9508 17.8399 14.9508 18.4918Z" fill="white"/>
<path d="M11.0164 19.2787C11.0164 19.9306 11.5448 20.459 12.1967 20.459C12.8486 20.459 13.377 19.9306 13.377 19.2787C13.377 18.6268 12.8486 18.0984 12.1967 18.0984C11.5448 18.0984 11.0164 18.6268 11.0164 19.2787Z" fill="white"/>
<path d="M8.65574 22.4262C8.65574 23.0781 9.18419 23.6066 9.83607 23.6066C10.4879 23.6066 11.0164 23.0781 11.0164 22.4262C11.0164 21.7744 10.4879 21.2459 9.83607 21.2459C9.18419 21.2459 8.65574 21.7744 8.65574 22.4262Z" fill="white"/>
<path d="M4.72131 20.0656C4.72131 20.7175 5.24976 21.2459 5.90164 21.2459C6.55352 21.2459 7.08197 20.7175 7.08197 20.0656C7.08197 19.4137 6.55352 18.8852 5.90164 18.8852C5.24976 18.8852 4.72131 19.4137 4.72131 20.0656Z" fill="white"/>
<path d="M15.7377 26.3607C15.7377 27.0125 16.2662 27.541 16.918 27.541C17.5699 27.541 18.0984 27.0125 18.0984 26.3607C18.0984 25.7088 17.5699 25.1803 16.918 25.1803C16.2662 25.1803 15.7377 25.7088 15.7377 26.3607Z" fill="white"/>
<path d="M34.623 24.7869C34.623 25.4388 35.1514 25.9672 35.8033 25.9672C36.4552 25.9672 36.9836 25.4388 36.9836 24.7869C36.9836 24.135 36.4552 23.6066 35.8033 23.6066C35.1514 23.6066 34.623 24.135 34.623 24.7869Z" fill="white"/>
<path d="M3.93443 25.5738C3.93443 26.2256 4.46288 26.7541 5.11475 26.7541C5.76663 26.7541 6.29508 26.2256 6.29508 25.5738C6.29508 24.9219 5.76663 24.3934 5.11475 24.3934C4.46288 24.3934 3.93443 24.9219 3.93443 25.5738Z" fill="white"/>
<path d="M7.86885 27.9344C7.86885 28.5863 8.3973 29.1148 9.04918 29.1148C9.70106 29.1148 10.2295 28.5863 10.2295 27.9344C10.2295 27.2825 9.70106 26.7541 9.04918 26.7541C8.3973 26.7541 7.86885 27.2825 7.86885 27.9344Z" fill="white"/>
<path d="M42.4918 24.7869C42.4918 25.4388 43.0203 25.9672 43.6721 25.9672C44.324 25.9672 44.8525 25.4388 44.8525 24.7869C44.8525 24.135 44.324 23.6066 43.6721 23.6066C43.0203 23.6066 42.4918 24.135 42.4918 24.7869Z" fill="white"/>
<path d="M40.1311 40.5246C40.1311 39.8727 40.6596 39.3443 41.3115 39.3443C41.9634 39.3443 42.4918 39.8727 42.4918 40.5246C42.4918 41.1765 41.9634 41.7049 41.3115 41.7049C40.6596 41.7049 40.1311 41.1765 40.1311 40.5246Z" fill="white"/>
<path d="M36.1967 38.1639C36.1967 37.5121 36.7252 36.9836 37.377 36.9836C38.0289 36.9836 38.5574 37.5121 38.5574 38.1639C38.5574 38.8158 38.0289 39.3443 37.377 39.3443C36.7252 39.3443 36.1967 38.8158 36.1967 38.1639Z" fill="white"/>
<path d="M33.8361 41.3115C33.8361 40.6596 34.3645 40.1311 35.0164 40.1311C35.6683 40.1311 36.1967 40.6596 36.1967 41.3115C36.1967 41.9634 35.6683 42.4918 35.0164 42.4918C34.3645 42.4918 33.8361 41.9634 33.8361 41.3115Z" fill="white"/>
<path d="M29.9016 32.6557C29.9016 32.0039 30.4301 31.4754 31.082 31.4754C31.7338 31.4754 32.2623 32.0039 32.2623 32.6557C32.2623 33.3076 31.7338 33.8361 31.082 33.8361C30.4301 33.8361 29.9016 33.3076 29.9016 32.6557Z" fill="white"/>
<path d="M29.9016 37.377C29.9016 36.7252 30.4301 36.1967 31.082 36.1967C31.7338 36.1967 32.2623 36.7252 32.2623 37.377C32.2623 38.0289 31.7338 38.5574 31.082 38.5574C30.4301 38.5574 29.9016 38.0289 29.9016 37.377Z" fill="white"/>
<path d="M25.9672 38.9508C25.9672 38.2989 26.4957 37.7705 27.1475 37.7705C27.7994 37.7705 28.3279 38.2989 28.3279 38.9508C28.3279 39.6027 27.7994 40.1311 27.1475 40.1311C26.4957 40.1311 25.9672 39.6027 25.9672 38.9508Z" fill="white"/>
<path d="M25.9672 33.4426C25.9672 32.7907 26.4957 32.2623 27.1475 32.2623C27.7994 32.2623 28.3279 32.7907 28.3279 33.4426C28.3279 34.0945 27.7994 34.623 27.1475 34.623C26.4957 34.623 25.9672 34.0945 25.9672 33.4426Z" fill="white"/>
<path d="M18.8852 41.3115C18.8852 40.6596 19.4137 40.1311 20.0656 40.1311C20.7175 40.1311 21.2459 40.6596 21.2459 41.3115C21.2459 41.9634 20.7175 42.4918 20.0656 42.4918C19.4137 42.4918 18.8852 41.9634 18.8852 41.3115Z" fill="white"/>
<path d="M11.8033 37.377C11.8033 36.7252 12.3317 36.1967 12.9836 36.1967C13.6355 36.1967 14.1639 36.7252 14.1639 37.377C14.1639 38.0289 13.6355 38.5574 12.9836 38.5574C12.3317 38.5574 11.8033 38.0289 11.8033 37.377Z" fill="white"/>
<path d="M12.5902 29.5082C12.5902 28.8563 13.1186 28.3279 13.7705 28.3279C14.4224 28.3279 14.9508 28.8563 14.9508 29.5082C14.9508 30.1601 14.4224 30.6885 13.7705 30.6885C13.1186 30.6885 12.5902 30.1601 12.5902 29.5082Z" fill="white"/>
<path d="M39.3443 32.6557C39.3443 32.0039 39.8727 31.4754 40.5246 31.4754C41.1765 31.4754 41.7049 32.0039 41.7049 32.6557C41.7049 33.3076 41.1765 33.8361 40.5246 33.8361C39.8727 33.8361 39.3443 33.3076 39.3443 32.6557Z" fill="white"/>
<path d="M18.8852 30.2951C18.8852 29.6432 19.4137 29.1148 20.0656 29.1148C20.7175 29.1148 21.2459 29.6432 21.2459 30.2951C21.2459 30.947 20.7175 31.4754 20.0656 31.4754C19.4137 31.4754 18.8852 30.947 18.8852 30.2951Z" fill="white"/>
<path d="M18.0984 35.0164C18.0984 34.3645 18.6268 33.8361 19.2787 33.8361C19.9306 33.8361 20.459 34.3645 20.459 35.0164C20.459 35.6683 19.9306 36.1967 19.2787 36.1967C18.6268 36.1967 18.0984 35.6683 18.0984 35.0164Z" fill="white"/>
<path d="M22.8197 31.8689C22.8197 31.217 23.3481 30.6885 24 30.6885C24.6519 30.6885 25.1803 31.217 25.1803 31.8689C25.1803 32.5207 24.6519 33.0492 24 33.0492C23.3481 33.0492 22.8197 32.5207 22.8197 31.8689Z" fill="white"/>
<path d="M22.8197 36.5902C22.8197 35.9383 23.3481 35.4098 24 35.4098C24.6519 35.4098 25.1803 35.9383 25.1803 36.5902C25.1803 37.242 24.6519 37.7705 24 37.7705C23.3481 37.7705 22.8197 37.242 22.8197 36.5902Z" fill="white"/>
<path d="M15.7377 38.9508C15.7377 38.2989 16.2662 37.7705 16.918 37.7705C17.5699 37.7705 18.0984 38.2989 18.0984 38.9508C18.0984 39.6027 17.5699 40.1311 16.918 40.1311C16.2662 40.1311 15.7377 39.6027 15.7377 38.9508Z" fill="white"/>
<path d="M10.2295 41.3115C10.2295 40.6596 10.758 40.1311 11.4098 40.1311C12.0617 40.1311 12.5902 40.6596 12.5902 41.3115C12.5902 41.9634 12.0617 42.4918 11.4098 42.4918C10.758 42.4918 10.2295 41.9634 10.2295 41.3115Z" fill="white"/>
<path d="M7.86885 38.1639C7.86885 37.5121 8.3973 36.9836 9.04918 36.9836C9.70106 36.9836 10.2295 37.5121 10.2295 38.1639C10.2295 38.8158 9.70106 39.3443 9.04918 39.3443C8.3973 39.3443 7.86885 38.8158 7.86885 38.1639Z" fill="white"/>
<path d="M3.93443 40.5246C3.93443 39.8727 4.46288 39.3443 5.11475 39.3443C5.76663 39.3443 6.29508 39.8727 6.29508 40.5246C6.29508 41.1765 5.76663 41.7049 5.11475 41.7049C4.46288 41.7049 3.93443 41.1765 3.93443 40.5246Z" fill="white"/>
<path d="M14.9508 34.2295C14.9508 33.5776 15.4793 33.0492 16.1311 33.0492C16.783 33.0492 17.3115 33.5776 17.3115 34.2295C17.3115 34.8814 16.783 35.4098 16.1311 35.4098C15.4793 35.4098 14.9508 34.8814 14.9508 34.2295Z" fill="white"/>
<path d="M33.8361 35.8033C33.8361 35.1514 34.3645 34.623 35.0164 34.623C35.6683 34.623 36.1967 35.1514 36.1967 35.8033C36.1967 36.4552 35.6683 36.9836 35.0164 36.9836C34.3645 36.9836 33.8361 36.4552 33.8361 35.8033Z" fill="white"/>
<path d="M3.14754 35.0164C3.14754 34.3645 3.67599 33.8361 4.32787 33.8361C4.97975 33.8361 5.5082 34.3645 5.5082 35.0164C5.5082 35.6683 4.97975 36.1967 4.32787 36.1967C3.67599 36.1967 3.14754 35.6683 3.14754 35.0164Z" fill="white"/>
<path d="M7.08197 32.6557C7.08197 32.0039 7.61042 31.4754 8.2623 31.4754C8.91417 31.4754 9.44262 32.0039 9.44262 32.6557C9.44262 33.3076 8.91417 33.8361 8.2623 33.8361C7.61042 33.8361 7.08197 33.3076 7.08197 32.6557Z" fill="white"/>
<path d="M41.7049 35.8033C41.7049 35.1514 42.2334 34.623 42.8852 34.623C43.5371 34.623 44.0656 35.1514 44.0656 35.8033C44.0656 36.4552 43.5371 36.9836 42.8852 36.9836C42.2334 36.9836 41.7049 36.4552 41.7049 35.8033Z" fill="white"/>
</svg>
