<svg width="34" height="38" viewBox="0 0 34 38" fill="none" xmlns="http://www.w3.org/2000/svg">
<path d="M6.83531 2.25743C6.83531 2.14983 6.79223 2.04663 6.71589 1.97049C6.63924 1.89435 6.53534 1.85156 6.42701 1.85156H4.38429C4.15877 1.85156 3.97568 2.03341 3.97568 2.25743V5.40808L6.83537 2.56262L6.83531 2.25743Z" fill="#232323"/>
<path d="M20.3926 13.0946C20.5523 13.2532 20.8107 13.2532 20.9704 13.0946L22.5313 11.5445C22.6907 11.3862 22.6907 11.1292 22.5313 10.9709L11.624 0.119196C11.5689 0.0657093 11.4992 0.0292113 11.4238 0.0141092C11.2822 -0.0239608 11.1315 0.0163119 11.0279 0.119196L0.119767 10.9709C-0.0398816 11.1292 -0.0398816 11.3862 0.119767 11.5445L1.68041 13.0946C1.83973 13.2532 2.09852 13.2532 2.25785 13.0946L11.3261 4.08899L20.3926 13.0946Z" fill="#232323"/>
<path d="M16.5911 15.2768H19.091V13.5259L11.326 5.8125L3.56042 13.5259V20.1462H2.74953C2.524 20.1462 2.34091 20.3278 2.34091 20.5521V22.1752C2.34091 22.2828 2.38399 22.386 2.46065 22.4622C2.5373 22.5383 2.6412 22.5808 2.74953 22.5808H14.0631C13.8753 22.1878 13.7774 21.758 13.7771 21.3229V18.1578C13.7669 17.4055 14.0574 16.6796 14.5848 16.1398C15.1122 15.5995 15.8338 15.2893 16.5911 15.2768ZM8.87752 11.6246C8.87752 11.4006 9.06061 11.2187 9.28614 11.2187H13.3717H13.3713C13.4797 11.2187 13.5836 11.2615 13.6602 11.3376C13.7369 11.4138 13.78 11.517 13.78 11.6246V12.8418H8.87755L8.87752 11.6246ZM10.9202 16.0882H9.28613C9.06061 16.0882 8.87752 15.9066 8.87752 15.6826V13.6536H10.9202L10.9202 16.0882ZM13.3716 16.0882H11.7375L11.7371 13.6536H13.7799V15.6826C13.7799 15.7902 13.7368 15.8934 13.6601 15.9695C13.5835 16.0453 13.4796 16.0881 13.3712 16.0881L13.3716 16.0882Z" fill="#232323"/>
<path d="M33.3871 19.1297H31.3444V18.1559C31.3555 17.7262 31.1946 17.3099 30.8969 16.9978C30.5988 16.686 30.1889 16.5041 29.7562 16.4922H16.5914C16.1587 16.5041 15.7485 16.686 15.4508 16.9978C15.1531 17.3099 14.9921 17.7261 15.0029 18.1559V21.3211C14.9921 21.7509 15.1531 22.1674 15.4508 22.4792C15.7486 22.791 16.1588 22.9729 16.5914 22.9848H29.7562C30.1889 22.9729 30.5988 22.791 30.8969 22.4792C31.1946 22.1674 31.3555 21.7509 31.3444 21.3211V20.3473H32.7743V24.4054L23.1741 24.4051C22.8358 24.4051 22.5615 24.6775 22.5615 25.0139V27.4487L20.7231 27.4484C20.2853 27.4484 19.8805 27.6806 19.6616 28.0572C19.4427 28.4338 19.4427 28.8979 19.6616 29.2745C19.8805 29.651 20.2853 29.8833 20.7231 29.8833V35.5641C20.7231 36.4341 21.1903 37.2379 21.9486 37.6728C22.7069 38.1079 23.6413 38.1079 24.3999 37.6728C25.1582 37.238 25.6254 36.4341 25.6254 35.5641V29.8833C26.0631 29.8833 26.468 29.6511 26.6868 29.2745C26.9057 28.8979 26.9057 28.4337 26.6868 28.0572C26.468 27.6806 26.0631 27.4484 25.6254 27.4484H23.7869V25.6226H33.3871C33.7257 25.6226 34 25.3498 34 25.0138V19.7385C34 19.4025 33.7257 19.1297 33.3871 19.1297ZM16.5919 17.3039H29.7568C30.2056 17.3294 30.5499 17.7098 30.5281 18.1559V19.0734C29.9446 19.2163 29.803 19.6416 28.994 19.6416C28.0228 19.6416 28.0228 19.025 27.0514 19.025C26.0799 19.025 26.0808 19.6416 25.1103 19.6416C24.14 19.6416 24.1403 19.025 23.1704 19.025C22.2005 19.025 22.2009 19.6416 21.2313 19.6416C20.2614 19.6416 20.2614 19.0243 19.2934 19.0243C18.3251 19.0243 18.3235 19.641 17.3536 19.641C16.5462 19.641 16.4046 19.2178 15.8224 19.0728V18.1559C15.8005 17.7104 16.1439 17.3304 16.5921 17.3039L16.5919 17.3039Z" fill="#232323"/>
</svg>
