<svg width="48" height="48" viewBox="0 0 48 48" fill="none" xmlns="http://www.w3.org/2000/svg">
<path d="M40.002 17.6017V4.75247C40.0008 3.49245 39.4998 2.28436 38.609 1.39346C37.7181 0.502566 36.5101 0.0016261 35.2499 0H4.75248C3.49245 0.00158788 2.28436 0.502596 1.39346 1.39346C0.502566 2.28433 0.0016261 3.49235 0 4.75247V27.3613C0.00198496 28.6211 0.502992 29.8286 1.39387 30.7195C2.28475 31.6104 3.49276 32.1118 4.75248 32.1134H7.88871V38.4018C7.88911 38.7127 7.98002 39.0168 8.15073 39.2768C8.32104 39.5368 8.5636 39.7417 8.84865 39.866C9.05032 39.9553 9.26827 40.0017 9.48861 40.0017C9.88918 40.0017 10.2751 39.8517 10.5705 39.5809L17.6013 33.1392V24.4648C17.6053 22.6458 18.3298 20.9021 19.6165 19.6159C20.9027 18.3292 22.6463 17.6047 24.4654 17.6007L40.002 17.6017Z" fill="#232323"/>
<path d="M44.3386 20.7974H24.4657C23.4942 20.7982 22.5628 21.1844 21.8757 21.8712C21.1889 22.5584 20.8026 23.4898 20.8019 24.4612V39.1977C20.8027 40.1691 21.189 41.1009 21.8757 41.7877C22.5629 42.4749 23.4943 42.8611 24.4657 42.8619H35.0262L40.1831 47.579H40.1835C40.4793 47.8494 40.866 47.999 41.2665 47.9982C41.4872 47.9978 41.7052 47.9518 41.9069 47.8621C42.1915 47.7378 42.4341 47.533 42.6048 47.2729C42.7751 47.0129 42.8664 46.7088 42.8668 46.3979V42.8619H44.3388C45.3103 42.8611 46.2421 42.4748 46.9288 41.7876C47.616 41.1008 48.0022 40.1691 48.003 39.1977V24.4612C48.0023 23.4897 47.616 22.5583 46.9288 21.8712C46.242 21.1844 45.3102 20.7981 44.3388 20.7974L44.3386 20.7974Z" fill="#232323"/>
</svg>
