<svg width="49" height="39" viewBox="0 0 49 39" fill="none" xmlns="http://www.w3.org/2000/svg">
<path d="M24.6979 27.164C22.1021 27.164 19.953 25.0532 19.7928 22.4062C20.6143 22.5931 21.5963 22.7241 22.6391 22.7975C22.6557 22.799 22.6724 22.8005 22.689 22.8013C22.7308 22.8043 22.7734 22.8066 22.8159 22.8097C23.3151 22.8418 23.8321 22.862 24.3608 22.8678C24.473 22.8689 24.5854 22.8697 24.6979 22.8697C24.81 22.8697 24.9225 22.8685 25.035 22.8678C25.5627 22.862 26.0792 22.8418 26.578 22.8097C26.621 22.8066 26.665 22.8043 26.7075 22.8013C26.7235 22.8001 26.7401 22.799 26.7564 22.7975C27.8003 22.7241 28.7819 22.5931 29.6041 22.4062C29.4424 25.0531 27.2936 27.164 24.6979 27.164Z" fill="black"/>
<path d="M19.0501 20.2425L19.1674 20.2036L19.1841 20.0775C19.5549 17.2431 21.9253 15.1055 24.6983 15.1055C27.4709 15.1055 29.8417 17.243 30.2124 20.0775L30.2287 20.2036L30.346 20.2425C31.2063 20.5272 31.5127 20.8275 31.5127 21.0128C31.5127 21.3153 30.8699 21.6775 29.7047 21.9648C29.6803 21.9713 29.6551 21.9767 29.6311 21.9824C29.5811 21.9943 29.5312 22.0065 29.4794 22.0179C28.2834 22.2861 26.7071 22.4462 25.059 22.4668C24.9399 22.4684 24.82 22.4688 24.6979 22.4688C24.5761 22.4688 24.4559 22.4684 24.3371 22.4668C22.7941 22.4477 21.3136 22.3064 20.1491 22.0676C20.148 22.0676 20.1476 22.0672 20.1469 22.0672C20.0692 22.0516 19.9937 22.0351 19.9193 22.0179C19.8631 22.005 19.8079 21.992 19.7535 21.979C19.7339 21.9744 19.7139 21.9694 19.6947 21.9652C18.5269 21.6779 17.8834 21.3153 17.8834 21.0124C17.8827 20.8275 18.1891 20.5279 19.0501 20.2425Z" fill="black"/>
<path d="M13.4372 5.65234C13.2884 7.64777 11.6589 9.23104 9.69394 9.23104C7.7291 9.23104 6.09951 7.64777 5.95032 5.65273C6.86391 5.85522 8.01357 5.97481 9.25241 5.99811C9.40264 6.00154 9.55029 6.00307 9.69348 6.00307C9.83668 6.00307 9.98359 6.00154 10.1346 5.99811C11.3742 5.97518 12.5242 5.8556 13.437 5.65234H13.4372Z" fill="black"/>
<path d="M5.34271 3.96801L5.46001 3.92904L5.47666 3.80296C5.76011 1.63521 7.57364 0 9.69458 0C11.8155 0 13.6283 1.63481 13.9125 3.80296L13.9292 3.92904L14.0465 3.96801C14.6899 4.1812 14.9179 4.3982 14.9179 4.52007C14.9179 4.72294 14.4846 4.96783 13.7056 5.17338L13.598 5.20089C13.5365 5.21617 13.4725 5.23184 13.4081 5.24635C13.4059 5.2475 13.4033 5.2475 13.4011 5.24826C13.3415 5.26164 13.2805 5.27501 13.2183 5.28762C13.2098 5.28914 13.2017 5.29105 13.1932 5.29258C12.2973 5.47482 11.1591 5.58371 9.97281 5.5986C9.884 5.59975 9.79483 5.60013 9.70454 5.60013H9.69492C9.60131 5.60013 9.5088 5.59975 9.41703 5.5986C8.31876 5.58485 7.26236 5.49086 6.40016 5.33193C6.39868 5.33193 6.39794 5.33193 6.39646 5.33155C6.32911 5.31932 6.26325 5.30633 6.1985 5.29296C6.1885 5.29105 6.17888 5.28914 6.16926 5.28723C6.10858 5.275 6.04901 5.26163 5.99017 5.24864C5.98684 5.24749 5.98314 5.24673 5.98018 5.24635C5.9158 5.23145 5.85289 5.21617 5.7911 5.20088L5.68897 5.17529C4.90673 4.96936 4.47125 4.72332 4.47125 4.52007C4.47125 4.3982 4.69961 4.1808 5.34271 3.96801Z" fill="black"/>
<path d="M43.4449 5.65234C43.2954 7.64777 41.6662 9.23104 39.7013 9.23104C37.7363 9.23104 36.1072 7.64777 35.9576 5.65273C36.8712 5.85522 38.0213 5.97481 39.2601 5.99811C39.4103 6.00154 39.558 6.00307 39.7012 6.00307C39.8444 6.00307 39.9917 6.00154 40.1426 5.99811C41.3822 5.97518 42.5319 5.8556 43.4447 5.65234H43.4449Z" fill="black"/>
<path d="M35.3505 3.96801L35.4674 3.92904L35.484 3.80296C35.7675 1.6352 37.5814 0 39.702 0C41.823 0 43.6365 1.63481 43.9199 3.80296L43.9365 3.92904L44.0538 3.96801C44.6966 4.18119 44.9245 4.3982 44.9245 4.52007C44.9245 4.72294 44.4916 4.96783 43.7127 5.17338L43.605 5.20089C43.5421 5.21655 43.4777 5.23184 43.4126 5.24712H43.4107C43.3486 5.26125 43.2857 5.27539 43.2216 5.288C43.215 5.28953 43.2083 5.29105 43.2013 5.29258C42.3055 5.47482 41.1668 5.58371 39.9798 5.59861C39.891 5.59975 39.8018 5.60013 39.7112 5.60013H39.7015C39.6079 5.60013 39.5154 5.59975 39.4237 5.59861C38.3265 5.58485 37.2705 5.49086 36.4091 5.33269C36.4054 5.33231 36.4013 5.33116 36.398 5.33078C36.3332 5.31894 36.2695 5.30633 36.2081 5.29372C36.1967 5.29143 36.1848 5.28876 36.1733 5.28646C36.1145 5.27462 36.0568 5.26201 36.0009 5.2494C35.9954 5.24788 35.9909 5.24711 35.985 5.24558C35.9214 5.23145 35.8596 5.21655 35.7992 5.20127L35.6986 5.17567C34.9149 4.96974 34.4794 4.7237 34.4794 4.52045C34.4794 4.39819 34.7073 4.1808 35.3505 3.96801Z" fill="black"/>
<path d="M34.741 32.4488C34.7299 32.4193 34.7184 32.3907 34.7077 32.3617C34.6862 32.307 34.6647 32.2524 34.6429 32.1978C34.6277 32.1599 34.6129 32.1229 34.597 32.0851C34.5704 32.019 34.5437 31.9529 34.5164 31.8883C34.4912 31.8287 34.4668 31.7691 34.442 31.7114C34.4276 31.6778 34.4124 31.6446 34.398 31.6109C34.3754 31.5601 34.3536 31.5101 34.3317 31.4608C34.3169 31.4283 34.3021 31.3958 34.2877 31.3637C34.2651 31.3145 34.2422 31.2656 34.22 31.2178C34.2063 31.1872 34.1915 31.1571 34.1774 31.1273C34.1541 31.078 34.1301 31.0302 34.1071 30.9825C34.0938 30.9553 34.0805 30.9282 34.0675 30.9015C34.0413 30.8503 34.0161 30.7998 33.9902 30.7502C33.9791 30.7291 33.9676 30.707 33.9573 30.686C33.9206 30.6157 33.8832 30.5477 33.847 30.4816C33.807 30.409 33.7648 30.3375 33.723 30.2676C33.7071 30.2417 33.6916 30.2164 33.6753 30.1905C33.649 30.1481 33.6227 30.1056 33.5961 30.0644C33.5758 30.0327 33.5547 30.001 33.5336 29.9696C33.5117 29.9372 33.4895 29.9047 33.4673 29.8726C33.4422 29.8371 33.4177 29.8011 33.393 29.766C33.377 29.7442 33.3615 29.7236 33.3452 29.7018C33.2346 29.5528 33.1195 29.4095 32.9981 29.2739C32.9944 29.2693 32.9904 29.2651 32.987 29.2617C32.9452 29.2143 32.9027 29.1692 32.859 29.1234C32.8534 29.1169 32.8472 29.1112 32.8409 29.1043C32.7965 29.0584 32.7521 29.013 32.7073 28.9694C32.7051 28.9675 32.7025 28.9656 32.7006 28.9629C32.5589 28.825 32.4101 28.6943 32.254 28.5706C32.2492 28.5667 32.244 28.5625 32.2392 28.5587C32.2015 28.5285 32.163 28.5003 32.1237 28.4708C32.0986 28.4517 32.0738 28.433 32.0479 28.4147C32.0172 28.3925 31.9857 28.3704 31.9554 28.3486C31.9154 28.3203 31.8743 28.2936 31.8333 28.2664C31.8137 28.2535 31.794 28.2405 31.7744 28.2275C31.4958 28.0491 31.1976 27.889 30.8767 27.7461L30.7154 27.6743C29.8988 27.3319 28.9433 27.0943 27.8177 26.9453C26.9067 27.6319 25.8296 27.9933 24.6969 27.9933C23.565 27.9933 22.4879 27.6315 21.5761 26.9453C20.4512 27.0943 19.4962 27.3312 18.6807 27.6735L18.5175 27.7461C18.1967 27.889 17.8981 28.0491 17.6187 28.2286C17.5995 28.2405 17.5813 28.2527 17.5628 28.2649C17.5203 28.2924 17.4788 28.3211 17.4374 28.3497C17.4074 28.3707 17.3767 28.3921 17.3471 28.4139C17.3205 28.433 17.2946 28.4525 17.2683 28.472C17.2302 28.5006 17.1921 28.5293 17.1547 28.5583C17.1484 28.5637 17.1421 28.5686 17.1362 28.5736C16.9819 28.6963 16.8346 28.8258 16.6936 28.9629C16.6914 28.9648 16.6888 28.9675 16.6866 28.9698C16.6411 29.0137 16.5971 29.0588 16.553 29.1043C16.5467 29.1112 16.5404 29.1173 16.5338 29.1242C16.4909 29.1696 16.4483 29.2155 16.4069 29.2617C16.4032 29.2663 16.3987 29.2712 16.395 29.2751C16.2744 29.4111 16.1593 29.5536 16.0491 29.7022C16.0331 29.724 16.0176 29.7446 16.0017 29.7664C15.9765 29.8015 15.9521 29.8374 15.9273 29.873C15.9047 29.9051 15.8829 29.9375 15.8611 29.97C15.84 30.001 15.8196 30.033 15.7989 30.0648C15.7723 30.106 15.746 30.1484 15.7194 30.1908C15.7034 30.2168 15.6875 30.242 15.6716 30.268C15.6298 30.3379 15.588 30.409 15.5477 30.482C15.511 30.5481 15.474 30.6161 15.4374 30.686C15.427 30.7062 15.4159 30.7272 15.4056 30.7482C15.3793 30.7994 15.353 30.8503 15.3264 30.903C15.3145 30.9267 15.3027 30.9511 15.2912 30.9748C15.2661 31.026 15.2405 31.078 15.2154 31.1311C15.2035 31.1567 15.1909 31.1823 15.1787 31.2082C15.1539 31.2613 15.1288 31.316 15.1033 31.3714C15.0914 31.3981 15.0788 31.4245 15.067 31.4516C15.0418 31.5082 15.0163 31.5666 14.9908 31.6251C14.9793 31.6522 14.9678 31.6778 14.9564 31.7045C14.9253 31.7775 14.8938 31.8524 14.8624 31.9276C14.8428 31.975 14.8239 32.0216 14.8046 32.0694C14.7876 32.1118 14.7702 32.1542 14.7532 32.1974C14.7306 32.2539 14.7084 32.3112 14.6859 32.3689C14.6766 32.3914 14.6677 32.4148 14.6592 32.4381C13.9835 34.1897 13.4959 36.0519 13.356 36.6078C14.1519 36.9493 18.1331 38.5016 24.6986 38.5016C31.2641 38.5016 35.2455 36.9501 36.0412 36.6078C35.901 36.053 35.4144 34.1977 34.741 32.4488Z" fill="black"/>
<path d="M47.5605 13.2701C47.5517 13.248 47.5426 13.2265 47.5341 13.2048C47.517 13.1638 47.5 13.1229 47.4826 13.0819C47.4706 13.0536 47.4588 13.0258 47.4462 12.9974C47.425 12.9479 47.4038 12.8983 47.3821 12.8499C47.3621 12.8052 47.3427 12.7606 47.323 12.7173C47.3115 12.6921 47.2994 12.6672 47.288 12.642C47.27 12.6039 47.2527 12.5664 47.2353 12.5295C47.2236 12.5051 47.2118 12.4808 47.2004 12.4567C47.1824 12.4198 47.1642 12.3831 47.1466 12.3473C47.1357 12.3244 47.1239 12.3018 47.1127 12.2794C47.0942 12.2425 47.0751 12.2067 47.0569 12.1709C47.0463 12.1505 47.0357 12.1302 47.0254 12.1102C47.0045 12.0718 46.9845 12.034 46.964 11.9967C46.9551 11.981 46.946 11.9644 46.9378 11.9486C46.9087 11.8959 46.879 11.845 46.8502 11.7954C46.8184 11.741 46.7849 11.6874 46.7517 11.635C46.739 11.6156 46.7267 11.5967 46.7137 11.5772C46.6929 11.5454 46.672 11.5136 46.6508 11.4827C46.6346 11.4589 46.6179 11.4351 46.6011 11.4116C46.5838 11.3873 46.5661 11.363 46.5485 11.3389C46.5285 11.3123 46.5091 11.2853 46.4894 11.259C46.4768 11.2427 46.4644 11.2272 46.4515 11.2109C46.3636 11.0992 46.2721 10.9918 46.1757 10.8901C46.1727 10.8867 46.1695 10.8835 46.1668 10.881C46.1336 10.8454 46.0998 10.8116 46.0651 10.7773C46.0607 10.7724 46.0557 10.7681 46.0507 10.763C46.0154 10.7286 45.9801 10.6945 45.9446 10.6619C45.9428 10.6604 45.9407 10.659 45.9393 10.657C45.8266 10.5536 45.7084 10.4557 45.5844 10.3629C45.5805 10.36 45.5764 10.3568 45.5726 10.354C45.5426 10.3314 45.512 10.3102 45.4809 10.2881C45.4609 10.2738 45.4412 10.2598 45.4206 10.246C45.3962 10.2294 45.3712 10.2128 45.3471 10.1965C45.3153 10.1753 45.2827 10.1552 45.2501 10.1349C45.2345 10.1252 45.2189 10.1154 45.2033 10.1057C44.9819 9.97193 44.7449 9.85193 44.49 9.74482L44.3618 9.69097C43.7129 9.43436 42.9537 9.25622 42.0592 9.14453C41.3354 9.65918 40.4795 9.93013 39.5794 9.93013C38.68 9.93013 37.8241 9.65891 37.0996 9.14453C36.2058 9.25622 35.4469 9.43379 34.7989 9.6904L34.6692 9.74482C34.4143 9.85193 34.177 9.97193 33.955 10.1065C33.9397 10.1154 33.9253 10.1246 33.9106 10.1337C33.8768 10.1544 33.8439 10.1758 33.811 10.1973C33.7871 10.2131 33.7627 10.2291 33.7392 10.2454C33.718 10.2598 33.6975 10.2744 33.6766 10.289C33.6463 10.3105 33.616 10.3319 33.5863 10.3537C33.5813 10.3577 33.5763 10.3614 33.5716 10.3652C33.449 10.4571 33.332 10.5542 33.22 10.657C33.2182 10.6584 33.2161 10.6604 33.2144 10.6621C33.1782 10.6951 33.1432 10.7289 33.1082 10.763C33.1032 10.7681 33.0982 10.7727 33.0929 10.7779C33.0588 10.8119 33.025 10.8463 32.9921 10.8809C32.9891 10.8844 32.9856 10.8881 32.9827 10.891C32.8868 10.9929 32.7954 11.0998 32.7078 11.2112C32.6951 11.2275 32.6828 11.243 32.6701 11.2593C32.6501 11.2856 32.6307 11.3125 32.611 11.3392C32.5931 11.3632 32.5757 11.3876 32.5584 11.4119C32.5416 11.4351 32.5255 11.4592 32.509 11.483C32.4878 11.5139 32.467 11.5457 32.4458 11.5775C32.4331 11.5969 32.4205 11.6158 32.4079 11.6353C32.3746 11.6877 32.3414 11.741 32.3094 11.7957C32.2802 11.8452 32.2508 11.8962 32.2217 11.9486C32.2135 11.9638 32.2047 11.9796 32.1964 11.9953C32.1756 12.0337 32.1547 12.0718 32.1335 12.1113C32.1241 12.1291 32.1147 12.1474 32.1056 12.1651C32.0856 12.2035 32.0653 12.2425 32.0453 12.2823C32.0359 12.3015 32.0259 12.3207 32.0162 12.3401C31.9965 12.3799 31.9765 12.4209 31.9562 12.4624C31.9468 12.4825 31.9368 12.5022 31.9274 12.5226C31.9074 12.565 31.8871 12.6088 31.8668 12.6526C31.8577 12.6729 31.8486 12.6921 31.8395 12.7122C31.8148 12.7669 31.7898 12.823 31.7648 12.8794C31.7492 12.9149 31.7342 12.9499 31.7189 12.9857C31.7054 13.0175 31.6916 13.0493 31.6781 13.0816C31.6601 13.124 31.6425 13.167 31.6246 13.2102C31.6172 13.2271 31.6102 13.2446 31.6034 13.262C31.0665 14.5752 30.679 15.971 30.5678 16.3878C31.2003 16.6438 34.3637 17.8074 39.5808 17.8074C44.7978 17.8074 47.9615 16.6444 48.5938 16.3878C48.4823 15.9719 48.0956 14.5811 47.5605 13.2701Z" fill="black"/>
<path d="M17.5865 13.2115C17.5777 13.1894 17.5685 13.1679 17.56 13.1462C17.543 13.1052 17.5259 13.0643 17.5086 13.0233C17.4965 12.995 17.4848 12.9672 17.4721 12.9388C17.4509 12.8893 17.4298 12.8397 17.408 12.7913C17.388 12.7467 17.3686 12.702 17.3489 12.6587C17.3374 12.6335 17.3254 12.6086 17.3139 12.5834C17.296 12.5453 17.2786 12.5078 17.2613 12.4709C17.2495 12.4465 17.2378 12.4222 17.2263 12.3981C17.2084 12.3612 17.1901 12.3245 17.1725 12.2887C17.1616 12.2658 17.1499 12.2432 17.1387 12.2208C17.1202 12.1839 17.101 12.1481 17.0828 12.1123C17.0722 12.092 17.0616 12.0716 17.0514 12.0516C17.0305 12.0132 17.0105 11.9754 16.9899 11.9382C16.9811 11.9224 16.972 11.9058 16.9637 11.89C16.9346 11.8373 16.9049 11.7864 16.8761 11.7368C16.8444 11.6824 16.8108 11.6288 16.7776 11.5764C16.765 11.557 16.7526 11.5381 16.7397 11.5186C16.7188 11.4868 16.6979 11.455 16.6768 11.4241C16.6606 11.4003 16.6438 11.3765 16.6271 11.353C16.6097 11.3287 16.5921 11.3044 16.5744 11.2803C16.5544 11.2537 16.535 11.2267 16.5153 11.2004C16.5027 11.1841 16.4903 11.1686 16.4774 11.1523C16.3895 11.0406 16.298 10.9332 16.2016 10.8315C16.1987 10.8281 16.1954 10.8249 16.1928 10.8224C16.1596 10.7868 16.1257 10.7531 16.091 10.7187C16.0866 10.7138 16.0816 10.7095 16.0766 10.7044C16.0414 10.67 16.0061 10.6359 15.9705 10.6033C15.9687 10.6018 15.9667 10.6004 15.9652 10.5984C15.8526 10.495 15.7344 10.3971 15.6103 10.3043C15.6065 10.3014 15.6024 10.2983 15.5985 10.2954C15.5686 10.2728 15.538 10.2516 15.5068 10.2295C15.4868 10.2152 15.4671 10.2012 15.4465 10.1874C15.4221 10.1708 15.3971 10.1542 15.373 10.1379C15.3413 10.1167 15.3086 10.0966 15.276 10.0763C15.2604 10.0666 15.2448 10.0568 15.2292 10.0471C15.0078 9.91334 14.7709 9.79334 14.5159 9.68622L14.3877 9.63238C13.7388 9.37577 12.9796 9.19763 12.0852 9.08594C11.3613 9.60059 10.5054 9.87153 9.60538 9.87153C8.70597 9.87153 7.85006 9.60032 7.12557 9.08594C6.23173 9.19763 5.47284 9.3752 4.82483 9.63181L4.69516 9.68622C4.44024 9.79333 4.20296 9.91334 3.98097 10.0479C3.96568 10.0568 3.95127 10.066 3.93657 10.0751C3.90276 10.0958 3.86983 10.1173 3.8369 10.1387C3.81308 10.1545 3.78868 10.1705 3.76515 10.1868C3.74398 10.2012 3.7234 10.2158 3.70252 10.2304C3.67224 10.2519 3.64196 10.2733 3.61226 10.2951C3.60726 10.2991 3.60226 10.3028 3.59756 10.3066C3.47495 10.3985 3.35793 10.4956 3.2459 10.5984C3.24414 10.5998 3.24208 10.6018 3.24031 10.6036C3.20415 10.6365 3.16916 10.6703 3.13417 10.7044C3.12917 10.7095 3.12417 10.7141 3.11888 10.7193C3.08477 10.7533 3.05096 10.7877 3.01803 10.8224C3.01509 10.8258 3.01156 10.8295 3.00862 10.8324C2.91277 10.9343 2.82132 11.0412 2.73371 11.1526C2.72106 11.1689 2.70871 11.1844 2.69607 11.2007C2.67608 11.227 2.65667 11.254 2.63697 11.2806C2.61903 11.3046 2.60169 11.329 2.58434 11.3533C2.56758 11.3765 2.55141 11.4006 2.53494 11.4244C2.51377 11.4553 2.4929 11.4871 2.47173 11.5189C2.45908 11.5383 2.44644 11.5573 2.4338 11.5767C2.40057 11.6291 2.36735 11.6824 2.3353 11.7371C2.30619 11.7867 2.27679 11.8376 2.24767 11.89C2.23944 11.9052 2.23062 11.921 2.22239 11.9367C2.20151 11.9751 2.18064 12.0132 2.15947 12.0527C2.15006 12.0705 2.14065 12.0888 2.13153 12.1066C2.11154 12.1449 2.09125 12.1839 2.07126 12.2237C2.06185 12.2429 2.05185 12.2621 2.04215 12.2815C2.02245 12.3214 2.00246 12.3623 1.98217 12.4038C1.97276 12.4239 1.96276 12.4436 1.95335 12.464C1.93336 12.5064 1.91307 12.5502 1.89278 12.594C1.88367 12.6143 1.87455 12.6335 1.86544 12.6536C1.84074 12.7083 1.81575 12.7644 1.79075 12.8208C1.77517 12.8563 1.76018 12.8913 1.74489 12.9271C1.73136 12.9589 1.71754 12.9907 1.70402 13.023C1.68608 13.0654 1.66844 13.1084 1.6505 13.1516C1.64315 13.1685 1.63609 13.186 1.62933 13.2034C1.09244 14.5166 0.704926 15.9125 0.59375 16.3292C1.2262 16.5852 4.38968 17.7488 9.60672 17.7488C14.8237 17.7488 17.9874 16.5858 18.6197 16.3292C18.5083 15.9133 18.1216 14.5225 17.5865 13.2115Z" fill="black"/>
</svg>
