<svg width="50" height="36" viewBox="0 0 50 36" fill="none" xmlns="http://www.w3.org/2000/svg">
<path d="M45.1281 23.847H32.0199L31.3065 17.9995L30.5945 12.1524H40.8536L45.1281 23.847ZM31.5597 23.847H18.4383L19.1517 17.9995L19.8641 12.1524H30.1354L30.8483 17.9995L31.5597 23.847ZM36.4112 0L40.6858 11.6964H30.538L29.826 5.84932L29.1131 0.00132142L36.4112 0ZM21.3446 0H28.6549L29.3668 5.848L30.0802 11.6964H19.9193L20.6317 5.84932L21.3446 0ZM13.5884 0H20.885L20.1725 5.848L19.4601 11.6964H9.31318L13.5884 0ZM9.14707 12.1529H19.4048L18.6918 18.0004L17.9794 23.8484L4.87118 23.8479L9.14707 12.1529ZM16.4996 35.9999H0.429688L4.70481 24.304H17.9236L17.2111 30.152L16.4996 35.9999ZM16.9581 35.9999L18.3829 24.304H31.6161L32.329 30.152L33.041 36L16.9579 35.9995L16.9581 35.9999ZM33.5002 35.9999L32.7872 30.1519L32.0757 24.3039H45.2945L49.5701 35.9998L33.5002 35.9999Z" fill="black"/>
</svg>
