<svg width="37" height="37" viewBox="0 0 37 37" fill="none" xmlns="http://www.w3.org/2000/svg">
<g clip-path="url(#clip0_7696_47294)">
<path d="M2.46855 18.8828H5.05277V33.2203C5.05277 33.5269 5.17459 33.821 5.39143 34.0378C5.60827 34.2547 5.90237 34.3765 6.20902 34.3765H13.875V35.8912C13.875 36.1978 13.9968 36.4919 14.2136 36.7088C14.4305 36.9256 14.7246 37.0474 15.0312 37.0474H17.997C18.3036 37.0474 18.5977 36.9256 18.8146 36.7088C19.0314 36.4919 19.1532 36.1978 19.1532 35.8912V34.3765H30.7909C31.0976 34.3765 31.3917 34.2547 31.6085 34.0378C31.8253 33.821 31.9471 33.5269 31.9471 33.2203V18.8828H34.5314C34.7585 18.883 34.9806 18.8163 35.1701 18.6911C35.3596 18.5658 35.5079 18.3876 35.5967 18.1786C35.6855 17.9695 35.7108 17.739 35.6694 17.5157C35.628 17.2924 35.5217 17.0862 35.3639 16.9229L31.2765 12.7199V2.89181C31.2765 2.58515 31.1547 2.29106 30.9379 2.07422C30.721 1.85738 30.4269 1.73556 30.1203 1.73556H23.9112C23.6046 1.73556 23.3105 1.85738 23.0936 2.07422C22.8768 2.29106 22.755 2.58515 22.755 2.89181V3.89197L19.3325 0.353843C19.2246 0.241938 19.0953 0.152928 18.9522 0.0921312C18.8092 0.0313347 18.6554 0 18.5 0C18.3445 0 18.1907 0.0313347 18.0477 0.0921312C17.9046 0.152928 17.7753 0.241938 17.6675 0.353843L1.63605 16.9229C1.47821 17.0862 1.37195 17.2924 1.33054 17.5157C1.28913 17.739 1.3144 17.9695 1.40319 18.1786C1.49198 18.3876 1.64037 18.5658 1.82983 18.6911C2.0193 18.8163 2.24144 18.883 2.46855 18.8828ZM16.1875 34.7349V29.5723H16.8407V34.7349H16.1875ZM18.5 2.82244L23.0787 7.55728C23.2387 7.72331 23.4448 7.8377 23.6703 7.88575C23.8958 7.93379 24.1306 7.91331 24.3444 7.82691C24.5582 7.74052 24.7413 7.59217 24.8701 7.40093C24.999 7.20969 25.0677 6.98429 25.0675 6.75369V4.04806H28.964V13.1824C28.9637 13.4821 29.0798 13.7702 29.2878 13.986L31.7968 16.5703H30.7909C30.4842 16.5703 30.1901 16.6921 29.9733 16.9089C29.7565 17.1257 29.6346 17.4198 29.6346 17.7265V32.064H19.1243V28.416C19.1243 28.1094 19.0025 27.8153 18.7857 27.5984C18.5688 27.3816 18.2747 27.2598 17.9681 27.2598H17.7253V26.6354C17.7268 26.3001 17.8607 25.9789 18.0978 25.7418C18.3349 25.5047 18.656 25.3708 18.9914 25.3693H24.5067C25.6122 25.3612 26.6742 24.9372 27.4813 24.1817C28.2883 23.4261 28.7814 22.3944 28.8623 21.2918C28.9432 20.1892 28.606 19.0966 27.9178 18.2313C27.2296 17.3661 26.2409 16.7916 25.1484 16.6223V15.6106C25.1484 15.3039 25.0266 15.0098 24.8097 14.793C24.5929 14.5761 24.2988 14.4543 23.9921 14.4543H10.5334C10.2267 14.4543 9.93264 14.5761 9.7158 14.793C9.49897 15.0098 9.37715 15.3039 9.37715 15.6106V19.8829C9.37715 20.1896 9.49897 20.4837 9.7158 20.7005C9.93264 20.9173 10.2267 21.0392 10.5334 21.0392H23.9921C24.2988 21.0392 24.5929 20.9173 24.8097 20.7005C25.0266 20.4837 25.1484 20.1896 25.1484 19.8829V19.0157C25.6098 19.176 26.0001 19.4934 26.251 19.9124C26.502 20.3314 26.5976 20.8253 26.5211 21.3077C26.4446 21.7901 26.2009 22.2302 25.8326 22.551C25.4644 22.8718 24.995 23.0529 24.5067 23.0626H18.9914C18.0423 23.0626 17.132 23.4396 16.4609 24.1107C15.7898 24.7819 15.4128 25.6921 15.4128 26.6412V27.2656H15.0312C14.7246 27.2656 14.4305 27.3874 14.2136 27.6042C13.9968 27.8211 13.875 28.1152 13.875 28.4218V32.0698H7.36527V17.7265C7.36527 17.4198 7.24345 17.1257 7.02661 16.9089C6.80978 16.6921 6.51568 16.5703 6.20902 16.5703H5.20308L18.5 2.82244ZM22.8359 16.7668V18.7267H11.6896V16.7668H22.8359Z" fill="black"/>
</g>
<defs>
<clipPath id="clip0_7696_47294">
<rect width="37" height="37" fill="white"/>
</clipPath>
</defs>
</svg>
