<svg width="82" height="79" viewBox="0 0 82 79" fill="none" xmlns="http://www.w3.org/2000/svg">
<rect x="0.946655" y="0.275085" width="80.368" height="78.3073" rx="15" fill="#E6EFF5"/>
<path d="M58.002 35.6017V22.7525C58.0008 21.4925 57.4998 20.2844 56.609 19.3935C55.7181 18.5026 54.5101 18.0016 53.2499 18H22.7525C21.4925 18.0016 20.2844 18.5026 19.3935 19.3935C18.5026 20.2843 18.0016 21.4923 18 22.7525V45.3613C18.002 46.6211 18.503 47.8286 19.3939 48.7195C20.2847 49.6104 21.4928 50.1118 22.7525 50.1134H25.8887V56.4018C25.8891 56.7127 25.98 57.0168 26.1507 57.2768C26.321 57.5369 26.5636 57.7417 26.8486 57.866C27.0503 57.9553 27.2683 58.0017 27.4886 58.0017C27.8892 58.0017 28.2751 57.8517 28.5705 57.5809L35.6013 51.1392V42.4648C35.6053 40.6458 36.3298 38.9021 37.6165 37.6159C38.9027 36.3292 40.6463 35.6047 42.4654 35.6007L58.002 35.6017Z" fill="#232323"/>
<path d="M62.3386 38.7975H42.4657C41.4942 38.7983 40.5628 39.1846 39.8757 39.8713C39.1889 40.5585 38.8026 41.4899 38.8019 42.4613V57.1978C38.8027 58.1693 39.189 59.1011 39.8757 59.7878C40.5629 60.475 41.4943 60.8612 42.4657 60.862H53.0262L58.1831 65.5791H58.1835C58.4793 65.8495 58.866 65.9992 59.2665 65.9984C59.4873 65.998 59.7052 65.9519 59.9069 65.8622C60.1915 65.7379 60.4341 65.5331 60.6048 65.273C60.7751 65.013 60.8664 64.7089 60.8668 64.3981V60.862H62.3388C63.3103 60.8612 64.2421 60.4749 64.9288 59.7878C65.616 59.101 66.0022 58.1692 66.003 57.1978V42.4613C66.0023 41.4898 65.616 40.5584 64.9288 39.8713C64.242 39.1845 63.3102 38.7982 62.3388 38.7975L62.3386 38.7975Z" fill="#232323"/>
</svg>
