<svg width="81" height="79" viewBox="0 0 81 79" fill="none" xmlns="http://www.w3.org/2000/svg">
<rect x="0.270508" y="0.275085" width="80.368" height="78.3073" rx="15" fill="#E6EFF5"/>
<path d="M38.3313 39.1154H43.6687V45.0458H38.3313V39.1154Z" fill="#232323"/>
<path d="M52.6904 18C47.6814 18 43.5051 20.9216 41.0021 25.096C38.4949 20.9215 34.3229 18 29.3139 18C22.2141 18 17 23.4271 17 30.5203C17 44.2919 36.6152 54.406 41.0021 60.6074C47.8016 52.9663 65 44.2919 65 30.5203C65 23.4226 59.7813 18 52.6904 18ZM50.6818 37.936C50.423 38.1948 50.0342 38.3404 49.6166 38.3404C49.3871 38.3404 49.0964 38.2994 48.905 38.2176V46.5518C48.905 47.3209 48.2834 47.9449 47.5172 47.9449H34.4824C33.717 47.9449 33.0947 47.3209 33.0947 46.5518V38.2668C32.902 38.3495 32.6121 38.3933 32.3838 38.3933C31.9653 38.3933 31.5775 38.2428 31.3198 37.9835C31.0601 37.7197 30.9191 37.3727 30.9191 37.0018C30.9191 36.635 31.0597 36.2881 31.3169 36.0259L39.9703 28.1739C40.5376 27.6549 41.4627 27.6549 42.0305 28.1685L50.6694 35.9622C51.2148 36.5138 51.2148 37.3959 50.6822 37.936L50.6818 37.936Z" fill="#232323"/>
</svg>
