<svg width="48" height="48" viewBox="0 0 48 48" fill="none" xmlns="http://www.w3.org/2000/svg">
<path d="M45.6319 6.99995L28.9298 0.875149C25.7471 -0.291716 22.2538 -0.291716 19.071 0.875149L2.36787 6.99995C1.43707 7.3411 0.687388 8.05067 0.294976 8.96202C-0.0970232 9.87297 -0.0970232 10.905 0.294976 11.816C0.687388 12.727 1.43707 13.4366 2.36787 13.7781L19.07 19.9025H19.0704C22.2531 21.0698 25.7464 21.0698 28.9292 19.9025L45.6313 13.7781C46.5625 13.4365 47.3122 12.727 47.7042 11.816C48.0962 10.9051 48.0962 9.87303 47.7042 8.96202C47.3122 8.05065 46.5625 7.34113 45.6313 6.99995H45.6319Z" fill="black"/>
<path d="M2.36956 22.8483L19.0727 28.9706H19.0731C22.2543 30.1388 25.7471 30.1388 28.9286 28.9706L45.6318 22.8483C46.4853 22.5353 47.1895 21.9113 47.6038 21.1016C48.0177 20.292 48.1112 19.3562 47.8652 18.4804C47.6191 17.605 47.0522 16.8545 46.2769 16.3789L29.8458 22.4054C26.0713 23.7852 21.9305 23.7852 18.156 22.4054L1.72486 16.3789C0.949954 16.8544 0.382593 17.6049 0.136581 18.4804C-0.109451 19.3562 -0.0160006 20.2919 0.398334 21.1016C0.812256 21.9113 1.5164 22.5353 2.36992 22.8483H2.36956Z" fill="black"/>
<path d="M2.369 31.9209L19.0722 38.0487C22.2533 39.2168 25.7461 39.2168 28.9277 38.0487L45.6308 31.9209C46.4843 31.6087 47.1885 30.9855 47.6028 30.1764C48.0168 29.3676 48.1102 28.4318 47.8642 27.5568C47.6181 26.6818 47.0512 25.9317 46.2759 25.457L29.8448 31.4781C26.0715 32.865 21.9283 32.865 18.155 31.4781L1.72388 25.457C0.948978 25.9317 0.381616 26.6818 0.135605 27.5568C-0.110428 28.4318 -0.0169771 29.3672 0.397358 30.1764C0.811279 30.9856 1.51547 31.6087 2.369 31.9209Z" fill="black"/>
<path d="M2.36897 41.0005L19.0721 47.1229C22.2533 48.291 25.7461 48.291 28.9276 47.1229L45.6308 41.0005C46.4855 40.6879 47.1905 40.0639 47.6045 39.2534C48.0188 38.4434 48.1115 37.5064 47.8642 36.6306C47.6165 35.7548 47.0475 35.0052 46.2705 34.5312L29.8447 40.5523C26.0714 41.9388 21.9282 41.9388 18.1549 40.5523L1.72908 34.5312C0.952109 35.0051 0.383107 35.7549 0.135825 36.6306C-0.111446 37.5064 -0.0188212 38.4434 0.39509 39.2534C0.809425 40.0639 1.51442 40.6879 2.36879 41.0005H2.36897Z" fill="black"/>
</svg>
