<svg width="49" height="48" viewBox="0 0 49 48" fill="none" xmlns="http://www.w3.org/2000/svg">
<path d="M1.85968 22.3956C2.28394 22.3956 2.69084 22.2273 2.9911 21.9271C3.29131 21.6268 3.45961 21.2199 3.45961 20.7956V6.15087C3.45837 5.378 3.76478 4.63653 4.31104 4.08987C4.85729 3.54361 5.59913 3.23719 6.37158 3.23843H21.0172C21.5965 3.23843 22.1316 2.92953 22.4211 2.42794C22.711 1.92634 22.711 1.30815 22.4211 0.806584C22.1316 0.304985 21.5965 -0.00390625 21.0172 -0.00390625H6.41499C4.78243 -0.00390625 3.21688 0.64449 2.0628 1.79858C0.908729 2.95267 0.260342 4.51824 0.260342 6.15083V20.7532C0.248763 21.1849 0.412102 21.603 0.713546 21.9123C1.01499 22.2216 1.42851 22.3961 1.86021 22.3957L1.85968 22.3956Z" fill="black"/>
<path d="M42.1035 -0.00390625H27.5002C26.9213 -0.00390625 26.3858 0.304995 26.0963 0.806584C25.8064 1.30818 25.8064 1.92638 26.0963 2.42795C26.3858 2.92954 26.9213 3.23843 27.5002 3.23843H42.1035C42.8759 3.23719 43.6178 3.54361 44.164 4.08987C44.7103 4.63654 45.0167 5.37798 45.0154 6.15087V20.7533C45.0154 21.3326 45.3243 21.8677 45.8259 22.1572C46.3275 22.4471 46.9457 22.4471 47.4472 22.1572C47.9488 21.8677 48.2577 21.3326 48.2577 20.7533V6.15087C48.2577 4.51829 47.6093 2.95272 46.4553 1.79862C45.3012 0.644532 43.7356 -0.00390625 42.1035 -0.00390625Z" fill="black"/>
<path d="M21.0166 44.754H6.41445C5.6416 44.7552 4.90014 44.4488 4.35348 43.9026C3.80723 43.3563 3.50082 42.6145 3.50206 41.842V27.2385C3.50206 26.6596 3.19316 26.1241 2.69158 25.8346C2.18999 25.5447 1.5718 25.5447 1.07024 25.8346C0.568652 26.1241 0.259766 26.6596 0.259766 27.2385V41.842C0.259766 43.4741 0.908153 45.0397 2.06223 46.1938C3.2163 47.3479 4.78185 47.9963 6.41441 47.9963H21.0166C21.5959 47.9963 22.131 47.6874 22.4205 47.1858C22.7104 46.6842 22.7104 46.066 22.4205 45.5644C22.131 45.0628 21.596 44.754 21.0166 44.754Z" fill="black"/>
<path d="M46.6587 25.5939C46.2344 25.5939 45.8275 25.7626 45.5273 26.0624C45.2275 26.3626 45.0588 26.7695 45.0588 27.1938V41.8396C45.06 42.6121 44.754 43.354 44.2073 43.9002C43.6611 44.4465 42.9197 44.7529 42.1468 44.7517H27.5012C26.9223 44.7517 26.3868 45.0606 26.0973 45.5621C25.8074 46.0637 25.8074 46.6819 26.0973 47.1835C26.3867 47.6851 26.9222 47.994 27.5012 47.994H42.1044C43.7366 47.994 45.3021 47.3456 46.4562 46.1915C47.6103 45.0374 48.2587 43.4718 48.2587 41.8397V27.2362C48.2702 26.8045 48.1069 26.3864 47.8055 26.0772C47.5044 25.7678 47.0909 25.5938 46.6588 25.5938L46.6587 25.5939Z" fill="black"/>
<path d="M27.918 35.0945H36.9846C37.6078 35.0932 38.1834 34.7608 38.4956 34.2211C38.8077 33.6815 38.809 33.017 38.4993 32.4761L36.0405 28.2628L34.5151 25.596L33.6033 23.9962C33.3986 23.6397 33.0748 23.3676 32.689 23.2266C32.3028 23.086 31.8798 23.086 31.494 23.2266C31.1077 23.3676 30.784 23.6397 30.5793 23.9962L29.6675 25.596L28.1421 28.2628L27.5714 29.2548C27.4006 29.548 27.1471 29.7849 26.8428 29.9359C26.5385 30.0864 26.1965 30.1447 25.8595 30.1025C25.3021 30.0541 24.8038 29.7353 24.5259 29.2494L23.0484 26.7001L22.6593 25.9479L22.4459 25.596L20.5739 22.3958L19.7365 20.9452H19.7369C19.5318 20.5892 19.2081 20.3167 18.8222 20.1761C18.4364 20.0351 18.013 20.0351 17.6272 20.1761C17.2414 20.3167 16.9176 20.5892 16.7129 20.9452L15.8702 22.3958L14.0036 25.596L13.3742 26.6628L10.0409 32.4761C9.73121 33.017 9.73245 33.6815 10.0447 34.2211C10.3569 34.7606 10.9321 35.0932 11.5556 35.0944L27.918 35.0945Z" fill="black"/>
<path d="M29.022 19.1956C29.8486 19.1907 30.6405 18.8607 31.2255 18.2772C31.8111 17.6933 32.1431 16.9027 32.1502 16.0761C32.1576 15.2494 31.8388 14.453 31.2636 13.8592C30.6884 13.2654 29.9024 12.9222 29.0761 12.9032C28.2495 12.8842 27.449 13.1914 26.8468 13.7579C26.2448 14.3244 25.89 15.1055 25.8594 15.9318V16.0438V16.1559V16.1555C25.8858 16.9747 26.2311 17.7512 26.822 18.3191C27.4129 18.8872 28.2023 19.2015 29.0219 19.1957L29.022 19.1956Z" fill="black"/>
</svg>
