<svg width="50" height="50" viewBox="0 0 50 50" fill="none" xmlns="http://www.w3.org/2000/svg">
<path d="M11.8734 20.6C13.4741 22.8861 14.8678 24.2 14.8678 24.2H36.1308C36.1308 24.2 37.7665 21.2811 38.9932 19.3351C40.2199 17.3892 40.2737 17 40.6737 15C41.2394 12.1716 39.811 10.2 36.1308 10.2C32.4507 10.2 31.0736 15 31.0736 15L29.1794 7.81081C29.1794 7.81081 33 1 26.3171 1C19.6342 1 23.4548 7.81081 23.4548 7.81081L20.6736 15L19.4 13.4C19.4 13.4 18.2734 10.6 13.8735 10.6C9.47348 10.6 10.2726 18.3139 11.8734 20.6Z" fill="black"/>
<path d="M5.8 45C8.6 45 41.4 45 44.2 45C47 45 49 49 49 49H1C1 49 3 45 5.8 45Z" fill="black"/>
<path d="M15.8734 25.8C17.2734 25.8 33.6734 25.8 35.0734 25.8C36.4734 25.8 37.4734 29.8 37.4734 29.8H13.4734C13.4734 29.8 14.4734 25.8 15.8734 25.8Z" fill="black"/>
<path d="M5.8 33.6703L4.2 31.4H47.8L45.8 33.6703V43.4H5.8V33.6703Z" fill="black"/>
<path d="M9.8 39.4C9.8 39.4 14.4829 35.4 17.6049 35.4C20.7268 35.4 23.0683 39.4 25.4098 39.4C27.7512 39.4 31.6537 35.4 34.7756 35.4C37.8976 35.4 41.8 39.4 41.8 39.4M14.8678 24.2C14.8678 24.2 13.4741 22.8861 11.8734 20.6C10.2726 18.3139 9.47348 10.6 13.8734 10.6C18.2734 10.6 19.4 13.4 19.4 13.4L20.6736 15L23.4548 7.81081C23.4548 7.81081 19.6342 1 26.3171 1C33 1 29.1794 7.81081 29.1794 7.81081L31.0736 15C31.0736 15 32.4507 10.2 36.1308 10.2C39.811 10.2 41.2394 12.1716 40.6737 15C40.2737 17 40.2199 17.3892 38.9932 19.3351C37.7665 21.2811 36.1308 24.2 36.1308 24.2H14.8678ZM5.8 45C8.6 45 41.4 45 44.2 45C47 45 49 49 49 49H1C1 49 3 45 5.8 45ZM15.8734 25.8C17.2734 25.8 33.6734 25.8 35.0734 25.8C36.4734 25.8 37.4734 29.8 37.4734 29.8H13.4734C13.4734 29.8 14.4734 25.8 15.8734 25.8ZM5.8 33.6703V43.4H45.8V33.6703L47.8 31.4H4.2L5.8 33.6703Z" stroke="white"/>
</svg>
