<svg width="48" height="27" viewBox="0 0 48 27" fill="none" xmlns="http://www.w3.org/2000/svg">
<path d="M47.9921 24.3V27H32.5285V24.3H47.9921ZM16.5304 24.3V27H31.4616V24.3H16.5304ZM0 24.3V27H15.4646V24.3H0ZM37.6957 10.6239L41.6635 23.2207H32.6116L29.6873 0.00128545H38.6995L48 23.2207H42.8402L38.7553 10.2509C38.6602 9.95112 38.3481 9.66224 38.052 9.7644C37.7622 9.86069 37.6006 10.3304 37.6957 10.6243L37.6957 10.6239ZM38.1418 4.77422L40.8375 12.482C40.9161 12.7135 41.1336 12.8604 41.3622 12.8604C41.4234 12.8604 41.485 12.8491 41.5462 12.8265C41.8364 12.7252 41.9927 12.4028 41.8864 12.1089L39.1907 4.40118C39.0907 4.10727 38.7723 3.94901 38.4763 4.05662C38.1869 4.15835 38.036 4.48031 38.1418 4.77422ZM34.7991 16.8105L33.3318 8.92187C33.276 8.6108 32.9858 8.41318 32.6844 8.46969C32.3772 8.52621 32.182 8.82012 32.2378 9.12534L33.7002 17.0198C33.7502 17.2906 33.985 17.4778 34.2472 17.4778C34.286 17.4778 34.3195 17.4778 34.3534 17.4665C34.654 17.4096 34.8549 17.1153 34.7991 16.8105ZM36.3061 8.36217L34.6937 1.89751C34.616 1.5923 34.3142 1.41143 34.0128 1.48512C33.7167 1.56383 33.5327 1.86945 33.6109 2.17467L35.2233 8.63933C35.2845 8.89891 35.5135 9.06847 35.7645 9.06847C35.8091 9.06847 35.8534 9.06302 35.8984 9.05172C36.1998 8.97259 36.3785 8.66739 36.3061 8.36217ZM31.3955 23.2194H16.5237L19.4421 0H26.2499L26.7857 7.64117C26.8081 7.94094 27.0532 8.09418 27.3439 8.09418C27.3551 8.09418 27.3716 8.08664 27.3828 8.08664C27.6899 8.06403 27.924 7.8794 27.9016 7.56875L27.3716 2.94378e-05H28.4764L31.3955 23.2194ZM21.6184 1.71595C21.6572 1.40488 21.4398 1.12269 21.133 1.08836C20.837 1.04314 20.5529 1.26922 20.5132 1.57987L19.8158 7.29888C19.7769 7.60995 19.9944 7.89214 20.3011 7.93191C20.3235 7.93191 20.3458 7.93735 20.3685 7.93735C20.6476 7.93735 20.8874 7.72844 20.9209 7.43997L21.6184 1.71595ZM23.3648 11.8591C23.3813 11.5481 23.1415 11.2466 22.8347 11.2353C22.5222 11.224 22.2658 11.5095 22.2547 11.8206L21.9032 19.7322C21.8921 20.0437 22.1261 20.5193 22.4386 20.5193H22.461C22.757 20.5193 23.0022 20.0885 23.0191 19.7891L23.3648 11.8591ZM23.7166 4.01871C23.7278 3.70764 23.4933 3.40159 23.1808 3.39028C22.8848 3.36767 22.6173 3.63436 22.6007 3.94502L22.3721 9.06661C22.3605 9.37684 22.6007 9.71974 22.9071 9.71974H22.9294C23.2254 9.71974 23.4764 9.41621 23.4875 9.11099L23.7166 4.01871ZM18.3037 0.000320545L15.3794 23.2198H0.00793785L9.30841 0.000320545H12.4056L8.53861 11.8855C8.44352 12.1794 8.60601 12.4285 8.89583 12.5248C8.95165 12.5415 9.01325 12.5399 9.06865 12.5399C9.30307 12.5399 9.52633 12.4796 9.59869 12.2422L13.5773 0.0011906L18.3037 0.000320545ZM4.97713 17.3635L7.77867 9.54812C7.88492 9.25421 7.73401 8.92639 7.44377 8.82465C7.15353 8.71705 6.83518 8.86401 6.72934 9.15792L3.9278 16.9733C3.82154 17.2672 3.97245 17.5895 4.2569 17.6967C4.32429 17.7193 4.38548 17.7306 4.45205 17.7306C4.67573 17.7306 4.89321 17.5891 4.97713 17.3635ZM8.48686 13.8085C8.19083 13.7122 7.87826 13.8818 7.78938 14.1757L5.97598 20.0073C5.88709 20.3013 6.04833 20.6236 6.34437 20.7136C6.40018 20.7304 6.456 20.7417 6.51181 20.7417C6.74623 20.7417 6.96949 20.5834 7.04184 20.346L8.85027 14.5144C8.94495 14.2213 8.78289 13.9048 8.48686 13.8085ZM14.765 10.2485C14.469 10.1803 14.1676 10.3787 14.101 10.684L12.5663 17.7473C12.4989 18.0525 12.6949 18.3573 12.9963 18.4197C13.0351 18.431 13.0748 18.4365 13.1137 18.4365C13.37 18.4365 13.5991 18.2556 13.6607 17.9897L15.1954 10.9205C15.2616 10.6215 15.0664 10.3168 14.765 10.2485Z" fill="black"/>
</svg>
