<svg width="49" height="48" viewBox="0 0 49 48" fill="none" xmlns="http://www.w3.org/2000/svg">
<path d="M47.2411 40.3142L42.6434 35.7299L45.9218 24.2566C46.6427 21.7451 45.9447 19.0342 44.0885 17.191L31.3318 4.45696C29.4756 2.61375 26.7597 1.91485 24.2439 2.63666L12.7454 5.91566L8.13547 1.319C6.37198 -0.439666 3.51287 -0.439666 1.74938 1.319C-0.0141157 3.07725 -0.0141157 5.92832 1.74938 7.68688L40.8556 46.6812C42.6191 48.4398 45.4782 48.4394 47.2417 46.6812C49.0052 44.9225 49.0052 42.0718 47.2417 40.3133L47.2411 40.3142ZM30.9261 32.5294C30.6281 32.8277 30.1529 32.8216 29.8618 32.5314L26.7843 29.4625C26.4904 29.1691 26.4892 28.6921 26.7823 28.3978C27.077 28.1036 27.5522 28.1024 27.8465 28.3958L30.9241 31.4647C31.2176 31.7577 31.2192 32.2347 30.9261 32.5294ZM39.2157 40.7957C38.9177 41.0941 38.4426 41.0879 38.1514 40.7978L32.6875 35.349C32.3936 35.0556 32.3924 34.5786 32.6855 34.2843C32.9802 33.9901 33.4554 33.9889 33.7497 34.2823L39.2137 39.731C39.5072 40.0241 39.5088 40.501 39.2157 40.7957ZM40.7293 22.7592L38.2196 31.3181L17.159 10.3185L25.7397 7.80668C26.361 7.63012 27.0513 7.80668 27.5118 8.26768L40.2758 20.9934C40.7363 21.4544 40.9126 22.13 40.7285 22.7598L40.7293 22.7592Z" fill="black"/>
</svg>
