<svg width="48" height="42" viewBox="0 0 48 42" fill="none" xmlns="http://www.w3.org/2000/svg">
<path d="M42.6666 26.25C42.6666 26.25 37.3333 33.8502 37.3333 36.75C37.3333 39.6498 39.7216 42 42.6666 42C45.6117 42 48 39.6498 48 36.75C48 33.8502 42.6666 26.25 42.6666 26.25ZM41.8858 17.8057L24.5782 0.768633C24.0574 0.255937 23.3749 0 22.6924 0C22.0099 0 21.3274 0.255937 20.8074 0.768633L14.009 7.46074L6.82732 0.390469C6.30649 -0.122227 5.46232 -0.122227 4.94231 0.390469L3.0573 2.24602C2.5373 2.75871 2.5373 3.58969 3.0573 4.10156L10.2398 11.171L2.34314 18.9443C-0.781045 22.0188 -0.781045 27.0047 2.34314 30.08L12.109 39.6933C13.6707 41.2305 15.7182 42 17.7649 42C19.8124 42 21.8591 41.2314 23.4207 39.6933L41.885 21.5176C42.9266 20.4922 42.9266 18.8311 41.8858 17.8057ZM32.2008 23.6275H5.49398C5.60732 23.3125 5.79148 22.9729 6.11315 22.657L7.20899 21.5783L14.0099 14.8838L18.8932 19.6908C19.934 20.7154 21.6224 20.7154 22.6632 19.6908C23.7041 18.6662 23.7041 17.0043 22.6632 15.9797L17.7799 11.1727L22.6924 6.33691L36.2291 19.6621L32.2008 23.6275Z" fill="black"/>
</svg>
