<svg width="48" height="48" viewBox="0 0 48 48" fill="none" xmlns="http://www.w3.org/2000/svg">
<path d="M37.7204 9.1875L20.9697 25.9524L22.07 27.0525L38.8107 10.2975C38.4207 9.9881 38.0606 9.61777 37.7206 9.1877L37.7204 9.1875Z" fill="black"/>
<path d="M18.1811 30.8816C18.6211 30.6815 19.051 30.5717 19.4713 30.5717C19.5314 30.5717 19.5814 30.5717 19.6314 30.5818L21.6112 28.6011C21.7714 28.4312 21.7714 28.1609 21.6112 28.0012L20.0012 26.4008C19.8415 26.231 19.5712 26.231 19.4111 26.4008L17.4212 28.3812C17.451 28.7713 17.3913 29.2614 17.1211 29.8218L18.1811 30.8816Z" fill="black"/>
<path d="M1.95971 23.6127L0 25.5834L22.4206 47.9998L25.0208 45.399L2.60014 22.9727L1.95971 23.6127Z" fill="black"/>
<path d="M20.9897 32.6237C20.9897 32.6237 20.0814 30.6181 18.027 32.1491L15.858 29.9795C17.3886 27.9247 15.3835 27.016 15.3835 27.016C15.3835 27.016 10.1537 24.0445 7.10112 22.2022C4.03999 20.3521 3.31152 22.2596 3.31152 22.2596L25.745 44.6988C25.745 44.6988 27.652 43.9702 25.8024 40.9083C23.9609 37.8549 20.9898 32.6238 20.9898 32.6238L20.9897 32.6237ZM5.51133 22.9428C5.3233 23.1308 5.012 23.1308 4.81544 22.9346C4.62742 22.7466 4.62742 22.4352 4.81544 22.2471C5.012 22.0505 5.32292 22.0505 5.51133 22.239C5.70788 22.4352 5.70788 22.7462 5.51133 22.9428ZM8.0413 25.473C7.85328 25.6611 7.54197 25.6611 7.34542 25.4648C7.1574 25.2768 7.1574 24.9654 7.34542 24.7769C7.54197 24.5803 7.85289 24.5807 8.0413 24.7688C8.23747 24.965 8.23747 25.276 8.0413 25.473ZM10.5705 28.0028C10.3825 28.1909 10.0712 28.1909 9.8746 27.9947C9.68658 27.8066 9.68658 27.4952 9.8746 27.3071C10.0712 27.1105 10.3821 27.1105 10.5705 27.299C10.767 27.4952 10.767 27.8062 10.5705 28.0028ZM13.0997 30.533C12.9116 30.7211 12.6003 30.7211 12.4038 30.5249C12.2158 30.3368 12.2158 30.0254 12.4038 29.837C12.6003 29.6404 12.9113 29.6408 13.0997 29.8288C13.2962 30.0251 13.2962 30.3364 13.0997 30.533ZM15.6292 33.0629C15.4412 33.2509 15.1299 33.2509 14.9334 33.0547C14.7453 32.8667 14.7453 32.5553 14.9334 32.3668C15.1299 32.1702 15.4408 32.1702 15.6292 32.3587C15.8258 32.5553 15.8258 32.8666 15.6292 33.0629ZM18.1588 35.5931C17.9708 35.7812 17.6595 35.7812 17.4629 35.5849C17.2749 35.3969 17.2749 35.0855 17.4629 34.8974C17.6595 34.7008 17.9704 34.7008 18.1588 34.8893C18.355 35.0855 18.355 35.3965 18.1588 35.5931ZM20.688 38.1229C20.5 38.311 20.1887 38.311 19.9921 38.1148C19.8041 37.9267 19.8041 37.6153 19.9921 37.4269C20.1887 37.2302 20.4996 37.2302 20.688 37.4187C20.8845 37.6153 20.8845 37.9263 20.688 38.1229ZM23.2176 40.6531C23.0295 40.8412 22.7182 40.8412 22.5217 40.645C22.3337 40.4569 22.3337 40.1455 22.5217 39.9575C22.7182 39.7609 23.0292 39.7609 23.2176 39.9493C23.4141 40.1455 23.4141 40.4569 23.2176 40.6531ZM25.7471 43.1834C25.5591 43.3714 25.2478 43.3714 25.0513 43.1752C24.8632 42.9871 24.8632 42.6758 25.0513 42.4873C25.2478 42.2907 25.5587 42.2911 25.7471 42.4791C25.9433 42.6754 25.9433 42.9868 25.7471 43.1834Z" fill="black"/>
<path d="M46.6386 0.222066C46.344 -0.0726504 45.8695 -0.0726504 45.5829 0.213922L37.9961 7.8027C38.5691 8.78494 39.2894 9.55464 40.1978 10.0049L47.7846 2.41615C48.0711 2.12959 48.0711 1.65494 47.7846 1.36835L46.6386 0.222066ZM41.3379 8.6349C41.2398 8.733 41.0758 8.733 40.9696 8.62675L39.4472 7.10393C39.3491 7.00583 39.3491 6.8418 39.4472 6.74369C39.5538 6.63705 39.7174 6.63744 39.8155 6.73555L41.3379 8.25837C41.4441 8.36462 41.4445 8.52826 41.3379 8.6349ZM42.1582 7.81475C42.0601 7.91286 41.8962 7.91286 41.7899 7.8066L40.2675 6.28379C40.1694 6.18568 40.1694 6.02165 40.2675 5.92354C40.3737 5.8169 40.5373 5.81729 40.6358 5.9154L42.1582 7.43822C42.2644 7.54447 42.2644 7.70811 42.1582 7.81475ZM42.9782 6.99421C42.8801 7.09232 42.7161 7.09232 42.6099 6.98607L41.0874 5.46325C40.9894 5.36514 40.9894 5.20112 41.0874 5.10301C41.1937 4.99637 41.3577 4.99676 41.4557 5.09486L42.9782 6.61768C43.0844 6.72432 43.0848 6.88796 42.9782 6.99421ZM43.7981 6.17406C43.7 6.27217 43.536 6.27217 43.4298 6.16592L41.9074 4.6431C41.8093 4.54499 41.8093 4.38097 41.9074 4.28286C42.014 4.17622 42.1776 4.17661 42.2757 4.27471L43.7981 5.79753C43.9047 5.90378 43.9047 6.06743 43.7981 6.17406ZM44.6184 5.35353C44.5203 5.45164 44.3564 5.45164 44.2501 5.34539L42.7277 3.82257C42.6296 3.72446 42.6296 3.56043 42.7277 3.46232C42.8343 3.35569 42.9979 3.35607 43.096 3.45418L44.6184 4.977C44.7246 5.08325 44.725 5.24689 44.6184 5.35353ZM46.2785 3.13621C45.6237 3.79117 44.7805 4.0122 44.3878 3.61938C43.9951 3.22657 44.2075 2.37502 44.8623 1.72003C45.5089 1.07322 46.3603 0.860718 46.753 1.25353C47.1461 1.64635 46.9252 2.48976 46.2785 3.13621Z" fill="black"/>
</svg>
