<svg width="143" height="135" viewBox="0 0 143 135" fill="none" xmlns="http://www.w3.org/2000/svg">
<path d="M0 -3C0 -14.0457 8.95431 -23 20 -23H123C134.046 -23 143 -14.0457 143 -3V86.4513C143 95.7846 136.545 103.877 127.445 105.951L24.4447 129.428C11.9262 132.282 0 122.768 0 109.928V-3Z" fill="white"/>
<path d="M30.6584 68.5962H32.3505L34.5948 75.9592L36.8179 68.5962H38.3542L35.2957 78.9044H33.8797L30.6584 68.5962ZM30 68.5962H31.593L31.8408 75.2795V78.9044H30V68.5962ZM37.5754 68.5962H39.1755V78.9044H37.3347V75.2795L37.5754 68.5962Z" fill="#CE241E"/>
<path d="M48.1031 72.929V74.6636C48.1031 75.3905 48.0182 76.0276 47.8483 76.5752C47.6783 77.1227 47.4329 77.5805 47.112 77.9486C46.791 78.3121 46.4063 78.5858 45.9579 78.7699C45.5095 78.954 45.014 79.046 44.4712 79.046C43.9237 79.046 43.4257 78.954 42.9773 78.7699C42.5289 78.5858 42.1419 78.3121 41.8162 77.9486C41.4953 77.5805 41.2451 77.1227 41.0658 76.5752C40.8911 76.0276 40.8038 75.3905 40.8038 74.6636V72.929C40.8038 72.188 40.8911 71.539 41.0658 70.9821C41.2404 70.4251 41.4882 69.9602 41.8092 69.5874C42.1348 69.2145 42.5219 68.9337 42.9703 68.7449C43.4186 68.5513 43.9142 68.4546 44.457 68.4546C45.0045 68.4546 45.5001 68.5513 45.9438 68.7449C46.3922 68.9337 46.7768 69.2145 47.0978 69.5874C47.4235 69.9602 47.6713 70.4251 47.8412 70.9821C48.0158 71.539 48.1031 72.188 48.1031 72.929ZM46.2199 74.6636V72.9149C46.2199 72.4099 46.1821 71.9756 46.1066 71.6122C46.0311 71.2488 45.9178 70.9538 45.7668 70.7272C45.6157 70.4959 45.4293 70.326 45.2075 70.2175C44.9904 70.1089 44.7402 70.0546 44.457 70.0546C44.1691 70.0546 43.9142 70.1089 43.6924 70.2175C43.4753 70.326 43.2912 70.4959 43.1402 70.7272C42.9938 70.9538 42.8829 71.2488 42.8074 71.6122C42.7319 71.9756 42.6941 72.4099 42.6941 72.9149V74.6636C42.6941 75.1592 42.7319 75.584 42.8074 75.938C42.8829 76.292 42.9962 76.5799 43.1472 76.8017C43.303 77.0235 43.4894 77.1887 43.7066 77.2973C43.9284 77.4011 44.1833 77.4531 44.4712 77.4531C44.7544 77.4531 45.0045 77.4011 45.2216 77.2973C45.4435 77.1887 45.6275 77.0235 45.7739 76.8017C45.9249 76.5799 46.0358 76.292 46.1066 75.938C46.1821 75.584 46.2199 75.1592 46.2199 74.6636Z" fill="#CE241E"/>
<path d="M56.8538 72.929V74.6636C56.8538 75.3905 56.7688 76.0276 56.5989 76.5752C56.429 77.1227 56.1836 77.5805 55.8626 77.9486C55.5417 78.3121 55.157 78.5858 54.7086 78.7699C54.2602 78.954 53.7646 79.046 53.2218 79.046C52.6743 79.046 52.1764 78.954 51.728 78.7699C51.2796 78.5858 50.8926 78.3121 50.5669 77.9486C50.246 77.5805 49.9958 77.1227 49.8164 76.5752C49.6418 76.0276 49.5545 75.3905 49.5545 74.6636V72.929C49.5545 72.188 49.6418 71.539 49.8164 70.9821C49.9911 70.4251 50.2389 69.9602 50.5598 69.5874C50.8855 69.2145 51.2725 68.9337 51.7209 68.7449C52.1693 68.5513 52.6649 68.4546 53.2077 68.4546C53.7552 68.4546 54.2508 68.5513 54.6945 68.7449C55.1428 68.9337 55.5275 69.2145 55.8485 69.5874C56.1741 69.9602 56.4219 70.4251 56.5918 70.9821C56.7665 71.539 56.8538 72.188 56.8538 72.929ZM54.9706 74.6636V72.9149C54.9706 72.4099 54.9328 71.9756 54.8573 71.6122C54.7818 71.2488 54.6685 70.9538 54.5175 70.7272C54.3664 70.4959 54.18 70.326 53.9581 70.2175C53.741 70.1089 53.4909 70.0546 53.2077 70.0546C52.9198 70.0546 52.6649 70.1089 52.4431 70.2175C52.2259 70.326 52.0419 70.4959 51.8908 70.7272C51.7445 70.9538 51.6336 71.2488 51.5581 71.6122C51.4826 71.9756 51.4448 72.4099 51.4448 72.9149V74.6636C51.4448 75.1592 51.4826 75.584 51.5581 75.938C51.6336 76.292 51.7469 76.5799 51.8979 76.8017C52.0537 77.0235 52.2401 77.1887 52.4572 77.2973C52.6791 77.4011 52.9339 77.4531 53.2218 77.4531C53.505 77.4531 53.7552 77.4011 53.9723 77.2973C54.1941 77.1887 54.3782 77.0235 54.5245 76.8017C54.6756 76.5799 54.7865 76.292 54.8573 75.938C54.9328 75.584 54.9706 75.1592 54.9706 74.6636Z" fill="#CE241E"/>
<path d="M58.4963 68.5962H61.7035C62.3879 68.5962 62.9708 68.7142 63.4522 68.9502C63.9336 69.1862 64.2994 69.5354 64.5496 69.998C64.8044 70.4605 64.9319 71.0293 64.9319 71.7042C64.9319 72.2423 64.854 72.7096 64.6983 73.106C64.5472 73.4978 64.3301 73.8258 64.0469 74.0901C63.7684 74.3544 63.431 74.5598 63.0345 74.7061L62.461 75.0318H59.8061L59.799 73.453H61.661C61.9678 73.453 62.2227 73.3845 62.4256 73.2476C62.6333 73.1108 62.7867 72.922 62.8858 72.6812C62.9897 72.4358 63.0416 72.155 63.0416 71.8387C63.0416 71.4942 62.9944 71.1992 62.9 70.9538C62.8103 70.7036 62.6663 70.5125 62.4681 70.3803C62.2746 70.2481 62.0197 70.1821 61.7035 70.1821H60.3937V78.9044H58.4963V68.5962ZM63.2398 78.9044L61.307 74.2884H63.2964L65.2646 78.8053V78.9044H63.2398Z" fill="#CE241E"/>
<path d="M72.1321 72.8299V74.4087H67.8488V72.8299H72.1321ZM68.3444 68.5962V78.9044H66.447V68.5962H68.3444ZM73.5551 68.5962V78.9044H71.6719V68.5962H73.5551Z" fill="#CE241E"/>
<path d="M82.4828 72.929V74.6636C82.4828 75.3905 82.3978 76.0276 82.2279 76.5752C82.058 77.1227 81.8126 77.5805 81.4916 77.9486C81.1707 78.3121 80.786 78.5858 80.3376 78.7699C79.8892 78.954 79.3936 79.046 78.8508 79.046C78.3033 79.046 77.8054 78.954 77.357 78.7699C76.9086 78.5858 76.5216 78.3121 76.1959 77.9486C75.8749 77.5805 75.6248 77.1227 75.4454 76.5752C75.2708 76.0276 75.1835 75.3905 75.1835 74.6636V72.929C75.1835 72.188 75.2708 71.539 75.4454 70.9821C75.6201 70.4251 75.8679 69.9602 76.1888 69.5874C76.5145 69.2145 76.9015 68.9337 77.3499 68.7449C77.7983 68.5513 78.2939 68.4546 78.8367 68.4546C79.3842 68.4546 79.8798 68.5513 80.3234 68.7449C80.7718 68.9337 81.1565 69.2145 81.4775 69.5874C81.8031 69.9602 82.0509 70.4251 82.2208 70.9821C82.3955 71.539 82.4828 72.188 82.4828 72.929ZM80.5996 74.6636V72.9149C80.5996 72.4099 80.5618 71.9756 80.4863 71.6122C80.4108 71.2488 80.2975 70.9538 80.1464 70.7272C79.9954 70.4959 79.809 70.326 79.5871 70.2175C79.37 70.1089 79.1199 70.0546 78.8367 70.0546C78.5488 70.0546 78.2939 70.1089 78.0721 70.2175C77.8549 70.326 77.6709 70.4959 77.5198 70.7272C77.3735 70.9538 77.2626 71.2488 77.1871 71.6122C77.1116 71.9756 77.0738 72.4099 77.0738 72.9149V74.6636C77.0738 75.1592 77.1116 75.584 77.1871 75.938C77.2626 76.292 77.3759 76.5799 77.5269 76.8017C77.6827 77.0235 77.8691 77.1887 78.0862 77.2973C78.308 77.4011 78.5629 77.4531 78.8508 77.4531C79.134 77.4531 79.3842 77.4011 79.6013 77.2973C79.8231 77.1887 80.0072 77.0235 80.1535 76.8017C80.3046 76.5799 80.4155 76.292 80.4863 75.938C80.5618 75.584 80.5996 75.1592 80.5996 74.6636Z" fill="#CE241E"/>
<path d="M88.798 68.5962H90.6954V75.7185C90.6954 76.5067 90.5491 77.1463 90.2564 77.6371C89.9638 78.128 89.565 78.4867 89.0599 78.7133C88.5549 78.9351 87.9862 79.046 87.3537 79.046C86.7071 79.046 86.1313 78.9351 85.6262 78.7133C85.1212 78.4867 84.7247 78.128 84.4368 77.6371C84.1536 77.1463 84.012 76.5067 84.012 75.7185V68.5962H85.9023V75.7185C85.9023 76.1858 85.959 76.5468 86.0723 76.8017C86.1903 77.0566 86.3555 77.2312 86.5678 77.3256C86.7802 77.42 87.0422 77.4672 87.3537 77.4672C87.6652 77.4672 87.9272 77.42 88.1396 77.3256C88.352 77.2312 88.5148 77.0566 88.6281 76.8017C88.7414 76.5468 88.798 76.1858 88.798 75.7185V68.5962Z" fill="#CE241E"/>
<path d="M96.7699 76.2212C96.7699 76.0182 96.7486 75.8389 96.7062 75.6831C96.6684 75.5226 96.5929 75.3763 96.4796 75.2441C96.3663 75.112 96.2035 74.9822 95.9911 74.8548C95.7787 74.7226 95.505 74.5881 95.1698 74.4512C94.7734 74.2907 94.3981 74.1208 94.0441 73.9415C93.6902 73.7574 93.3739 73.545 93.0955 73.3043C92.817 73.0636 92.5975 72.7804 92.437 72.4547C92.2813 72.129 92.2034 71.7491 92.2034 71.3148C92.2034 70.8901 92.2789 70.503 92.4299 70.1537C92.5857 69.7998 92.8052 69.4977 93.0884 69.2475C93.3716 68.9927 93.7067 68.7968 94.0937 68.6599C94.4855 68.523 94.9173 68.4546 95.3893 68.4546C96.0548 68.4546 96.6259 68.5938 97.1026 68.8723C97.5793 69.1508 97.9475 69.5284 98.2071 70.0051C98.4667 70.4818 98.5965 71.0198 98.5965 71.6193H96.7062C96.7062 71.3078 96.659 71.0316 96.5646 70.7909C96.4749 70.5455 96.3309 70.3543 96.1327 70.2175C95.9345 70.0806 95.6796 70.0122 95.3681 70.0122C95.0754 70.0122 94.8347 70.0712 94.6459 70.1891C94.4571 70.3024 94.3179 70.4582 94.2282 70.6564C94.1385 70.8499 94.0937 71.0718 94.0937 71.3219C94.0937 71.5013 94.1338 71.6641 94.2141 71.8104C94.299 71.952 94.4147 72.0818 94.561 72.1998C94.7073 72.3178 94.8843 72.4311 95.092 72.5397C95.3044 72.6435 95.5404 72.745 95.7999 72.8441C96.2767 73.0234 96.6944 73.2217 97.0531 73.4388C97.4118 73.6512 97.7091 73.8919 97.9451 74.1609C98.1859 74.4252 98.3652 74.725 98.4832 75.0601C98.6012 75.3952 98.6602 75.7775 98.6602 76.207C98.6602 76.6318 98.587 77.0188 98.4407 77.3681C98.2944 77.7174 98.082 78.0171 97.8035 78.2672C97.5251 78.5174 97.1876 78.7109 96.7911 78.8478C96.3994 78.9799 95.9628 79.046 95.4814 79.046C95.0188 79.046 94.5775 78.9799 94.1574 78.8478C93.7421 78.7109 93.3739 78.5056 93.053 78.2318C92.732 77.9581 92.4795 77.6135 92.2954 77.1982C92.1114 76.7781 92.0193 76.2849 92.0193 75.7185H93.9096C93.9096 76.0347 93.945 76.3085 94.0158 76.5398C94.0866 76.7663 94.1928 76.9504 94.3344 77.092C94.476 77.2289 94.6459 77.3303 94.8442 77.3964C95.0424 77.4578 95.2666 77.4885 95.5168 77.4885C95.8141 77.4885 96.0548 77.4342 96.2389 77.3256C96.423 77.2171 96.5575 77.0684 96.6424 76.8796C96.7274 76.6861 96.7699 76.4666 96.7699 76.2212Z" fill="#CE241E"/>
<path d="M105.96 77.3256V78.9044H101.485V77.3256H105.96ZM102.03 68.5962V78.9044H100.133V68.5962H102.03ZM105.358 72.8299V74.3662H101.485V72.8299H105.358ZM105.931 68.5962V70.1821H101.485V68.5962H105.931Z" fill="#CE241E"/>
<path d="M54.9971 88.6211H56.3246C56.2821 89.1274 56.1405 89.5787 55.8998 89.9752C55.6591 90.3681 55.321 90.6778 54.8856 90.9044C54.4502 91.1309 53.921 91.2442 53.298 91.2442C52.8201 91.2442 52.39 91.1593 52.0077 90.9894C51.6254 90.8159 51.2979 90.5716 51.0254 90.2566C50.7528 89.938 50.5439 89.5539 50.3988 89.1043C50.2572 88.6548 50.1864 88.1521 50.1864 87.5963V86.9538C50.1864 86.3981 50.259 85.8954 50.4041 85.4458C50.5528 84.9963 50.7652 84.6122 51.0413 84.2936C51.3174 83.9715 51.6484 83.7254 52.0342 83.5555C52.4236 83.3856 52.8608 83.3007 53.3458 83.3007C53.9617 83.3007 54.4821 83.4139 54.9069 83.6405C55.3317 83.867 55.6609 84.1803 55.8945 84.5803C56.1317 84.9803 56.2768 85.4388 56.3299 85.9556H55.0025C54.9671 85.6228 54.8892 85.3379 54.7688 85.1007C54.652 84.8635 54.4785 84.683 54.2485 84.5591C54.0184 84.4317 53.7175 84.3679 53.3458 84.3679C53.0413 84.3679 52.7758 84.4246 52.5493 84.5379C52.3227 84.6511 52.1334 84.8175 51.9811 85.037C51.8289 85.2565 51.7139 85.5273 51.636 85.8494C51.5617 86.168 51.5245 86.5326 51.5245 86.9432V87.5963C51.5245 87.9857 51.5581 88.3397 51.6254 88.6583C51.6962 88.9734 51.8024 89.2442 51.944 89.4707C52.0891 89.6973 52.2732 89.8725 52.4962 89.9964C52.7192 90.1203 52.9865 90.1823 53.298 90.1823C53.6768 90.1823 53.983 90.1221 54.2166 90.0017C54.4538 89.8814 54.6325 89.7061 54.7529 89.476C54.8768 89.2424 54.9582 88.9574 54.9971 88.6211Z" fill="#444444"/>
<path d="M57.1636 88.3291V88.207C57.1636 87.7928 57.2238 87.4087 57.3441 87.0547C57.4645 86.6972 57.6379 86.3875 57.8645 86.1255C58.0946 85.86 58.3742 85.6547 58.7034 85.5096C59.0362 85.3609 59.4114 85.2865 59.8291 85.2865C60.2504 85.2865 60.6256 85.3609 60.9548 85.5096C61.2876 85.6547 61.569 85.86 61.7991 86.1255C62.0292 86.3875 62.2044 86.6972 62.3248 87.0547C62.4451 87.4087 62.5053 87.7928 62.5053 88.207V88.3291C62.5053 88.7433 62.4451 89.1274 62.3248 89.4813C62.2044 89.8353 62.0292 90.1451 61.7991 90.4106C61.569 90.6725 61.2893 90.8778 60.9601 91.0265C60.6309 91.1717 60.2575 91.2442 59.8398 91.2442C59.4185 91.2442 59.0415 91.1717 58.7087 91.0265C58.3795 90.8778 58.0999 90.6725 57.8698 90.4106C57.6397 90.1451 57.4645 89.8353 57.3441 89.4813C57.2238 89.1274 57.1636 88.7433 57.1636 88.3291ZM58.4433 88.207V88.3291C58.4433 88.5875 58.4698 88.8318 58.5229 89.0619C58.576 89.292 58.6592 89.4937 58.7725 89.6672C58.8857 89.8406 59.0309 89.9769 59.2079 90.0761C59.3849 90.1752 59.5955 90.2247 59.8398 90.2247C60.0769 90.2247 60.2822 90.1752 60.4557 90.0761C60.6327 89.9769 60.7778 89.8406 60.8911 89.6672C61.0044 89.4937 61.0876 89.292 61.1407 89.0619C61.1973 88.8318 61.2256 88.5875 61.2256 88.3291V88.207C61.2256 87.9521 61.1973 87.7114 61.1407 87.4848C61.0876 87.2547 61.0026 87.0512 60.8858 86.8742C60.7725 86.6972 60.6274 86.5591 60.4504 86.46C60.2769 86.3574 60.0698 86.306 59.8291 86.306C59.5884 86.306 59.3796 86.3574 59.2026 86.46C59.0291 86.5591 58.8857 86.6972 58.7725 86.8742C58.6592 87.0512 58.576 87.2547 58.5229 87.4848C58.4698 87.7114 58.4433 87.9521 58.4433 88.207Z" fill="#444444"/>
<path d="M66.8169 89.9858V87.2459C66.8169 87.0406 66.7798 86.8636 66.7054 86.7149C66.6311 86.5662 66.5178 86.4512 66.3656 86.3698C66.2169 86.2883 66.0293 86.2476 65.8027 86.2476C65.5939 86.2476 65.4133 86.283 65.2611 86.3538C65.1089 86.4246 64.9903 86.5202 64.9054 86.6406C64.8204 86.7609 64.7779 86.8972 64.7779 87.0494H63.5036C63.5036 86.8229 63.5584 86.6034 63.6682 86.391C63.7779 86.1786 63.9372 85.9892 64.1461 85.8228C64.3549 85.6565 64.6045 85.5255 64.8947 85.4299C65.185 85.3343 65.5107 85.2865 65.8718 85.2865C66.3036 85.2865 66.6859 85.3591 67.0187 85.5043C67.355 85.6494 67.6187 85.8689 67.8099 86.1627C68.0046 86.453 68.1019 86.8176 68.1019 87.2565V89.8106C68.1019 90.0725 68.1196 90.3079 68.155 90.5168C68.1939 90.7221 68.2488 90.9009 68.3196 91.0531V91.138H67.0081C66.9479 91 66.9001 90.8247 66.8647 90.6124C66.8329 90.3964 66.8169 90.1876 66.8169 89.9858ZM67.0028 87.6441L67.0134 88.4353H66.0948C65.8576 88.4353 65.6488 88.4583 65.4682 88.5043C65.2877 88.5468 65.1372 88.6105 65.0169 88.6955C64.8965 88.7804 64.8063 88.8831 64.7461 89.0035C64.6859 89.1238 64.6558 89.2601 64.6558 89.4123C64.6558 89.5645 64.6912 89.7044 64.762 89.8318C64.8328 89.9557 64.9355 90.053 65.07 90.1238C65.208 90.1946 65.3744 90.23 65.5691 90.23C65.8311 90.23 66.0594 90.1769 66.2541 90.0707C66.4523 89.961 66.6081 89.8283 66.7213 89.6725C66.8346 89.5132 66.8948 89.3628 66.9019 89.2212L67.3161 89.7893C67.2736 89.9345 67.201 90.0902 67.0983 90.2566C66.9957 90.423 66.8612 90.5823 66.6948 90.7345C66.532 90.8832 66.3355 91.0053 66.1054 91.1009C65.8788 91.1964 65.6169 91.2442 65.3195 91.2442C64.9443 91.2442 64.6098 91.1699 64.316 91.0212C64.0222 90.869 63.7921 90.6654 63.6257 90.4106C63.4593 90.1522 63.3761 89.8601 63.3761 89.5344C63.3761 89.23 63.4328 88.961 63.546 88.7273C63.6629 88.4902 63.8328 88.2919 64.0558 88.1326C64.2823 87.9733 64.5585 87.853 64.8841 87.7716C65.2098 87.6866 65.5815 87.6441 65.9992 87.6441H67.0028Z" fill="#444444"/>
<path d="M72.0737 85.3927V86.3273H68.8347V85.3927H72.0737ZM69.7692 83.9856H71.0489V89.5504C71.0489 89.7274 71.0737 89.8637 71.1232 89.9592C71.1763 90.0513 71.2489 90.1132 71.3409 90.1451C71.433 90.1769 71.5409 90.1929 71.6648 90.1929C71.7533 90.1929 71.8383 90.1876 71.9197 90.1769C72.0011 90.1663 72.0666 90.1557 72.1162 90.1451L72.1215 91.1221C72.0153 91.154 71.8914 91.1823 71.7498 91.2071C71.6117 91.2318 71.4524 91.2442 71.2719 91.2442C70.9781 91.2442 70.7179 91.1929 70.4914 91.0902C70.2648 90.984 70.0878 90.8124 69.9604 90.5752C69.8329 90.338 69.7692 90.023 69.7692 89.63V83.9856Z" fill="#444444"/>
<path d="M74.4313 85.3927V91.138H73.1463V85.3927H74.4313ZM73.0613 83.8847C73.0613 83.69 73.1251 83.529 73.2525 83.4015C73.3835 83.2706 73.564 83.2051 73.7941 83.2051C74.0207 83.2051 74.1994 83.2706 74.3304 83.4015C74.4614 83.529 74.5269 83.69 74.5269 83.8847C74.5269 84.0759 74.4614 84.2352 74.3304 84.3626C74.1994 84.4901 74.0207 84.5538 73.7941 84.5538C73.564 84.5538 73.3835 84.4901 73.2525 84.3626C73.1251 84.2352 73.0613 84.0759 73.0613 83.8847Z" fill="#444444"/>
<path d="M77.1021 86.6193V91.138H75.8225V85.3927H77.0278L77.1021 86.6193ZM76.8738 88.053L76.4597 88.0477C76.4632 87.6406 76.5198 87.2671 76.6296 86.9273C76.7428 86.5875 76.8986 86.2954 77.0968 86.0512C77.2986 85.8069 77.5393 85.6193 77.819 85.4883C78.0986 85.3538 78.4101 85.2865 78.7535 85.2865C79.0296 85.2865 79.2792 85.3255 79.5022 85.4034C79.7288 85.4777 79.9217 85.5998 80.081 85.7697C80.2438 85.9397 80.3677 86.1609 80.4527 86.4335C80.5376 86.7025 80.5801 87.0335 80.5801 87.4264V91.138H79.2951V87.4211C79.2951 87.145 79.2544 86.9273 79.173 86.768C79.0951 86.6052 78.9801 86.4901 78.8279 86.4229C78.6792 86.3521 78.4933 86.3167 78.2703 86.3167C78.0508 86.3167 77.8544 86.3627 77.6809 86.4547C77.5075 86.5468 77.3606 86.6724 77.2402 86.8317C77.1234 86.991 77.0331 87.1751 76.9694 87.3839C76.9057 87.5928 76.8738 87.8158 76.8738 88.053Z" fill="#444444"/>
<path d="M85.5661 85.3927H86.7289V90.9787C86.7289 91.4956 86.6192 91.9345 86.3997 92.2956C86.1803 92.6567 85.8741 92.931 85.4811 93.1186C85.0882 93.3098 84.6333 93.4053 84.1165 93.4053C83.897 93.4053 83.6528 93.3735 83.3837 93.3098C83.1182 93.246 82.8598 93.1434 82.6085 93.0018C82.3607 92.8637 82.1536 92.6814 81.9872 92.4549L82.5872 91.7009C82.7926 91.9451 83.0191 92.1239 83.2669 92.2372C83.5147 92.3504 83.7749 92.4071 84.0475 92.4071C84.3413 92.4071 84.5908 92.3522 84.7962 92.2425C85.005 92.1363 85.1661 91.9788 85.2794 91.7699C85.3926 91.561 85.4493 91.3062 85.4493 91.0053V86.6937L85.5661 85.3927ZM81.6633 88.3291V88.2176C81.6633 87.7822 81.7164 87.3857 81.8226 87.0282C81.9288 86.6671 82.081 86.3574 82.2793 86.099C82.4775 85.837 82.7182 85.637 83.0014 85.4989C83.2846 85.3573 83.605 85.2865 83.9625 85.2865C84.3342 85.2865 84.651 85.3538 84.913 85.4883C85.1785 85.6228 85.3997 85.8158 85.5767 86.0671C85.7537 86.3149 85.8918 86.6122 85.9909 86.9592C86.0935 87.3025 86.1696 87.6848 86.2192 88.1061V88.4619C86.1732 88.8725 86.0953 89.2477 85.9856 89.5875C85.8758 89.9274 85.7307 90.2212 85.5502 90.469C85.3696 90.7168 85.1466 90.9079 84.8811 91.0425C84.6192 91.177 84.3094 91.2442 83.9519 91.2442C83.6014 91.2442 83.2846 91.1717 83.0014 91.0265C82.7218 90.8814 82.481 90.6778 82.2793 90.4159C82.081 90.1539 81.9288 89.846 81.8226 89.492C81.7164 89.1344 81.6633 88.7468 81.6633 88.3291ZM82.943 88.2176V88.3291C82.943 88.5911 82.9678 88.8353 83.0173 89.0619C83.0704 89.2884 83.1501 89.4884 83.2563 89.6619C83.366 89.8318 83.5041 89.9663 83.6705 90.0654C83.8404 90.161 84.0404 90.2088 84.2705 90.2088C84.5714 90.2088 84.8174 90.1451 85.0085 90.0176C85.2032 89.8902 85.3519 89.7185 85.4546 89.5026C85.5608 89.2831 85.6351 89.0389 85.6776 88.7698V87.8087C85.6564 87.5999 85.6121 87.4052 85.5448 87.2247C85.4811 87.0441 85.3944 86.8866 85.2847 86.7521C85.1749 86.614 85.0369 86.5078 84.8705 86.4335C84.7041 86.3556 84.5076 86.3167 84.2811 86.3167C84.051 86.3167 83.851 86.3662 83.6811 86.4653C83.5112 86.5645 83.3713 86.7007 83.2616 86.8742C83.1554 87.0477 83.0758 87.2494 83.0227 87.4795C82.9696 87.7096 82.943 87.9556 82.943 88.2176Z" fill="#444444"/>
<path fill-rule="evenodd" clip-rule="evenodd" d="M64.9357 20.9237C63.4195 21.6328 62.4873 22.3282 60.8227 23.9919C56.7388 28.0736 53.011 34.4024 51.0196 40.6348C50.2726 42.9726 49.9649 44.3744 49.61 47.0578C49.3941 48.691 49.482 51.7609 49.7875 53.2444C50.4425 56.4266 51.7676 58.9222 53.8577 60.9095C56.0806 63.0231 59.138 63.6242 61.7377 62.4587C64.3094 61.3057 66.3315 58.7387 66.9022 55.9021C67.1181 54.829 67.1361 53.2754 66.9433 52.3492C66.7735 51.5334 66.1656 49.7493 65.2315 47.3254C64.959 46.6182 64.0278 43.9288 63.9538 43.6356C63.9123 43.4706 63.7975 43.1093 63.6989 42.8327C63.5197 42.33 63.193 41.2055 62.7622 39.6089C60.7721 32.232 61.1206 26.3444 63.7657 22.6593C63.8889 22.4876 64.2662 22.0359 64.6041 21.6555C65.2345 20.9459 65.3277 20.7404 64.9357 20.9237Z" fill="#CE241E"/>
<path fill-rule="evenodd" clip-rule="evenodd" d="M68.7121 20.074C68.2335 20.1686 67.2893 20.5816 66.7151 20.9473C66.0041 21.4001 64.8668 22.5793 64.4526 23.2929C64.0925 23.9135 63.6763 25.0169 63.5832 25.598C63.3628 26.974 63.3784 28.9281 63.6217 30.4439C63.9343 32.3913 64.7828 35.0893 65.8402 37.4976C66.9623 40.0533 68.9702 43.5191 69.963 44.6135C70.6059 45.3222 70.7069 45.1835 70.4699 43.9172C70.2734 42.8676 70.1803 40.5752 70.269 38.9705C70.4047 36.513 71.0107 33.9487 72.0092 31.6057C72.1551 31.2633 72.3546 30.7966 72.4527 30.5684C72.5507 30.3401 72.8783 29.668 73.1809 29.0746C73.4834 28.4813 73.9384 27.5885 74.1919 27.0907C74.4455 26.5929 74.6922 26.003 74.7401 25.7796C74.85 25.2673 74.849 24.2909 74.7381 23.8098C74.5232 22.8778 73.8367 21.7884 73.0654 21.1554C72.4914 20.6842 71.4212 20.172 70.7978 20.07C70.2176 19.975 69.2024 19.977 68.7121 20.074Z" fill="#559E39"/>
<path fill-rule="evenodd" clip-rule="evenodd" d="M75.8893 23.3544C75.8615 23.4267 75.9025 23.7132 75.9805 23.9912C76.3345 25.2521 76.7864 27.3456 76.9586 28.5211C77.2299 30.373 77.2324 33.0447 76.9643 34.745C76.647 36.758 76.277 38.115 75.1704 41.3257C74.2708 43.9357 74.1749 44.3641 74.2292 45.5329C74.3043 47.1472 74.7686 48.1804 75.9455 49.3517C77.0424 50.4435 78.157 50.9358 79.5623 50.9493C81.1061 50.9641 82.2986 50.4184 83.5899 49.1064C85.6694 46.9932 86.3824 44.3494 85.8805 40.6121C85.5142 37.8846 84.184 34.4207 82.1935 31.0107C80.5945 28.2715 78.3383 25.2344 76.884 23.8635C76.2684 23.2832 75.9744 23.1327 75.8893 23.3544Z" fill="#72B8D1"/>
</svg>
