<svg width="28" height="48" viewBox="0 0 28 48" fill="none" xmlns="http://www.w3.org/2000/svg">
<path d="M3.47151 19.5004H10.9927V3.00006C10.9927 1.34981 12.3467 0 14.0011 0C14.7534 0 15.5054 0.300006 16.107 0.900017C16.7086 1.50003 17.0095 2.25025 17.0095 3.00003V19.3503H24.5306C26.1855 19.3503 27.5391 20.7006 27.5391 22.3504V25.3504H0.463255V22.3504C0.463255 20.85 1.81726 19.5001 3.47169 19.5001L3.47151 19.5004Z" fill="black"/>
<path d="M27.5391 46.4999C27.5391 47.2501 26.7868 48 26.0348 48H14.0006C13.2483 48 12.4964 47.2498 12.4964 46.4999V43.4999C12.4964 42.7496 11.7441 41.9998 10.9921 41.9998C10.2398 41.9998 9.48783 42.75 9.48783 43.4999V46.4999C9.48783 47.2501 8.73552 48 7.98356 48C7.23125 48 6.47929 47.2498 6.47929 46.4999V40.4998C6.47929 39.7496 5.72698 38.9997 4.97502 38.9997C4.22271 38.9997 3.47075 39.7499 3.47075 40.4998V46.4999C3.47075 47.2501 2.71844 48 1.96648 48C1.21417 48 0.462212 47.2498 0.462212 46.4999V28.5H27.538L27.5391 46.4999Z" fill="black"/>
</svg>
