<svg xmlns="http://www.w3.org/2000/svg" width="44" height="45" viewBox="0 0 44 45" fill="none">
  <g clip-path="url(#clip0_1_212)">
    <path d="M38.4715 20.6251C38.2332 20.6251 37.9985 20.5293 37.8233 20.3505L34.4254 16.875H29.3047C28.7978 16.875 28.3879 16.4551 28.3879 15.9374C28.3879 15.42 28.7978 15.0001 29.3047 15.0001H34.8047C35.0484 15.0001 35.2814 15.0983 35.4529 15.2748L37.5547 17.4243V15.9374C37.5547 15.42 37.9646 15.0001 38.4715 15.0001H39.3879C39.8942 15.0001 40.3047 14.5792 40.3047 14.0625V2.8125C40.3047 2.2958 39.8942 1.87489 39.3879 1.87489H20.1379C19.6331 1.87489 19.2215 2.2958 19.2215 2.8125V14.0625C19.2215 14.5792 19.6331 15.0001 20.1379 15.0001H21.9715C22.4774 15.0001 22.8879 15.42 22.8879 15.9374C22.8879 16.4551 22.4774 16.875 21.9715 16.875H20.1379C18.6219 16.875 17.3879 15.6133 17.3879 14.0625V2.8125C17.3879 1.26171 18.6219 0 20.1379 0H39.3879C40.9043 0 42.1379 1.26171 42.1379 2.8125V14.0625C42.1379 15.6133 40.9043 16.875 39.3879 16.875V19.6875C39.3879 20.0662 39.1654 20.4085 38.8226 20.5537C38.7088 20.6014 38.5897 20.6251 38.4715 20.6251Z" fill="#187692"/>
    <path d="M5.47147 24.3748C5.35297 24.3748 5.2338 24.3525 5.12033 24.3037C4.77826 24.1592 4.55469 23.8162 4.55469 23.4375V20.625C3.03836 20.625 1.80469 19.3629 1.80469 17.8125V6.5625C1.80469 5.01171 3.03836 3.75 4.55469 3.75H14.6379C15.1441 3.75 15.5547 4.16988 15.5547 4.68727C15.5547 5.205 15.1441 5.62489 14.6379 5.62489H4.55469C4.04947 5.62489 3.63791 6.0458 3.63791 6.5625V17.8125C3.63791 18.3289 4.04947 18.7498 4.55469 18.7498H5.47147C5.97736 18.7498 6.38791 19.17 6.38791 19.6874V21.1743L8.49002 19.0244C8.66122 18.8483 8.8952 18.7498 9.13791 18.7498H23.8047C24.3106 18.7498 24.7215 18.3289 24.7215 17.8125V6.5625C24.7215 6.0458 24.3106 5.62489 23.8047 5.62489H21.9715C21.4652 5.62489 21.0547 5.205 21.0547 4.68727C21.0547 4.16988 21.4652 3.75 21.9715 3.75H23.8047C25.321 3.75 26.5547 5.01171 26.5547 6.5625V17.8125C26.5547 19.3629 25.321 20.625 23.8047 20.625H9.51758L6.11935 24.1001C5.94446 24.2793 5.70981 24.3748 5.47147 24.3748Z" fill="#187692"/>
    <path d="M10.0547 35.625C7.52756 35.625 5.47144 33.5221 5.47144 30.9376V29.0627C5.47144 26.4779 7.52756 24.375 10.0547 24.375C12.5818 24.375 14.6379 26.4779 14.6379 29.0627V30.9376C14.6379 33.5221 12.5818 35.625 10.0547 35.625ZM10.0547 26.2502C8.53833 26.2502 7.30466 27.5119 7.30466 29.0627V30.9376C7.30466 32.4884 8.53833 33.7501 10.0547 33.7501C11.571 33.7501 12.8047 32.4884 12.8047 30.9376V29.0627C12.8047 27.5119 11.571 26.2502 10.0547 26.2502Z" fill="#187692"/>
    <path d="M12.8064 45H7.30301C4.20926 44.999 2.15851 42.9383 2.07324 42.8505C1.90103 42.675 1.80469 42.4368 1.80469 42.1875V38.939C1.80469 38.309 2.10983 37.726 2.62244 37.3782L7.30469 34.186V33.75H9.13791V34.6876C9.13791 35.0007 8.98483 35.2932 8.73004 35.4676L3.63791 38.939V41.759C4.18811 42.2033 5.53928 43.1241 7.30368 43.1251H12.8064C14.5876 43.1241 15.926 42.2071 16.4715 41.7628V38.939L11.3793 35.4676C11.1245 35.2932 10.9715 35.0007 10.9715 34.6876V33.75H12.8047V34.186L17.489 37.3789C18.0002 37.7277 18.3047 38.311 18.3047 38.939V42.1875C18.3047 42.4368 18.2083 42.675 18.0361 42.8505C17.9509 42.9383 15.8994 44.999 12.8064 45Z" fill="#187692"/>
    <path d="M33.8879 35.625C31.3608 35.625 29.3047 33.5221 29.3047 30.9376V29.0627C29.3047 26.4779 31.3608 24.375 33.8879 24.375C36.4153 24.375 38.4715 26.4779 38.4715 29.0627V30.9376C38.4715 33.5221 36.4153 35.625 33.8879 35.625ZM33.8879 26.2502C32.3719 26.2502 31.1379 27.5119 31.1379 29.0627V30.9376C31.1379 32.4884 32.3719 33.7501 33.8879 33.7501C35.4042 33.7501 36.6379 32.4884 36.6379 30.9376V29.0627C36.6379 27.5119 35.4042 26.2502 33.8879 26.2502Z" fill="#187692"/>
    <path d="M36.64 45H31.1363C28.0425 44.999 25.9928 42.9383 25.9065 42.8505C25.7343 42.675 25.6379 42.4368 25.6379 42.1875V38.939C25.6379 38.309 25.9441 37.725 26.4567 37.3782L31.1379 34.186V33.75H32.9715V34.6876C32.9715 35.0007 32.8184 35.2932 32.5636 35.4676L27.4715 38.939V41.759C28.0214 42.2043 29.3725 43.1241 31.1363 43.1251H36.64C38.4208 43.1241 39.7592 42.2071 40.3047 41.7628V38.939L35.2126 35.4676C34.9578 35.2932 34.8047 35.0007 34.8047 34.6876V33.75H36.6379V34.186L41.3212 37.3789C41.8328 37.7277 42.1379 38.311 42.1379 38.939V42.1875C42.1379 42.4368 42.0419 42.675 41.8694 42.8505C41.7834 42.9383 39.7337 44.999 36.64 45Z" fill="#187692"/>
    <path d="M21.0547 24.375H22.8879V26.2502H21.0547V24.375Z" fill="#187692"/>
    <path d="M17.3879 24.375H19.2215V26.2502H17.3879V24.375Z" fill="#187692"/>
    <path d="M24.7214 24.375H26.5547V26.2502H24.7214V24.375Z" fill="#187692"/>
  </g>
  <defs>
    <clipPath id="clip0_1_212">
      <rect width="44" height="45" fill="white"/>
    </clipPath>
  </defs>
</svg>