<svg xmlns="http://www.w3.org/2000/svg" width="34" height="34" viewBox="0 0 34 34" fill="none">
  <g clip-path="url(#clip0_1_161)">
    <path d="M11.4314 9.14502H13.4236V11.1372H11.4314V9.14502Z" fill="white"/>
    <path d="M11.4314 13.7175H13.4236V15.7097H11.4314V13.7175Z" fill="white"/>
    <path d="M20.5764 13.7175H22.5686V15.7097H20.5764V13.7175Z" fill="white"/>
    <path d="M25.149 13.7175H27.1412V15.7097H25.149V13.7175Z" fill="white"/>
    <path d="M20.5764 18.2903H22.5686V20.2825H20.5764V18.2903Z" fill="white"/>
    <path d="M25.149 18.2903H27.1412V20.2825H25.149V18.2903Z" fill="white"/>
    <path d="M20.5764 22.8628H22.5686V24.855H20.5764V22.8628Z" fill="white"/>
    <path d="M25.149 22.8628H27.1412V24.855H25.149V22.8628Z" fill="white"/>
    <path d="M20.5764 27.4353H22.5686V29.4275H20.5764V27.4353Z" fill="white"/>
    <path d="M25.149 27.4353H27.1412V29.4275H25.149V27.4353Z" fill="white"/>
    <path d="M6.85883 13.7175H8.85101V15.7097H6.85883V13.7175Z" fill="white"/>
    <path d="M11.4314 18.2903H13.4236V20.2825H11.4314V18.2903Z" fill="white"/>
    <path d="M6.85883 18.2903H8.85101V20.2825H6.85883V18.2903Z" fill="white"/>
    <path d="M11.4314 22.8628H13.4236V24.855H11.4314V22.8628Z" fill="white"/>
    <path d="M6.85883 22.8628H8.85101V24.855H6.85883V22.8628Z" fill="white"/>
    <path d="M31.7137 32.0078V9.14507H17.9961V4.39277L15.7098 4.77381V0H4.57254V6.63007L2.2863 7.01111V32.0078H0V34H34V32.0078H31.7137ZM29.7215 11.1373V32.0078H17.9961V11.1373H29.7215ZM6.56472 1.99219H13.7176V5.10584L6.56472 6.29804V1.99219ZM4.27849 8.69875L16.0039 6.74448V9.14507V32.0078H13.4236V27.4353H6.85884V32.0078H4.27849V8.69875ZM11.4314 32.0078H8.85102V29.4275H11.4314V32.0078Z" fill="white"/>
  </g>
  <defs>
    <clipPath id="clip0_1_161">
      <rect width="34" height="34" fill="white"/>
    </clipPath>
  </defs>
</svg>