<svg xmlns="http://www.w3.org/2000/svg" width="37" height="37" viewBox="0 0 37 37" fill="none">
  <g clip-path="url(#clip0_1_159)">
    <path d="M2.46855 18.8815H5.05277V33.219C5.05277 33.5257 5.17459 33.8198 5.39143 34.0366C5.60827 34.2535 5.90237 34.3753 6.20902 34.3753H13.875V35.89C13.875 36.1966 13.9968 36.4907 14.2136 36.7076C14.4305 36.9244 14.7246 37.0462 15.0312 37.0462H17.997C18.3036 37.0462 18.5977 36.9244 18.8146 36.7076C19.0314 36.4907 19.1532 36.1966 19.1532 35.89V34.3753H30.7909C31.0976 34.3753 31.3917 34.2535 31.6085 34.0366C31.8253 33.8198 31.9471 33.5257 31.9471 33.219V18.8815H34.5314C34.7585 18.8818 34.9806 18.8151 35.1701 18.6899C35.3596 18.5646 35.5079 18.3864 35.5967 18.1773C35.6855 17.9683 35.7108 17.7377 35.6694 17.5144C35.628 17.2911 35.5217 17.085 35.3639 16.9217L31.2765 12.7187V2.89059C31.2765 2.58393 31.1547 2.28984 30.9379 2.073C30.721 1.85616 30.4269 1.73434 30.1203 1.73434H23.9112C23.6046 1.73434 23.3105 1.85616 23.0936 2.073C22.8768 2.28984 22.755 2.58393 22.755 2.89059V3.89075L19.3325 0.352622C19.2246 0.240717 19.0953 0.151707 18.9522 0.0909105C18.8092 0.030114 18.6554 -0.0012207 18.5 -0.0012207C18.3445 -0.0012207 18.1907 0.030114 18.0477 0.0909105C17.9046 0.151707 17.7753 0.240717 17.6675 0.352622L1.63605 16.9217C1.47821 17.085 1.37195 17.2911 1.33054 17.5144C1.28913 17.7377 1.3144 17.9683 1.40319 18.1773C1.49198 18.3864 1.64037 18.5646 1.82983 18.6899C2.0193 18.8151 2.24144 18.8818 2.46855 18.8815ZM16.1875 34.7337V29.5711H16.8407V34.7337H16.1875ZM18.5 2.82122L23.0787 7.55606C23.2387 7.72209 23.4448 7.83648 23.6703 7.88453C23.8958 7.93257 24.1306 7.91209 24.3444 7.82569C24.5582 7.7393 24.7413 7.59095 24.8701 7.39971C24.999 7.20847 25.0677 6.98307 25.0675 6.75247V4.04684H28.964V13.1812C28.9637 13.4809 29.0798 13.769 29.2878 13.9848L31.7968 16.569H30.7909C30.4842 16.569 30.1901 16.6908 29.9733 16.9077C29.7565 17.1245 29.6346 17.4186 29.6346 17.7253V32.0628H19.1243V28.4148C19.1243 28.1082 19.0025 27.8141 18.7857 27.5972C18.5688 27.3804 18.2747 27.2586 17.9681 27.2586H17.7253V26.6342C17.7268 26.2989 17.8607 25.9777 18.0978 25.7406C18.3349 25.5035 18.656 25.3696 18.9914 25.3681H24.5067C25.6122 25.36 26.6742 24.936 27.4813 24.1805C28.2883 23.4249 28.7814 22.3932 28.8623 21.2906C28.9432 20.188 28.606 19.0954 27.9178 18.2301C27.2296 17.3648 26.2409 16.7904 25.1484 16.6211V15.6093C25.1484 15.3027 25.0266 15.0086 24.8097 14.7918C24.5929 14.5749 24.2988 14.4531 23.9921 14.4531H10.5334C10.2267 14.4531 9.93264 14.5749 9.7158 14.7918C9.49897 15.0086 9.37715 15.3027 9.37715 15.6093V19.8817C9.37715 20.1883 9.49897 20.4824 9.7158 20.6993C9.93264 20.9161 10.2267 21.0379 10.5334 21.0379H23.9921C24.2988 21.0379 24.5929 20.9161 24.8097 20.6993C25.0266 20.4824 25.1484 20.1883 25.1484 19.8817V19.0145C25.6098 19.1748 26.0001 19.4922 26.251 19.9112C26.502 20.3302 26.5976 20.8241 26.5211 21.3065C26.4446 21.7889 26.2009 22.229 25.8326 22.5498C25.4644 22.8706 24.995 23.0517 24.5067 23.0614H18.9914C18.0423 23.0614 17.132 23.4384 16.4609 24.1095C15.7898 24.7806 15.4128 25.6909 15.4128 26.64V27.2643H15.0312C14.7246 27.2643 14.4305 27.3862 14.2136 27.603C13.9968 27.8198 13.875 28.1139 13.875 28.4206V32.0686H7.36527V17.7253C7.36527 17.4186 7.24345 17.1245 7.02661 16.9077C6.80978 16.6908 6.51568 16.569 6.20902 16.569H5.20308L18.5 2.82122ZM22.8359 16.7656V18.7254H11.6896V16.7656H22.8359Z" fill="white"/>
  </g>
  <defs>
    <clipPath id="clip0_1_159">
      <rect width="37" height="37" fill="white"/>
    </clipPath>
  </defs>
</svg>