<svg width="105" height="34" viewBox="0 0 105 34" fill="none" xmlns="http://www.w3.org/2000/svg">
<path d="M44.4928 17.4362C44.4928 22.1556 40.6528 25.6332 35.9403 25.6332C31.2277 25.6332 27.3877 22.1556 27.3877 17.4362C27.3877 12.6836 31.2277 9.23926 35.9403 9.23926C40.6528 9.23926 44.4928 12.6836 44.4928 17.4362ZM40.7489 17.4362C40.7489 14.4871 38.5233 12.4693 35.9403 12.4693C33.3572 12.4693 31.1316 14.4871 31.1316 17.4362C31.1316 20.3558 33.3572 22.4032 35.9403 22.4032C38.5233 22.4032 40.7489 20.3521 40.7489 17.4362Z" fill="white"/>
<path d="M62.943 17.4362C62.943 22.1556 59.103 25.6332 54.3905 25.6332C49.6779 25.6332 45.8379 22.1556 45.8379 17.4362C45.8379 12.6873 49.6779 9.23926 54.3905 9.23926C59.103 9.23926 62.943 12.6836 62.943 17.4362ZM59.1991 17.4362C59.1991 14.4871 56.9735 12.4693 54.3905 12.4693C51.8074 12.4693 49.5818 14.4871 49.5818 17.4362C49.5818 20.3558 51.8074 22.4032 54.3905 22.4032C56.9735 22.4032 59.1991 20.3521 59.1991 17.4362Z" fill="white"/>
<path d="M80.6243 9.73448V24.4506C80.6243 30.504 76.9112 32.9764 72.5215 32.9764C68.3894 32.9764 65.9024 30.3193 64.9645 28.1462L68.2241 26.8416C68.8045 28.1758 70.2267 29.7501 72.5177 29.7501C75.3275 29.7501 77.0688 28.0834 77.0688 24.9458V23.7669H76.9381C76.1001 24.761 74.4857 25.6295 72.4485 25.6295C68.1856 25.6295 64.2803 22.0595 64.2803 17.4658C64.2803 12.8388 68.1856 9.23926 72.4485 9.23926C74.4819 9.23926 76.0963 10.1077 76.9381 11.0723H77.0688V9.73817H80.6243V9.73448ZM77.334 17.4658C77.334 14.5795 75.3314 12.4693 72.7829 12.4693C70.1998 12.4693 68.0357 14.5795 68.0357 17.4658C68.0357 20.3225 70.1998 22.4032 72.7829 22.4032C75.3314 22.4032 77.334 20.3225 77.334 17.4658Z" fill="white"/>
<path d="M86.4866 1.10889V25.1306H82.835V1.10889H86.4866Z" fill="white"/>
<path d="M100.716 20.1338L103.622 21.9964C102.684 23.3306 100.424 25.6293 96.5189 25.6293C91.6757 25.6293 88.0586 22.0297 88.0586 17.4323C88.0586 12.5577 91.7064 9.23535 96.0999 9.23535C100.524 9.23535 102.688 12.6206 103.396 14.4499L103.784 15.3812L92.3868 19.9195C93.2593 21.564 94.6162 22.403 96.5189 22.403C98.4255 22.403 99.7477 21.5012 100.716 20.1338ZM91.7718 17.1847L99.3903 14.1432C98.9713 13.1195 97.7105 12.4062 96.2268 12.4062C94.3241 12.4062 91.6757 14.0212 91.7718 17.1847Z" fill="white"/>
<path d="M13.5652 15.3038V11.8262H25.7541C25.8733 12.4323 25.9348 13.1493 25.9348 13.9253C25.9348 16.5345 25.1929 19.7608 22.802 22.0595C20.4765 24.3877 17.5052 25.6295 13.5691 25.6295C6.27346 25.6295 0.138672 19.916 0.138672 12.9017C0.138672 5.88731 6.27346 0.173828 13.5691 0.173828C17.6051 0.173828 20.4803 1.69644 22.6406 3.681L20.0883 6.13492C18.5392 4.73796 16.4404 3.65144 13.5652 3.65144C8.23767 3.65144 4.07093 7.77948 4.07093 12.9017C4.07093 18.0238 8.23767 22.1519 13.5652 22.1519C17.0209 22.1519 18.9889 20.8177 20.2497 19.6056C21.2722 18.6225 21.9448 17.2182 22.2101 15.3001L13.5652 15.3038Z" fill="white"/>
</svg>
