<svg xmlns="http://www.w3.org/2000/svg" width="47" height="47" viewBox="0 0 47 47" fill="none">
  <g clip-path="url(#clip0_1_222)">
    <path d="M24.5643 20.1319H24.5869C25.3097 20.1253 25.9947 19.8084 26.4678 19.2619L34.9412 9.48111C36.4089 7.78545 36.7529 5.38956 35.821 3.34952C34.8891 1.30948 32.8532 0.000835788 30.6106 1.58371e-05H30.2913C28.5501 -0.00408392 26.9024 0.787989 25.818 2.15034L24.5869 3.69431L23.352 2.15034C22.2672 0.787989 20.6195 -0.00408392 18.8784 1.58371e-05H18.4032C16.7547 0.000425813 15.1865 0.710094 14.0985 1.94781L14.0009 2.05973C12.0855 4.24121 12.1035 7.51036 14.0427 9.67093L22.6911 19.2963C23.1688 19.8281 23.8497 20.1319 24.5643 20.1319ZM15.2923 8.54924C13.9226 7.02249 13.9095 4.7131 15.262 3.17118L15.3587 3.05966C16.1282 2.18519 17.2364 1.68379 18.4016 1.68338H18.8767C20.1079 1.68051 21.2726 2.24053 22.0397 3.20398L23.9297 5.56667C24.0945 5.75689 24.3335 5.86595 24.5852 5.86595C24.837 5.86595 25.076 5.75689 25.2412 5.56667L27.1312 3.20398C27.8962 2.23971 29.0605 1.67805 30.2913 1.67928H30.6061C32.1919 1.67928 33.6318 2.60459 34.2906 4.04689C34.9494 5.48959 34.7059 7.18361 33.6674 8.38197L25.199 18.1619C25.0419 18.3452 24.8132 18.4514 24.5717 18.4526C24.331 18.4551 24.1006 18.3538 23.9395 18.1746L15.2923 8.54924Z" fill="#187692"/>
    <path d="M39.4431 12.5752C37.5884 12.5752 36.0846 14.079 36.0846 15.9337V16.4007C35.5766 16.0981 34.9969 15.937 34.4053 15.9337C32.5506 15.9337 31.0468 17.4375 31.0468 19.2922V25.6481C31.0161 25.6641 30.9861 25.6821 30.957 25.7018C30.9066 25.7248 30.8586 25.753 30.8135 25.7858C30.8094 25.7858 30.8045 25.7899 30.8 25.7936L26.0008 30.0992C25.3149 30.7183 24.7484 31.4583 24.3298 32.2823C23.9116 31.4583 23.345 30.7183 22.6591 30.0992L17.8599 25.7945C17.8599 25.7945 17.8505 25.7899 17.8464 25.7867C17.8001 25.7539 17.7509 25.726 17.6992 25.7026C17.6726 25.6842 17.6443 25.6674 17.6156 25.6526V19.2922C17.6156 17.4375 16.1118 15.9337 14.2571 15.9337C13.6655 15.937 13.0858 16.0981 12.5778 16.4007V15.9337C12.5778 14.079 11.074 12.5752 9.2193 12.5752C7.36416 12.5752 5.86078 14.079 5.86078 15.9337V28.3896C5.86078 29.1882 6.08832 29.9705 6.51715 30.6441L11.7353 38.8481V46.1604C11.7353 46.6241 12.1113 47 12.575 47H36.0846C36.5487 47 36.9242 46.6241 36.9242 46.1604V38.8481L42.1453 30.6441C42.5741 29.9705 42.8021 29.1882 42.8016 28.3896V15.9337C42.8016 14.079 41.2983 12.5752 39.4431 12.5752ZM12.575 19.2922C12.575 18.3649 13.3268 17.613 14.2542 17.613C15.182 17.613 15.9335 18.3649 15.9335 19.2922V25.555C14.9602 25.7584 14.1386 26.4061 13.7147 27.3056L12.575 25.7362V19.2922ZM23.4901 36.0848V45.3208H13.4146V38.6037C13.415 38.4438 13.3695 38.2876 13.2838 38.1528L7.93116 29.7413C7.67369 29.3375 7.53676 28.8685 7.53717 28.3896V15.9337C7.53717 15.0064 8.28906 14.2545 9.21643 14.2545C10.1442 14.2545 10.8957 15.0064 10.8957 15.9337V26.0093C10.8973 26.111 10.9178 26.2114 10.9555 26.3057C10.9691 26.3344 10.9842 26.3627 11.0006 26.3897C11.0166 26.4275 11.0351 26.4639 11.0564 26.4988L13.827 30.3091L13.8336 30.3148C13.9115 30.4555 14 30.5899 14.0984 30.717L16.1217 33.247C16.1983 33.3405 16.2947 33.4167 16.4037 33.4692C16.4373 33.4823 16.4714 33.493 16.5062 33.5012C16.5804 33.5295 16.6583 33.5467 16.737 33.5524C16.7506 33.5524 16.7641 33.5619 16.7776 33.5619C16.8276 33.5578 16.8772 33.5496 16.926 33.5373C16.9592 33.534 16.992 33.5282 17.0244 33.5204C17.1253 33.4909 17.2196 33.4426 17.3024 33.3778C17.6644 33.0879 17.723 32.5595 17.4332 32.1975L15.4099 29.6683C15.1262 29.317 15.0114 28.8594 15.0947 28.4158C15.1783 27.9722 15.4522 27.5877 15.8437 27.3634C15.8757 27.345 15.9101 27.3351 15.9429 27.3192C16.0274 27.2757 16.1155 27.24 16.2065 27.2134C16.252 27.2007 16.2979 27.1966 16.3443 27.188C16.4259 27.1724 16.5087 27.163 16.5919 27.1605C16.6448 27.1605 16.6977 27.1654 16.7506 27.1695C16.8071 27.1757 16.8629 27.1847 16.9186 27.1966L21.5423 31.3443C22.7833 32.4619 23.4914 34.0538 23.4901 35.7237V36.0848ZM32.7261 25.1697V19.2922C32.7261 18.3649 33.478 17.613 34.4053 17.613C35.3331 17.613 36.0846 18.3649 36.0846 19.2922V25.7362L34.9453 27.3048C34.5218 26.4053 33.6998 25.7576 32.7261 25.5558V25.1697ZM41.1224 28.3896C41.1232 28.8685 40.9863 29.3375 40.7288 29.7413L35.3762 38.1528C35.2905 38.2876 35.245 38.4438 35.245 38.6037V45.3208H25.1694V35.7237C25.171 34.0546 25.8803 32.4643 27.1217 31.3484L31.7462 27.2007C31.7991 27.1892 31.8528 27.1806 31.9069 27.1757C31.9643 27.1691 32.0221 27.1654 32.08 27.1646C32.1529 27.1679 32.2259 27.1765 32.2981 27.1896C32.3546 27.1966 32.4108 27.2068 32.4662 27.2199C32.5465 27.2449 32.6248 27.2765 32.7002 27.3142C32.7421 27.3335 32.7843 27.3466 32.8253 27.3696C32.9409 27.4364 33.0475 27.5176 33.1426 27.6115C33.7006 28.1682 33.7502 29.0562 33.257 29.6716L31.2325 32.2016C30.9427 32.5636 31.0013 33.0924 31.3637 33.3819C31.4461 33.4471 31.54 33.4954 31.6405 33.525C31.6737 33.5323 31.7069 33.5381 31.7405 33.5418C31.7885 33.5537 31.8372 33.5619 31.8864 33.566C31.9 33.566 31.9127 33.5573 31.927 33.5565C32.0053 33.5512 32.0828 33.534 32.1562 33.5053C32.1919 33.4975 32.2271 33.4868 32.2612 33.4737C32.3698 33.4204 32.4657 33.3446 32.5424 33.2511L34.5669 30.7203C34.6644 30.5936 34.7526 30.4596 34.8305 30.3198L34.837 30.3132L37.6036 26.5029C37.6249 26.468 37.6433 26.4316 37.6589 26.3938C37.6757 26.3668 37.6909 26.3389 37.7044 26.3098C37.7425 26.2143 37.763 26.1122 37.7639 26.0093V15.9337C37.7639 15.0064 38.5158 14.2545 39.4431 14.2545C40.3709 14.2545 41.1224 15.0064 41.1224 15.9337V28.3896Z" fill="#187692"/>
    <path d="M39.4431 4.17896H41.1224V5.85822H39.4431V4.17896Z" fill="#187692"/>
    <path d="M42.8016 4.17896H44.4809V5.85822H42.8016V4.17896Z" fill="#187692"/>
    <path d="M41.1224 2.49951H42.8016V4.17877H41.1224V2.49951Z" fill="#187692"/>
    <path d="M41.1224 5.85815H42.8016V7.53741H41.1224V5.85815Z" fill="#187692"/>
    <path d="M2.49939 6.69775H4.17865V8.37701H2.49939V6.69775Z" fill="#187692"/>
    <path d="M7.53717 6.69775H9.21643V8.37701H7.53717V6.69775Z" fill="#187692"/>
    <path d="M5.01831 4.17896H6.69757V5.85822H5.01831V4.17896Z" fill="#187692"/>
    <path d="M5.01831 9.21655H6.69757V10.8958H5.01831V9.21655Z" fill="#187692"/>
  </g>
  <defs>
    <clipPath id="clip0_1_222">
      <rect width="47" height="47" fill="white"/>
    </clipPath>
  </defs>
</svg>