 <svg
        xmlns="http://www.w3.org/2000/svg"
        width="13"
        height="13"
        class="mr-2"
        viewBox="0 0 13 13"
        fill="none"
      >
        <g clip-path="url(#clip0_1_47)">
          <path
            d="M12.9751 3.00195L8.41533 7.5617C7.90691 8.06884 7.21811 8.35364 6.5 8.35364C5.78189 8.35364 5.09309 8.06884 4.58467 7.5617L0.0249167 3.00195C0.0173333 3.08754 0 3.16499 0 3.25004V9.75004C0.00086009 10.4681 0.286478 11.1564 0.794202 11.6642C1.30193 12.1719 1.9903 12.4575 2.70833 12.4584H10.2917C11.0097 12.4575 11.6981 12.1719 12.2058 11.6642C12.7135 11.1564 12.9991 10.4681 13 9.75004V3.25004C13 3.16499 12.9827 3.08754 12.9751 3.00195Z"
            fill="white"></path>
          <path
            d="M7.64943 6.79559L12.597 1.84746C12.3573 1.45005 12.0193 1.12111 11.6155 0.892358C11.2117 0.663608 10.7558 0.542772 10.2917 0.541504H2.70835C2.24426 0.542772 1.78833 0.663608 1.38453 0.892358C0.980731 1.12111 0.642691 1.45005 0.403015 1.84746L5.3506 6.79559C5.65587 7.09963 6.06916 7.27034 6.50001 7.27034C6.93086 7.27034 7.34416 7.09963 7.64943 6.79559Z"
            fill="white"></path>
        </g>
        <defs>
          <clipPath id="clip0_1_47">
            <rect width="13" height="13" fill="white"></rect>
          </clipPath>
        </defs>
      </svg>