<svg xmlns="http://www.w3.org/2000/svg" width="39" height="39" viewBox="0 0 39 39" fill="#fff">
  <g clip-path="url(#clip0_1_156)">
    <path d="M37.8572 32.1445H34.4294V19.0429C34.4348 19.0471 34.4407 19.0509 34.4461 19.0548C34.6481 19.2009 34.882 19.2711 35.1141 19.2711C35.4616 19.2711 35.8047 19.1131 36.0287 18.8144L38.7712 15.1587C38.9551 14.9138 39.0328 14.6056 38.9872 14.303C38.9417 14.0001 38.7766 13.7284 38.5287 13.5487C38.346 13.416 20.251 0.276033 20.1743 0.220392C19.7729 -0.0729894 19.2281 -0.0729894 18.827 0.219499C18.7758 0.256692 15.3231 2.76412 11.4258 5.59408V3.50412C11.4258 2.87302 10.914 2.36154 10.2832 2.36154H5.7129C5.0818 2.36154 4.57032 2.87302 4.57032 3.50412V10.572C2.22595 12.2746 0.526658 13.5085 0.471314 13.5487C0.223458 13.7287 0.0583191 14.0004 0.0127945 14.303C-0.0327302 14.6059 0.0449296 14.9141 0.228813 15.159L2.9713 18.8144C3.34502 19.3128 4.04901 19.4196 4.55395 19.0551C4.5596 19.0509 4.56466 19.0471 4.57032 19.0432V32.1448H1.14258C0.511483 32.1448 0 32.6562 0 33.2873C0 33.9181 0.511483 34.4296 1.14258 34.4296H10.7194L9.26114 37.3465C9.0841 37.7009 9.10314 38.1213 9.31113 38.4581C9.51941 38.7949 9.88718 38.9999 10.2832 38.9999H28.6404C29.0364 38.9999 29.4042 38.7949 29.6124 38.4581C29.8207 38.1213 29.8395 37.7009 29.6624 37.3465L28.2041 34.4296H37.8572C38.4883 34.4296 38.9997 33.9181 38.9997 33.2873C38.9997 32.6562 38.4883 32.1445 37.8572 32.1445ZM6.85547 4.6467H9.14063V7.2535C8.36671 7.81527 7.59756 8.37376 6.85547 8.91292V4.6467ZM4.12578 16.5456L2.7532 14.716C14.2757 6.34866 18.1765 3.51602 19.5 2.55494C22.047 4.40449 31.1954 11.0475 36.2468 14.716L34.8743 16.5456C34.7725 16.4724 20.4221 6.11241 20.1722 5.9318C19.7717 5.6405 19.2298 5.6405 18.8293 5.93061C18.7612 5.9797 4.19422 16.4962 4.12578 16.5456ZM6.85547 17.3936C15.246 11.3361 18.35 9.09502 19.5 8.26486C21.5442 9.74069 27.8072 14.2625 32.1443 17.3933V32.1448H27.4978V21.7854C27.4978 21.1543 26.9863 20.6428 26.3552 20.6428H12.5684C11.9373 20.6428 11.4258 21.1543 11.4258 21.7854V32.1448H6.85547V17.3936ZM20.6426 32.1445V22.9277H25.2129V32.1445H20.6426ZM13.7109 32.1445V22.9277H18.3574V32.1445H13.7109ZM12.1319 36.7148L13.2744 34.4296H25.6491L26.7917 36.7148H12.1319Z" fill="#"/>
    <path d="M19.5 18.3574C21.39 18.3574 22.9277 16.8197 22.9277 14.9297C22.9277 13.0397 21.39 11.502 19.5 11.502C17.61 11.502 16.0723 13.0397 16.0723 14.9297C16.0723 16.8197 17.61 18.3574 19.5 18.3574ZM19.5 13.7871C20.1299 13.7871 20.6426 14.2995 20.6426 14.9297C20.6426 15.5596 20.1299 16.0723 19.5 16.0723C18.8698 16.0723 18.3574 15.5596 18.3574 14.9297C18.3574 14.2995 18.8698 13.7871 19.5 13.7871Z" fill="#"/>
  </g>
  <defs>
    <clipPath id="clip0_1_156">
      <rect width="39" height="39" fill="white"/>
    </clipPath>
  </defs>
</svg>