<svg width="117" height="19" viewBox="0 0 117 19" fill="none" xmlns="http://www.w3.org/2000/svg">
<g clip-path="url(#clip0_140_342)">
<path d="M17.6678 18.4586L11.2264 14.1139L4.78504 18.4586L7.25824 11.4421L0.820312 7.1251H8.76874L11.2264 0.0966797L13.6841 7.1251H21.6317L15.1946 11.4421L17.6678 18.4586Z" fill="#F6B63B"/>
</g>
<g clip-path="url(#clip1_140_342)">
<path d="M41.4764 18.4586L35.035 14.1139L28.5936 18.4586L31.0668 11.4421L24.6289 7.1251H32.5773L35.035 0.0966797L37.4927 7.1251H45.4403L39.0032 11.4421L41.4764 18.4586Z" fill="#F6B63B"/>
</g>
<g clip-path="url(#clip2_140_342)">
<path d="M65.286 18.4586L58.8446 14.1139L52.4032 18.4586L54.8764 11.4421L48.4385 7.1251H56.3869L58.8446 0.0966797L61.3023 7.1251H69.2498L62.8128 11.4421L65.286 18.4586Z" fill="#F6B63B"/>
</g>
<g clip-path="url(#clip3_140_342)">
<path d="M89.0946 18.4586L82.6532 14.1139L76.2118 18.4586L78.685 11.4421L72.2471 7.1251H80.1955L82.6532 0.0966797L85.1109 7.1251H93.0584L86.6214 11.4421L89.0946 18.4586Z" fill="#F6B63B"/>
</g>
<g clip-path="url(#clip4_140_342)">
<path d="M112.904 18.4586L106.463 14.1139L100.021 18.4586L102.495 11.4421L96.0566 7.1251H104.005L106.463 0.0966797L108.92 7.1251H116.868L110.431 11.4421L112.904 18.4586Z" fill="#F6B63B"/>
</g>
<defs>
<clipPath id="clip0_140_342">
<rect width="20.7035" height="19" fill="white" transform="translate(0.875)"/>
</clipPath>
<clipPath id="clip1_140_342">
<rect width="20.7035" height="19" fill="white" transform="translate(24.6836)"/>
</clipPath>
<clipPath id="clip2_140_342">
<rect width="20.7035" height="19" fill="white" transform="translate(48.4932)"/>
</clipPath>
<clipPath id="clip3_140_342">
<rect width="20.7035" height="19" fill="white" transform="translate(72.3018)"/>
</clipPath>
<clipPath id="clip4_140_342">
<rect width="20.7035" height="19" fill="white" transform="translate(96.1113)"/>
</clipPath>
</defs>
</svg>
