<svg width="48" height="48" viewBox="0 0 48 48" fill="none" xmlns="http://www.w3.org/2000/svg">
<path d="M27.5655 30.343L31.8081 26.1004L43.8005 38.0928L39.5579 42.3354L27.5655 30.343Z" fill="black"/>
<path d="M35.0001 20.0023C38.8601 20.0023 42.0001 16.8623 42.0001 13.0023C42.0001 11.8423 41.6801 10.7623 41.1801 9.80233L35.7801 15.2023L32.8001 12.2223L38.2001 6.82233C37.2401 6.32233 36.1601 6.00233 35.0001 6.00233C31.1401 6.00233 28.0001 9.14233 28.0001 13.0023C28.0001 13.8223 28.1601 14.6023 28.4201 15.3223L24.7201 19.0223L21.1601 15.4623L22.5801 14.0423L19.7601 11.2223L24.0001 6.98233C21.6601 4.64233 17.8601 4.64233 15.5201 6.98233L8.44013 14.0623L11.2601 16.8823H5.62013L4.20013 18.3023L11.2801 25.3823L12.7001 23.9623V18.3023L15.5201 21.1223L16.9401 19.7023L20.5001 23.2623L5.68013 38.0823L9.92013 42.3223L32.6801 19.5823C33.4001 19.8423 34.1801 20.0023 35.0001 20.0023Z" fill="black"/>
</svg>
