<svg width="30" height="48" viewBox="0 0 30 48" fill="none" xmlns="http://www.w3.org/2000/svg">
<path d="M11.6578 2.5721L7.27995 0V5.05886C7.27995 10.8915 5.07353 16.5756 3.12638 21.5943C1.44658 25.9214 0 29.6493 0 33.0756C0 41.304 6.72957 48 15.0003 48C23.2717 48 30 41.304 30 33.0756C30 25.6543 21.1158 8.13071 11.6573 2.5724L11.6578 2.5721ZM15.8024 44.3102C9.12214 44.3102 3.70723 38.9233 3.70723 32.2758C3.70723 29.2045 5.26151 25.3927 6.93126 21.0756C5.99046 24.254 5.31269 27.1269 5.31269 29.6012C5.31269 37.4294 10.3445 43.8103 16.6873 44.268C16.3933 44.2882 16.1017 44.3102 15.8024 44.3102Z" fill="black"/>
</svg>
