<svg width="49" height="28" viewBox="0 0 49 28" fill="none" xmlns="http://www.w3.org/2000/svg">
<path d="M34.3051 17.0004C34.3051 17.5528 33.9061 18.0004 33.4138 18.0004C32.9215 18.0004 32.5225 17.5528 32.5225 17.0004C32.5225 16.4481 32.9215 16 33.4138 16C33.9061 16 34.3051 16.4481 34.3051 17.0004Z" fill="black"/>
<path d="M7.56095 17.001C7.56095 17.267 7.65472 17.5211 7.82194 17.7081L11.6483 22.0012H44.9563C44.4918 13.0925 37.9025 6.00058 29.8475 6.00058H8.45258C7.96068 6.00058 7.56124 6.44868 7.56124 7.00051V8.00045H4.88679C3.41238 8.00045 2.21235 6.65409 2.21235 5.00016C2.21235 3.34624 3.41249 1.99988 4.88679 1.99988C5.3787 1.99988 5.77814 1.55177 5.77814 0.999938C5.77814 0.448105 5.3787 0 4.88679 0C2.42909 0 0.429688 2.24301 0.429688 5.00014C0.429688 7.75727 2.42909 10.0003 4.88679 10.0003H7.56124L7.56095 17.001ZM33.4131 14.0007C34.8875 14.0007 36.0875 15.3471 36.0875 17.001C36.0875 18.6549 34.8874 20.0013 33.4131 20.0013C31.9388 20.0013 30.7386 18.6549 30.7386 17.001C30.7386 15.3465 31.9388 14.0007 33.4131 14.0007ZM14.693 11.0004C14.693 10.4486 15.0924 10.0005 15.5843 10.0005H26.2817C26.7745 10.0005 27.1731 10.4486 27.1731 11.0004V17.0005C27.1731 17.5533 26.7745 18.0004 26.2817 18.0004L17.3674 18.0009C17.1312 18.0009 16.9038 17.8957 16.7371 17.7081L14.9544 15.7083C14.7867 15.5207 14.693 15.2666 14.693 15.0006L14.693 11.0004Z" fill="black"/>
<path d="M25.3904 16.0002V12H16.4756V14.5864L17.7363 16.0002H25.3904Z" fill="black"/>
<path d="M47.6757 24H8.45189C7.95999 24 7.56055 24.4471 7.56055 24.9999V26.9998C7.56055 27.5526 7.95999 27.9997 8.45189 27.9997H47.6757C48.1684 27.9997 48.567 27.5526 48.567 26.9998V24.9999C48.5674 24.4471 48.1689 24 47.6761 24H47.6757Z" fill="black"/>
</svg>
