<svg width="34" height="34" viewBox="0 0 34 34" fill="none" xmlns="http://www.w3.org/2000/svg">
<g clip-path="url(#clip0_7696_47296)">
<path d="M11.4314 9.14844H13.4236V11.1406H11.4314V9.14844Z" fill="black"/>
<path d="M11.4314 13.7188H13.4236V15.7109H11.4314V13.7188Z" fill="black"/>
<path d="M20.5764 13.7188H22.5686V15.7109H20.5764V13.7188Z" fill="black"/>
<path d="M25.1489 13.7188H27.1411V15.7109H25.1489V13.7188Z" fill="black"/>
<path d="M20.5764 18.2891H22.5686V20.2812H20.5764V18.2891Z" fill="black"/>
<path d="M25.1489 18.2891H27.1411V20.2812H25.1489V18.2891Z" fill="black"/>
<path d="M20.5764 22.8594H22.5686V24.8516H20.5764V22.8594Z" fill="black"/>
<path d="M25.1489 22.8594H27.1411V24.8516H25.1489V22.8594Z" fill="black"/>
<path d="M20.5764 27.4375H22.5686V29.4297H20.5764V27.4375Z" fill="black"/>
<path d="M25.1489 27.4375H27.1411V29.4297H25.1489V27.4375Z" fill="black"/>
<path d="M6.85889 13.7188H8.85107V15.7109H6.85889V13.7188Z" fill="black"/>
<path d="M11.4314 18.2891H13.4236V20.2812H11.4314V18.2891Z" fill="black"/>
<path d="M6.85889 18.2891H8.85107V20.2812H6.85889V18.2891Z" fill="black"/>
<path d="M11.4314 22.8594H13.4236V24.8516H11.4314V22.8594Z" fill="black"/>
<path d="M6.85889 22.8594H8.85107V24.8516H6.85889V22.8594Z" fill="black"/>
<path d="M31.7137 32.0078V9.14507H17.9961V4.39277L15.7098 4.77381V0H4.57254V6.63007L2.2863 7.01111V32.0078H0V34H34V32.0078H31.7137ZM29.7215 11.1373V32.0078H17.9961V11.1373H29.7215ZM6.56472 1.99219H13.7176V5.10584L6.56472 6.29804V1.99219ZM4.27849 8.69875L16.0039 6.74448V9.14507V32.0078H13.4236V27.4353H6.85884V32.0078H4.27849V8.69875ZM11.4314 32.0078H8.85102V29.4275H11.4314V32.0078Z" fill="black"/>
</g>
<defs>
<clipPath id="clip0_7696_47296">
<rect width="34" height="34" fill="white"/>
</clipPath>
</defs>
</svg>
