<svg width="49" height="49" viewBox="0 0 49 49" fill="none" xmlns="http://www.w3.org/2000/svg">
<path d="M46.8895 40.981H45.2897V28.181H46.8895C47.7696 28.181 48.4893 27.4608 48.4893 26.5811C48.4893 25.701 47.7691 24.9813 46.8895 24.9813H37.2893V15.3811H38.8891C39.7692 15.3811 40.4889 14.6609 40.4889 13.7812C40.4889 12.9011 39.7688 12.1814 38.8891 12.1814H37.1932C36.4576 6.40489 31.8653 1.7971 26.0895 1.09282C25.5615 1.01263 25.0335 0.980469 24.4897 0.980469C23.9459 0.980469 23.4179 1.01262 22.8899 1.09242C17.1135 1.79667 12.522 6.4048 11.7852 12.181H10.089C9.20928 12.181 8.48917 12.9011 8.48917 13.7808C8.48917 14.661 9.20929 15.3807 10.089 15.3807H11.6888V24.9809L5.28907 24.9813H2.08906C1.20895 24.9813 0.489258 25.7014 0.489258 26.5811C0.489258 27.4612 1.20937 28.181 2.08906 28.181H3.68886V40.981H2.08906C1.20895 40.981 0.489258 41.7011 0.489258 42.5808V47.3806C0.489258 48.2608 1.20937 48.9805 2.08906 48.9805H46.889C47.7691 48.9805 48.4888 48.2603 48.4888 47.3806V42.5808C48.4891 41.7011 47.769 40.981 46.889 40.981H46.8895ZM22.8894 28.181H26.0894V40.981H22.8894V28.181ZM35.6892 28.181H37.289V40.981H34.089V28.181H35.6892ZM34.089 15.381V24.9812H14.8888V15.381H34.089ZM13.2892 28.181H14.889V40.981L11.6894 40.9806V28.1806L13.2892 28.181Z" fill="black"/>
</svg>
