<svg width="49" height="38" viewBox="0 0 49 38" fill="none" xmlns="http://www.w3.org/2000/svg">
<mask id="mask0_7831_47852" style="mask-type:luminance" maskUnits="userSpaceOnUse" x="0" y="0" width="49" height="38">
<path d="M0.890625 0.421875H48.8906V37.5832H0.890625V0.421875Z" fill="white"/>
</mask>
<g mask="url(#mask0_7831_47852)">
<path d="M40.8918 5.73264H26.2244V0.425781H40.8918V5.73264ZM32.8914 24.3067H16.8911V29.6132H32.8904L32.8914 24.3067ZM23.5582 16.3465H8.89176V21.653H23.5582V16.3465ZM40.8914 16.3465H26.224V21.653H40.8914V16.3465ZM16.891 13.6932H32.8903L32.8907 8.38664H16.8904L16.891 13.6932ZM23.558 0.426065H8.89148V5.73264H23.558V0.426065ZM6.22476 0.426065H0.891602V5.73264H6.22476V0.426065ZM14.2252 8.38664H0.891602V13.6932H14.2252V8.38664ZM6.22476 16.3465H0.891602V21.653H6.22476V16.3465ZM14.2252 24.3067H0.891602V29.6132H14.2252V24.3067ZM0.891602 37.5738H6.22476V32.2666H0.891602V37.5738ZM8.89167 37.5738H23.5581L23.5585 32.2666H8.89204L8.89167 37.5738ZM26.2249 37.5738H40.8923V32.2666H26.2249V37.5738ZM43.559 37.5738H48.8922V32.2666H43.559V37.5738ZM35.5593 29.614H48.892V24.3067H35.5593V29.614ZM43.559 21.6534H48.8922V16.3465H43.559V21.6534ZM35.5593 13.6932H48.892V8.38664H35.5593V13.6932ZM43.559 0.426065V5.73264L48.8922 5.73301V0.426152L43.559 0.426065Z" fill="black"/>
</g>
</svg>
