<svg width="48" height="48" viewBox="0 0 48 48" fill="none" xmlns="http://www.w3.org/2000/svg">
<path d="M26.8784 27.6804V24.2004C26.8784 23.2065 25.9525 22.4004 24.8108 22.4004H2.06757C0.925883 22.4004 0 23.2065 0 24.2004V27.6804C0 28.6744 0.925883 29.4804 2.06757 29.4804H24.8108C25.9525 29.4804 26.8784 28.6744 26.8784 27.6804ZM28.9459 22.8004V30.0004C28.9459 30.9944 28.0201 31.8004 26.8784 31.8004H16.5405C14.2565 31.8004 12.4054 33.412 12.4054 35.4004V37.2004C11.2637 37.2004 10.3378 38.0065 10.3378 39.0004V46.2004C10.3378 47.1944 11.2637 48.0004 12.4054 48.0004H16.5405C17.6822 48.0004 18.6081 47.1944 18.6081 46.2004V39.0004C18.6081 38.0065 17.6822 37.2004 16.5405 37.2004V35.4004H26.8784C30.3041 35.4004 33.0811 32.9828 33.0811 30.0004V26.4004C33.0811 24.412 31.23 22.8004 28.9459 22.8004Z" fill="black"/>
<path d="M37.3857 7.42857V0H1.63636C1.20237 0 0.786157 0.169775 0.47928 0.471976C0.172402 0.774178 0 1.18405 0 1.61143V19.5086C0 19.9359 0.172402 20.3458 0.47928 20.648C0.786157 20.9502 1.20237 21.12 1.63636 21.12H34.7027V35.2H46.3636C46.7976 35.2 47.2138 35.0302 47.5207 34.728C47.8276 34.4258 48 34.0159 48 33.5886V8.50286H38.4767C38.1873 8.50286 37.9099 8.38967 37.7053 8.18821C37.5007 7.98674 37.3857 7.71349 37.3857 7.42857Z" fill="black"/>
<path d="M39.5676 0.0925153V6.85512C39.5676 6.90415 39.5873 6.95118 39.6224 6.98585C39.6576 7.02052 39.7052 7.04 39.7549 7.04H46.6089C46.6274 7.04001 46.6455 7.03462 46.661 7.02449C46.6764 7.01436 46.6884 6.99996 46.6955 6.98309C46.7026 6.96623 46.7045 6.94767 46.7009 6.92974C46.6974 6.91182 46.6885 6.89534 46.6755 6.88239L39.7273 0.0268816C39.7142 0.0140039 39.6975 0.0052528 39.6793 0.00173278C39.6611 -0.00178723 39.6423 8.15406e-05 39.6252 0.00710347C39.6082 0.0141254 39.5936 0.0259856 39.5833 0.0411869C39.573 0.0563882 39.5676 0.0742492 39.5676 0.0925153Z" fill="black"/>
</svg>
