<svg width="48" height="48" viewBox="0 0 48 48" fill="none" xmlns="http://www.w3.org/2000/svg">
<path d="M47.4545 20.5714H28.3636C26.6277 20.5714 24.9628 20.0296 23.7353 19.0651C22.5078 18.1006 21.8182 16.7925 21.8182 15.4286V0.428571C21.8182 0.314907 21.7607 0.205898 21.6584 0.125526C21.5561 0.045153 21.4174 0 21.2727 0H8.72727C6.41266 0 4.19284 0.722447 2.55616 2.00841C0.919478 3.29437 0 5.03852 0 6.85714V41.1429C0 42.9615 0.919478 44.7056 2.55616 45.9916C4.19284 47.2776 6.41266 48 8.72727 48H39.2727C41.5873 48 43.8072 47.2776 45.4438 45.9916C47.0805 44.7056 48 42.9615 48 41.1429V21C48 20.8863 47.9425 20.7773 47.8402 20.697C47.7379 20.6166 47.5992 20.5714 47.4545 20.5714Z" fill="black"/>
<path d="M46.2571 16.7752L26.6466 1.367C26.6085 1.33721 26.56 1.31695 26.5073 1.30876C26.4545 1.30056 26.3998 1.3048 26.3502 1.32095C26.3005 1.33709 26.2579 1.36442 26.228 1.39949C26.198 1.43457 26.1819 1.47582 26.1816 1.51807V15.4263C26.1816 15.8809 26.4115 16.317 26.8207 16.6385C27.2298 16.96 27.7848 17.1406 28.3635 17.1406H46.0648C46.1186 17.1404 46.1711 17.1277 46.2157 17.1042C46.2604 17.0806 46.2952 17.0472 46.3157 17.0082C46.3363 16.9691 46.3417 16.9262 46.3312 16.8847C46.3208 16.8433 46.295 16.8052 46.2571 16.7752Z" fill="black"/>
</svg>
