<svg width="39" height="39" viewBox="0 0 39 39" fill="none" xmlns="http://www.w3.org/2000/svg">
<g clip-path="url(#clip0_7696_47291)">
<path d="M37.8572 32.1442H34.4294V19.0426C34.4348 19.0468 34.4407 19.0507 34.4461 19.0546C34.6481 19.2006 34.882 19.2709 35.1141 19.2709C35.4616 19.2709 35.8047 19.1129 36.0287 18.8141L38.7712 15.1585C38.9551 14.9136 39.0328 14.6053 38.9872 14.3027C38.9417 13.9998 38.7766 13.7282 38.5287 13.5485C38.346 13.4157 20.251 0.275789 20.1743 0.220147C19.7729 -0.0732335 19.2281 -0.0732335 18.827 0.219255C18.7758 0.256448 15.3231 2.76387 11.4258 5.59384V3.50387C11.4258 2.87278 10.914 2.36129 10.2832 2.36129H5.7129C5.0818 2.36129 4.57032 2.87278 4.57032 3.50387V10.5718C2.22595 12.2744 0.526658 13.5083 0.471314 13.5485C0.223458 13.7285 0.0583191 14.0001 0.0127945 14.3027C-0.0327302 14.6056 0.0449296 14.9139 0.228813 15.1588L2.9713 18.8141C3.34502 19.3125 4.04901 19.4193 4.55395 19.0548C4.5596 19.0507 4.56466 19.0468 4.57032 19.0429V32.1445H1.14258C0.511483 32.1445 0 32.656 0 33.2871C0 33.9179 0.511483 34.4294 1.14258 34.4294H10.7194L9.26114 37.3462C9.0841 37.7006 9.10314 38.121 9.31113 38.4579C9.51941 38.7947 9.88718 38.9997 10.2832 38.9997H28.6404C29.0364 38.9997 29.4042 38.7947 29.6124 38.4579C29.8207 38.121 29.8395 37.7006 29.6624 37.3462L28.2041 34.4294H37.8572C38.4883 34.4294 38.9997 33.9179 38.9997 33.2871C38.9997 32.656 38.4883 32.1442 37.8572 32.1442ZM6.85547 4.64645H9.14063V7.25326C8.36671 7.81502 7.59756 8.37352 6.85547 8.91267V4.64645ZM4.12578 16.5453L2.7532 14.7157C14.2757 6.34842 18.1765 3.51577 19.5 2.5547C22.047 4.40425 31.1954 11.0473 36.2468 14.7157L34.8743 16.5453C34.7725 16.4721 20.4221 6.11217 20.1722 5.93155C19.7717 5.64026 19.2298 5.64026 18.8293 5.93036C18.7612 5.97946 4.19422 16.4959 4.12578 16.5453ZM6.85547 17.3933C15.246 11.3359 18.35 9.09477 19.5 8.26462C21.5442 9.74045 27.8072 14.2623 32.1443 17.3931V32.1445H27.4978V21.7851C27.4978 21.154 26.9863 20.6426 26.3552 20.6426H12.5684C11.9373 20.6426 11.4258 21.154 11.4258 21.7851V32.1445H6.85547V17.3933ZM20.6426 32.1442V22.9274H25.2129V32.1442H20.6426ZM13.7109 32.1442V22.9274H18.3574V32.1442H13.7109ZM12.1319 36.7145L13.2744 34.4294H25.6491L26.7917 36.7145H12.1319Z" fill="black"/>
<path d="M19.5 18.3555C21.39 18.3555 22.9277 16.8178 22.9277 14.9277C22.9277 13.0377 21.39 11.5 19.5 11.5C17.61 11.5 16.0723 13.0377 16.0723 14.9277C16.0723 16.8178 17.61 18.3555 19.5 18.3555ZM19.5 13.7852C20.1299 13.7852 20.6426 14.2975 20.6426 14.9277C20.6426 15.5576 20.1299 16.0703 19.5 16.0703C18.8698 16.0703 18.3574 15.5576 18.3574 14.9277C18.3574 14.2975 18.8698 13.7852 19.5 13.7852Z" fill="black"/>
</g>
<defs>
<clipPath id="clip0_7696_47291">
<rect width="39" height="39" fill="white"/>
</clipPath>
</defs>
</svg>
