<svg width="48" height="48" viewBox="0 0 48 48" fill="none" xmlns="http://www.w3.org/2000/svg">
<path fill-rule="evenodd" clip-rule="evenodd" d="M14.3497 32.2767H1.05225C0.597755 32.2767 0.228693 32.6475 0.228693 33.1041V47.1725C0.228693 47.6292 0.597755 48 1.05225 48H47.1764C47.6309 48 48 47.6292 48 47.1725V40.0894C48 39.7942 47.8435 39.5211 47.5888 39.3728C47.3342 39.2246 47.0203 39.2246 46.7661 39.3712C45.9201 39.8595 44.94 40.1383 43.8957 40.1383C41.9024 40.1383 40.1441 39.1219 39.1043 37.5779C38.9817 37.396 38.7913 37.2699 38.5755 37.2288C38.3605 37.1874 38.1373 37.2346 37.9571 37.3586C37.23 37.8584 36.3501 38.1516 35.4039 38.1516C34.4524 38.1516 33.5696 37.8563 32.8409 37.352C32.4693 37.0954 31.9605 37.1874 31.7002 37.5582C30.8807 38.7302 29.525 39.4966 27.992 39.4966C25.7919 39.4966 23.956 37.9184 23.5469 35.8278C23.4925 35.5473 23.298 35.3157 23.0327 35.2138C22.7674 35.112 22.4687 35.1551 22.2418 35.3272C21.4833 35.9025 20.5395 36.2434 19.5165 36.2434C17.4276 36.2434 15.6677 34.8209 15.1445 32.8874C15.0473 32.5265 14.7211 32.2768 14.3496 32.2768L14.3497 32.2767ZM13.1661 33.9316L8.80473 46.3452H12.8232L16.1476 36.8935C15.0702 36.1876 14.2258 35.1531 13.755 33.9314L13.1661 33.9316ZM23.0385 38.6521C23.8327 39.7206 24.9603 40.5239 26.2658 40.9054L24.355 46.345H20.3366L23.039 38.6517L23.0385 38.6521ZM38.37 39.3149C38.3148 39.2537 38.2621 39.1925 38.2094 39.1297C37.3674 39.5625 36.4139 39.8065 35.404 39.8065C34.9937 39.8065 34.5928 39.7658 34.2057 39.689L31.8674 46.3454H35.8859L38.37 39.3153L38.37 39.3149ZM43.3985 46.345L45.0275 41.7074C45.4845 41.6372 45.9271 41.5247 46.353 41.3748V46.3454H43.3985V46.345ZM1.8759 44.6855L5.654 33.9308H1.8759V44.6855ZM28.565 21.1619C28.4281 20.874 28.1391 20.69 27.8211 20.69C27.5032 20.69 27.2142 20.8736 27.0773 21.1619C27.0773 21.1619 23.703 28.366 23.703 31.4485C23.703 33.7327 25.5479 35.5863 27.8211 35.5863C30.0944 35.5863 31.9393 33.7326 31.9393 31.4485C31.9393 28.3657 28.565 21.1619 28.565 21.1619ZM26.5749 29.118C26.5749 29.118 26.2198 29.6363 26.0346 30.2909C25.8887 30.8083 25.8585 31.3964 26.0743 31.9228C26.3048 32.4862 26.8083 33.0348 27.8914 33.289C28.3336 33.3925 28.7775 33.1161 28.8805 32.671C28.9835 32.2266 28.7084 31.7815 28.2653 31.6772C27.8979 31.591 27.6756 31.4842 27.5975 31.2932C27.5252 31.1154 27.5714 30.9175 27.6196 30.7429C27.7283 30.3598 27.9343 30.0551 27.9343 30.0551C28.1914 29.6777 28.0957 29.1623 27.7209 28.904C27.3453 28.6457 26.8332 28.7418 26.5753 29.1184L26.5749 29.118ZM36.2974 17.6232C36.1605 17.3345 35.8707 17.1506 35.5535 17.1506C35.2356 17.1506 34.9466 17.3341 34.8097 17.6232C34.8097 17.6232 32.7629 22.0251 32.7629 23.9071C32.7629 25.4545 34.0131 26.7111 35.5536 26.7111C37.0937 26.7111 38.3443 25.4549 38.3443 23.9071C38.3443 22.0251 36.2975 17.6232 36.2975 17.6232H36.2974ZM19.2207 14.682C19.2987 15.7017 20.005 16.6068 21.0436 16.8869L22.6363 17.3156C23.9549 17.6708 25.3097 16.8844 25.6625 15.5605C26.2743 13.2657 27.3953 9.06226 28.0072 6.7674C28.3608 5.44256 27.5789 4.08125 26.2604 3.72602L24.6693 3.29811C23.6299 3.01845 22.5681 3.44718 21.9922 4.29027L6.74027 0.184452C3.88627 -0.584304 0.948456 1.12034 0.183294 3.98802C-0.580999 6.85562 1.11475 9.80744 3.96966 10.5762L19.2207 14.682ZM24.7902 12.4362L26.4168 6.33867C26.5346 5.89681 26.2734 5.44344 25.8336 5.32476L24.2433 4.89685C23.8036 4.77858 23.3523 5.04017 23.2342 5.48204L22.3645 8.74188C22.7458 9.01332 23.0945 9.32214 23.4047 9.67449C24.0357 10.3903 24.5217 11.2899 24.7902 12.4362ZM6.50391 1.83389C6.76426 3.18123 7.70716 5.53065 11.1007 6.22345C13.3303 6.67846 16.0544 6.71501 18.451 7.20001C19.311 7.37371 20.1288 7.60533 20.8783 7.92236L21.4301 5.85258L6.50391 1.83389Z" fill="black"/>
</svg>
