<svg width="55" height="55" viewBox="0 0 55 55" fill="none" xmlns="http://www.w3.org/2000/svg">
<path d="M53.8293 5.6966H49.9286V2.94671C49.9286 1.32621 48.6118 0 47.0028 0H7.99697C6.38797 0 5.07116 1.3262 5.07116 2.94671V5.6966H1.17042C0.52685 5.6966 0 6.22659 0 6.87538C0 7.52354 0.526835 8.05415 1.17042 8.05415H5.07116V10.8034C5.07116 12.4239 6.38795 13.7501 7.99697 13.7501H47.0043C48.6133 13.7501 49.9301 12.4239 49.9301 10.8034V8.05353H52.6605V14.9185L27.0629 25.4276C26.6244 25.6043 26.3316 26.0362 26.3316 26.5175V32.4101L24.5756 32.4107C24.0397 32.4107 23.6006 32.8524 23.6006 33.3927V51.0714C23.6006 53.2419 25.3462 55 27.5013 55C29.6565 55 31.4021 53.2419 31.4021 51.0714L31.4015 33.3927C31.4015 32.8524 30.9623 32.4107 30.4264 32.4107H28.6711V27.3136L54.2687 16.8045C54.7072 16.6278 55 16.1959 55 15.7146V6.8753C55.0006 6.22651 54.4738 5.69653 53.8302 5.69653L53.8293 5.6966Z" fill="black"/>
</svg>
