<svg width="44" height="44" viewBox="0 0 44 44" fill="none" xmlns="http://www.w3.org/2000/svg">
<path d="M21.2621 3.54975H22.7383V7.23966H33.0705V0.597656H19.7861V7.23966H21.2619L21.2621 3.54975Z" fill="black"/>
<path d="M27.1663 27.1656C27.1539 26.8247 27.3765 26.5196 27.705 26.4277L40.4503 22.915V14.6196H38.9742V16.8337C38.9742 17.0292 38.8965 17.2171 38.7581 17.3555C38.6197 17.494 38.4318 17.5716 38.2362 17.5716H36.0222V19.7857C36.0222 19.9812 35.9445 20.1691 35.8061 20.3075C35.6677 20.446 35.4798 20.5236 35.2842 20.5236H25.6899V26.4277C25.6899 27.4824 25.127 28.4569 24.2137 28.9843C23.3003 29.5116 22.175 29.5116 21.2617 28.9843C20.3484 28.4569 19.7859 27.4824 19.7859 26.4277V24.9519C19.7859 24.4245 19.5046 23.9371 19.0479 23.6734C18.5913 23.4097 18.0284 23.4097 17.5718 23.6734C17.1151 23.9371 16.8338 24.4245 16.8338 24.9519V28.6418C16.8338 29.6965 16.2713 30.671 15.3577 31.1984C14.4443 31.7257 13.3193 31.7257 12.406 31.1984C11.4923 30.671 10.9298 29.6965 10.9298 28.6418V20.5236H10.1919C9.78433 20.5236 9.45401 20.1933 9.45401 19.7857V17.5716H7.23992C6.83232 17.5716 6.502 17.2413 6.502 16.8337V10.9296C6.502 10.522 6.83232 10.1917 7.23992 10.1917H9.45401V7.97757C9.45401 7.56998 9.78433 7.23966 10.1919 7.23966H10.9298V0.597656H0.597656V34.5455H24.2133V32.3314C24.2133 31.9238 24.544 31.5935 24.9516 31.5935H27.1657L27.1663 27.1656Z" fill="black"/>
<path d="M15.3589 3.54975H16.8351V7.23966H18.3109V0.597656H12.4072V7.23966H15.3588L15.3589 3.54975Z" fill="black"/>
<path d="M10.9307 8.71484H34.5472V19.047H10.9307V8.71484Z" fill="black"/>
<path d="M22.7382 27.9037C23.1297 27.9037 23.5051 27.7481 23.7819 27.4712C24.0588 27.1944 24.2141 26.819 24.2141 26.4275V20.5234H12.4062V28.6416C12.4062 29.169 12.6875 29.656 13.1442 29.9197C13.6008 30.1834 14.1633 30.1834 14.62 29.9197C15.0766 29.656 15.3579 29.169 15.3579 28.6416V24.9517C15.3579 23.897 15.9208 22.9225 16.8341 22.3952C17.7474 21.8678 18.8728 21.8678 19.7861 22.3952C20.6994 22.9225 21.2619 23.897 21.2619 24.9517V26.4275C21.2619 26.819 21.4175 27.1944 21.6944 27.4712C21.9712 27.7481 22.3466 27.9037 22.7381 27.9037H22.7382Z" fill="black"/>
<path d="M34.5467 0.597656V7.23966H35.2847C35.4802 7.23966 35.6681 7.31729 35.8065 7.45572C35.9449 7.59415 36.0226 7.78202 36.0226 7.97757V10.1917H38.2367C38.4322 10.1917 38.6201 10.2693 38.7585 10.4077C38.8969 10.5462 38.9746 10.734 38.9746 10.9296V13.1437H41.1887C41.3842 13.1437 41.5721 13.2213 41.7105 13.3597C41.849 13.4982 41.9266 13.686 41.9266 13.8816V23.476C41.939 23.8169 41.7164 24.122 41.3879 24.2139L28.6426 27.727V31.5942H30.8567H30.8563C31.0522 31.5942 31.2401 31.6718 31.3782 31.8102C31.5166 31.9487 31.5946 32.1362 31.5946 32.3321V34.5462H43.4024V0.598359L34.5467 0.597656Z" fill="black"/>
<path d="M25.6914 33.0703H30.1192V43.4025H25.6914V33.0703Z" fill="black"/>
<path d="M36.0225 11.668H37.4983V16.0958H36.0225V11.668Z" fill="black"/>
<path d="M7.97852 11.668H9.45433V16.0958H7.97852V11.668Z" fill="black"/>
</svg>
