<svg width="60" height="60" viewBox="0 0 60 60" fill="none" xmlns="http://www.w3.org/2000/svg">
<g clip-path="url(#clip0_7420_48342)">
<path d="M40.0957 21.9632C40.0957 27.5423 35.573 34.262 29.9998 34.262C24.4266 34.262 19.9043 27.5429 19.9043 21.9632C19.9043 18.3565 21.8283 15.0234 24.952 13.2199C28.0758 11.4163 31.9242 11.4163 35.048 13.2199C38.1717 15.0235 40.0957 18.3565 40.0957 21.9632Z" fill="#232323"/>
<path d="M49.1649 51.175C49.1649 51.9248 39.128 58.6851 30 58.6851C21.0375 58.6851 10.8352 52.4325 10.8352 51.175C10.8352 42.9449 21.7694 36.2734 30 36.2734C38.2306 36.2734 49.1649 42.9449 49.1649 51.175Z" fill="#232323"/>
<mask id="mask0_7420_48342" style="mask-type:luminance" maskUnits="userSpaceOnUse" x="0" y="0" width="60" height="60">
<path d="M0.479248 0.476562H59.5195V59.5168H0.479248V0.476562Z" fill="white"/>
</mask>
<g mask="url(#mask0_7420_48342)">
<path d="M29.9999 59.5149C23.1848 59.519 16.5784 57.1652 11.3015 52.8526C6.02487 48.54 2.40249 42.5346 1.04991 35.8557C-0.303255 29.1765 0.696518 22.235 3.8794 16.2092C7.06174 10.1832 12.2314 5.44402 18.5103 2.79593C25.7242 -0.251414 33.8536 -0.308133 41.1087 2.63845C48.3642 5.58466 54.1517 11.2925 57.1997 18.5068C60.2466 25.7208 60.3033 33.8502 57.3567 41.1053C54.4105 48.3608 48.7027 54.1482 41.4884 57.1963C37.8541 58.7358 33.9463 59.5249 29.9994 59.5162L29.9999 59.5149ZM29.9999 3.05515C22.8546 3.05515 16.0019 5.89378 10.9499 10.9456C5.89807 15.9979 3.05944 22.8507 3.05944 29.9956C3.05944 37.1404 5.89807 43.9925 10.9499 49.0444C16.0022 54.0968 22.855 56.9349 29.9999 56.9349C37.1447 56.9349 43.9968 54.0968 49.0487 49.0444C54.101 43.9921 56.9392 37.1394 56.9392 29.9956C56.9314 22.8527 54.0905 16.0046 49.0401 10.955C43.9895 5.90445 37.142 3.06359 29.9994 3.05585L29.9999 3.05515Z" fill="#232323"/>
</g>
</g>
<defs>
<clipPath id="clip0_7420_48342">
<rect width="60" height="60" fill="white"/>
</clipPath>
</defs>
</svg>
