<svg width="49" height="40" viewBox="0 0 49 40" fill="none" xmlns="http://www.w3.org/2000/svg">
<path fill-rule="evenodd" clip-rule="evenodd" d="M42.4826 6.43641C42.4826 6.15886 42.3718 5.89374 42.1761 5.6975L37.5846 1.10603C37.1776 0.699032 36.5179 0.699032 36.1088 1.10603L31.5174 5.6975C31.3211 5.89375 31.2129 6.15887 31.2129 6.43641V38.0585C31.2129 38.6343 31.6805 39.1019 32.2563 39.1019H41.4391C42.0149 39.1019 42.4825 38.6343 42.4825 38.0585L42.4826 6.43641Z" fill="black"/>
<path fill-rule="evenodd" clip-rule="evenodd" d="M16.9084 6.43641C16.9084 6.15886 16.7976 5.89374 16.6019 5.6975L12.0104 1.10603C11.6034 0.699032 10.9416 0.699032 10.5346 1.10603L5.94315 5.6975C5.74689 5.89375 5.63867 6.15887 5.63867 6.43641V38.0585C5.63867 38.6343 6.10625 39.1019 6.68206 39.1019H15.8649C16.4407 39.1019 16.9082 38.6343 16.9082 38.0585L16.9084 6.43641Z" fill="black"/>
<path fill-rule="evenodd" clip-rule="evenodd" d="M29.6945 6.43641C29.6945 6.15886 29.5837 5.89374 29.388 5.6975L24.7965 1.10603C24.3895 0.699032 23.7278 0.699032 23.3208 1.10603L18.7293 5.6975C18.533 5.89375 18.4248 6.15887 18.4248 6.43641V38.0585C18.4248 38.6343 18.8924 39.1019 19.4682 39.1019H28.651C29.2268 39.1019 29.6944 38.6343 29.6944 38.0585L29.6945 6.43641Z" fill="black"/>
<path fill-rule="evenodd" clip-rule="evenodd" d="M41.4379 25.8789C40.8621 25.8789 40.3945 26.3465 40.3945 26.9223V31.5138C40.3945 32.0896 40.8621 32.5572 41.4379 32.5572H47.559C48.1348 32.5572 48.6024 32.0896 48.6024 31.5138V26.9223C48.6024 26.3465 48.1348 25.8789 47.559 25.8789H41.4379Z" fill="black"/>
<path fill-rule="evenodd" clip-rule="evenodd" d="M27.3705 25.8789C26.7947 25.8789 26.3271 26.3465 26.3271 26.9223V31.5138C26.3271 32.0896 26.7947 32.5572 27.3705 32.5572H33.4936C34.0694 32.5572 34.537 32.0896 34.537 31.5138V26.9223C34.537 26.3465 34.0694 25.8789 33.4936 25.8789H27.3705Z" fill="black"/>
<path fill-rule="evenodd" clip-rule="evenodd" d="M14.6264 25.8789C14.0506 25.8789 13.583 26.3465 13.583 26.9223V31.5138C13.583 32.0896 14.0506 32.5572 14.6264 32.5572H20.7475C21.3233 32.5572 21.7909 32.0896 21.7909 31.5138V26.9223C21.7909 26.3465 21.3233 25.8789 20.7475 25.8789H14.6264Z" fill="black"/>
<path fill-rule="evenodd" clip-rule="evenodd" d="M41.4379 11.6289C40.8621 11.6289 40.3945 12.0944 40.3945 12.6723V17.2638C40.3945 17.8396 40.8621 18.3071 41.4379 18.3071H47.559C48.1348 18.3071 48.6024 17.8396 48.6024 17.2638V12.6723C48.6024 12.0944 48.1348 11.6289 47.559 11.6289H41.4379Z" fill="black"/>
<path fill-rule="evenodd" clip-rule="evenodd" d="M27.8735 11.6289C27.2977 11.6289 26.8301 12.0944 26.8301 12.6723V17.2638C26.8301 17.8396 27.2977 18.3071 27.8735 18.3071H33.9945C34.5704 18.3071 35.0379 17.8396 35.0379 17.2638V12.6723C35.0379 12.0944 34.5704 11.6289 33.9945 11.6289H27.8735Z" fill="black"/>
<path fill-rule="evenodd" clip-rule="evenodd" d="M14.308 11.6289C13.7322 11.6289 13.2646 12.0944 13.2646 12.6723V17.2638C13.2646 17.8396 13.7322 18.3071 14.308 18.3071H20.4291C21.0049 18.3071 21.4725 17.8396 21.4725 17.2638V12.6723C21.4725 12.0944 21.0049 11.6289 20.4291 11.6289H14.308Z" fill="black"/>
<path fill-rule="evenodd" clip-rule="evenodd" d="M7.72552 26.9223V31.5138C7.72552 32.0896 7.25794 32.5572 6.68213 32.5572H1.64593C1.07012 32.5572 0.602539 32.0896 0.602539 31.5138V26.9223C0.602539 26.3465 1.07012 25.8789 1.64593 25.8789H6.68213C7.25794 25.8789 7.72552 26.3465 7.72552 26.9223Z" fill="black"/>
<path fill-rule="evenodd" clip-rule="evenodd" d="M7.72552 12.6723V17.2638C7.72552 17.8396 7.25794 18.3071 6.68213 18.3071H1.64593C1.07012 18.3071 0.602539 17.8396 0.602539 17.2638V12.6723C0.602539 12.0944 1.07012 11.6289 1.64593 11.6289H6.68213C7.25794 11.6289 7.72552 12.0965 7.72552 12.6723Z" fill="black"/>
</svg>
