  <svg
        xmlns="http://www.w3.org/2000/svg"
        width="16"
        height="16"
        viewBox="0 0 16 16"
        fill="none"
      >
        <g clip-path="url(#clip0_1_58)">
          <path
            d="M15.6653 4.12377C15.4813 3.4311 14.9393 2.8851 14.2507 2.69977C13.0033 2.36377 8 2.36377 8 2.36377C8 2.36377 2.99667 2.36377 1.74867 2.69977C1.06067 2.8851 0.518667 3.43044 0.334667 4.12377C0 5.37977 0 7.99977 0 7.99977C0 7.99977 0 10.6198 0.334667 11.8758C0.518667 12.5684 1.06067 13.1144 1.74933 13.2998C2.99667 13.6358 8 13.6358 8 13.6358C8 13.6358 13.0033 13.6358 14.2513 13.2998C14.9393 13.1144 15.4813 12.5691 15.666 11.8758C16 10.6198 16 7.99977 16 7.99977C16 7.99977 16 5.37977 15.6653 4.12377ZM6.364 10.3791V5.62044L10.5453 7.99977L6.364 10.3791Z"
            fill="white"></path>
        </g>
        <defs>
          <clipPath id="clip0_1_58">
            <rect width="16" height="16" fill="white"></rect>
          </clipPath>
        </defs>
      </svg>