<svg width="49" height="24" viewBox="0 0 49 24" fill="none" xmlns="http://www.w3.org/2000/svg">
<path d="M16.4998 0.341959L14.7148 9.14447H23.6854V0.183963C23.6854 0.120967 23.6928 0.0593425 23.707 0H16.4943C16.521 0.109558 16.5246 0.225097 16.4998 0.341959Z" fill="black"/>
<path d="M34.5948 10.75H25.2999V19.7105C25.2999 19.7735 25.2926 19.8351 25.2783 19.8936H36.4509C36.4481 19.8853 36.4454 19.8776 36.4445 19.8685L34.5948 10.75Z" fill="black"/>
<path d="M35.9188 9.14494H44.7726L41.4444 0.486171C41.3323 0.194016 41.0493 0 40.7345 0H34.0635C34.0662 0.00912984 34.0681 0.0168905 34.0699 0.0251071L35.9188 9.14494Z" fill="black"/>
<path d="M23.6847 19.7105V10.75H14.3899L12.5406 19.8684C12.5388 19.8775 12.536 19.8853 12.5342 19.8935H23.7063C23.692 19.8351 23.6847 19.773 23.6847 19.7105Z" fill="black"/>
<path d="M38.0273 19.5521C38.0516 19.6689 38.0479 19.7858 38.0218 19.8935H47.8013C48.2208 19.8935 48.5616 19.5557 48.5616 19.139C48.5616 19.0321 48.5391 18.9303 48.4982 18.8381L45.3887 10.75H36.2422L38.0273 19.5521Z" fill="black"/>
<path d="M1.18477 19.894H10.9635C10.9373 19.7862 10.9336 19.6694 10.958 19.5525L12.7429 10.75L3.59638 10.7505L0.474029 18.87C0.384439 19.1019 0.41614 19.363 0.558106 19.568C0.700069 19.7716 0.934375 19.894 1.18477 19.894Z" fill="black"/>
<path d="M25.2999 9.14488H34.2704L32.4855 0.342369C32.4621 0.225507 32.4648 0.109558 32.491 0H25.2783C25.2926 0.0593437 25.2999 0.12143 25.2999 0.183963L25.2999 9.14488Z" fill="black"/>
<path d="M14.9165 0.0251071C14.9183 0.0168903 14.9201 0.00912925 14.9229 0H8.25185C7.93713 0 7.65412 0.194016 7.54201 0.486171L4.21289 9.14494H13.0676L14.9165 0.0251071Z" fill="black"/>
<path d="M25.2529 21.1055H36.3382V23.754H25.2529V21.1055Z" fill="black"/>
<path d="M12.648 23.4368C12.648 23.5491 12.6291 23.6568 12.5938 23.754H23.7342V21.1055H12.648L12.648 23.4368Z" fill="black"/>
<path d="M11.1269 21.1042H1.18419C0.919097 21.1042 0.660895 21.0513 0.423828 20.9531V22.9977C0.423828 23.4145 0.763809 23.7523 1.18419 23.7523L11.1811 23.7528C11.1466 23.6555 11.1269 23.5478 11.1269 23.4355L11.1264 21.1042L11.1269 21.1042Z" fill="black"/>
<path d="M37.8584 21.1038V23.7523H47.8006C48.221 23.7523 48.561 23.4145 48.561 22.9977V20.9531C48.3276 21.0504 48.0707 21.1042 47.8015 21.1042L37.8584 21.1038Z" fill="black"/>
</svg>
