<svg width="50" height="49" viewBox="0 0 50 49" fill="none" xmlns="http://www.w3.org/2000/svg">
<path d="M14.6238 14.5408C14.7055 14.6225 14.7055 14.7042 14.7872 14.786C14.8689 15.0311 15.0323 15.1945 15.114 15.3579C15.1957 15.6031 15.3592 15.7665 15.4409 16.0116C15.5226 16.175 15.6043 16.4202 15.686 16.5836C15.7677 16.8287 15.8494 16.9921 15.9311 17.2372C16.0128 17.4007 16.0945 17.5641 16.1762 17.7275C16.258 17.8909 16.3397 18.1361 16.4214 18.2995C16.5031 18.4629 16.5031 18.6263 16.5848 18.7897C16.6665 18.9532 16.7482 19.1983 16.7482 19.3617C16.8299 19.5251 16.8299 19.6068 16.9116 19.7703C16.9933 19.9337 16.9933 20.0971 17.0751 20.3422C17.0751 20.4239 17.1568 20.5873 17.1568 20.6691C17.2385 20.8325 17.2385 21.0776 17.2385 21.241C17.2385 21.3227 17.2385 21.4044 17.3202 21.4862C17.3202 21.7313 17.4019 21.9764 17.4019 22.2216C17.4019 22.5484 17.4019 22.957 17.3202 23.2838C17.3202 23.3655 17.3202 23.4472 17.2385 23.6106C17.2385 23.8558 17.1568 24.1009 17.1568 24.346C17.1568 24.4278 17.0751 24.5912 17.0751 24.6729C16.9933 24.918 16.9933 25.0814 16.9116 25.3266C16.9116 25.4083 16.8299 25.5717 16.7482 25.6534C16.6665 25.8168 16.5848 26.062 16.5031 26.2254C16.4214 26.3071 16.4214 26.4705 16.3397 26.5522C16.258 26.7156 16.1762 26.9608 16.0945 27.1242C16.0128 27.2059 15.9311 27.3693 15.9311 27.451C15.8494 27.6144 15.7677 27.7779 15.6043 27.9413C15.5226 28.023 15.4409 28.1047 15.3592 28.2681C15.2774 28.4315 15.114 28.595 15.0323 28.7584C14.9506 28.8401 14.8689 28.9218 14.7872 29.0035C14.6238 29.1669 14.5421 29.3303 14.3786 29.4121C14.2969 29.4938 14.2152 29.5755 14.0518 29.6572C13.8884 29.8206 13.8067 29.9023 13.6432 30.0657C13.5615 30.1474 13.3981 30.2291 13.3164 30.3109C13.153 30.3926 12.9896 30.556 12.8262 30.6377C12.7444 30.7194 12.581 30.8011 12.4993 30.8828C12.3359 30.9645 12.1725 31.128 12.0091 31.2097C11.8456 31.2914 11.7639 31.3731 11.6005 31.3731C11.4371 31.4548 11.2737 31.5365 11.1102 31.6182C10.9468 31.6999 10.8651 31.6999 10.7017 31.7816C10.5383 31.8633 10.3749 31.9451 10.2114 31.9451C9.96694 32.0236 9.80352 32.1053 9.6401 32.1053C9.47668 32.187 9.31326 32.187 9.06814 32.2687C8.90472 32.2687 8.74129 32.3504 8.57788 32.3504C8.41446 32.3504 8.25103 32.4321 8.0059 32.4321H7.51565H7.02539C7.1071 41.1733 14.2147 48.1991 22.9558 48.1991C31.6969 48.1991 38.8862 41.0915 38.8862 32.2687C38.8862 25.4063 28.4292 9.23138 22.9558 1.63281C21.2412 4.32928 17.81 9.23057 14.6238 14.5406L14.6238 14.5408ZM34.1488 34.9642C34.8025 34.9642 35.2928 35.4545 35.2928 36.1082C35.2928 36.7619 34.8025 37.2521 34.1488 37.2521C33.4951 37.2521 33.0049 36.7619 33.0049 36.1082C33.0049 35.4545 33.5768 34.9642 34.1488 34.9642ZM30.1455 38.6406C30.309 38.5589 30.5541 38.5589 30.7992 38.5589H30.8809H31.0443C31.8615 38.7223 32.4334 39.2125 32.4334 39.9479C32.4334 41.7449 26.7966 44.0328 23.4471 44.0328C18.8719 44.0328 15.1962 41.9906 15.1962 39.5393C15.1962 37.007 18.8726 40.193 23.4471 40.193C26.224 40.1113 28.6753 38.9674 30.1455 38.6406Z" fill="black"/>
<path d="M14.0517 22.1391C14.0517 21.4037 13.7248 19.525 11.3559 15.2768C9.88506 12.6627 8.16984 10.1303 7.02584 8.49609C3.83982 12.9896 0 19.4435 0 22.1393C0 25.5705 2.45065 28.5115 5.88184 29.0834C6.04526 29.0834 6.12697 29.0834 6.29039 29.1651C6.45381 29.1651 6.53552 29.1651 6.69894 29.2468C10.7022 29.4103 14.0517 26.1423 14.0517 22.1391ZM6.69894 26.6326C4.16657 26.6326 2.20547 25.5704 2.20547 24.2637C2.20547 22.9563 4.24764 24.5905 6.69894 24.5905C9.14958 24.5905 11.1924 22.9563 11.1924 24.2637C11.1924 25.5704 9.15023 26.6326 6.69894 26.6326Z" fill="black"/>
<path d="M44.3619 0C44.3619 0 39.3789 7.27101 39.46 10.212C39.5417 13.153 41.9923 15.3585 44.9333 15.2768C47.8743 15.195 50.0798 12.7444 49.9981 9.80339C49.917 6.86239 44.3619 0 44.3619 0ZM44.7704 12.9078C42.81 12.9078 41.1758 12.1724 41.1758 11.1926C41.1758 10.212 42.81 11.4377 44.7704 11.4377C46.7309 11.4377 48.3651 10.2937 48.3651 11.1926C48.2834 12.1725 46.7309 12.9078 44.7704 12.9078Z" fill="black"/>
</svg>
