<svg width="39" height="44" viewBox="0 0 39 44" fill="none" xmlns="http://www.w3.org/2000/svg">
<path d="M1.42646 38.6791C1.31922 39.0266 1.27441 39.3829 1.27441 39.7308C1.27441 41.6823 2.85618 43.3846 4.94772 43.3846C6.56512 43.3846 8.00408 42.3241 8.45979 40.7734L11.132 31.8438H3.47313L1.42646 38.6791ZM3.92275 34.8449L4.07553 34.3333C4.15963 34.0517 4.45785 33.8927 4.73697 33.9762C5.01829 34.0597 5.17842 34.3553 5.09468 34.6361L4.94154 35.147C4.87286 35.3777 4.66131 35.526 4.43214 35.526C4.38183 35.526 4.33041 35.5191 4.27973 35.5041C3.99877 35.4206 3.83902 35.1254 3.92275 34.8449ZM4.01567 36.3873C4.29699 36.4708 4.45711 36.7664 4.37338 37.0473L3.80449 38.9926C3.745 39.235 3.52795 39.3972 3.28849 39.3972C3.24662 39.3972 3.20439 39.3925 3.16178 39.3822C2.87642 39.3126 2.70197 39.0259 2.77175 38.7417C2.79342 38.6333 2.80517 38.5795 2.82133 38.5249L3.35423 36.7437C3.43833 36.4624 3.73728 36.3031 4.01567 36.3873Z" fill="black"/>
<path d="M16.9237 36.4156V31.8438H14.7969V36.8521C14.7969 37.1373 14.9041 37.4047 15.1094 37.6094L19.2029 41.6908C19.4086 41.8959 19.6855 41.9937 19.9536 41.9937C20.2217 41.9937 20.499 41.8955 20.7042 41.6908C21.1244 41.2718 21.1244 40.6035 20.7042 40.1846L16.9237 36.4156Z" fill="black"/>
<path d="M15.6721 16.1785L14.4656 14.0219C16.4408 12.3911 17.0305 9.52151 15.7349 7.20448L13.7414 3.64891L13.4645 3.14977L13.8038 2.96264C14.0899 2.80224 14.1972 2.43675 14.0363 2.15185L13.3393 0.912943C13.1784 0.627662 12.8207 0.52989 12.5261 0.690287L2.33734 6.35776C2.04243 6.51815 1.94401 6.88364 2.10523 7.16891L2.79311 8.40744C2.95396 8.69272 3.32049 8.79049 3.60658 8.63009C3.72264 8.56784 3.83906 8.50522 3.94593 8.45176L4.22321 8.9509L6.21632 12.4976C7.46761 14.7257 10.131 15.8665 12.6959 15.0106L13.3573 16.1781L3.14127 16.1785C1.4699 16.1785 0.111328 17.5242 0.111328 19.1997V27.4874C0.111328 29.154 1.4698 30.5083 3.14127 30.5083H18.7907V16.1786L15.6721 16.1785ZM3.67811 19.5026H3.23997C2.84663 19.5026 2.53409 19.1818 2.53409 18.7896C2.53409 18.4065 2.84663 18.0857 3.23997 18.0857H3.67774C4.06225 18.0857 4.38398 18.4065 4.38398 18.7896C4.38398 19.1818 4.06263 19.5026 3.67811 19.5026ZM10.6403 19.5026H6.4039C6.01056 19.5026 5.69766 19.1818 5.69766 18.7896C5.69766 18.4065 6.01056 18.0857 6.4039 18.0857H10.6403C11.0336 18.0857 11.3465 18.4065 11.3465 18.7896C11.3462 19.1818 11.0336 19.5026 10.6403 19.5026ZM12.9372 13.3627C10.9888 14.4588 8.53117 13.7458 7.44995 11.8122L6.28798 9.73582C6.14475 9.45054 6.35922 9.10301 6.68131 9.10301H14.5462C14.7786 9.10301 14.9663 9.29014 14.9839 9.5128C15.1356 11.197 14.2333 12.6586 12.9372 13.3627Z" fill="black"/>
<path d="M38.1807 22.6328H36.7928C36.4013 22.6328 36.084 22.9489 36.084 23.3396C36.084 23.7304 36.4013 24.0464 36.7928 24.0464H38.1807C38.5722 24.0464 38.8899 23.7304 38.8899 23.3396C38.8899 22.9489 38.5726 22.6328 38.1807 22.6328Z" fill="black"/>
<path d="M35.7353 25.8734C35.5388 25.5358 35.1065 25.4186 34.7668 25.6145C34.4278 25.8101 34.3114 26.2422 34.5071 26.5803L35.2009 27.7796C35.3327 28.0059 35.5707 28.133 35.8157 28.133C35.9358 28.133 36.0577 28.1026 36.1697 28.0385C36.5087 27.843 36.6248 27.4108 36.4294 27.0728L35.7353 25.8734Z" fill="black"/>
<path d="M34.7669 21.0651C34.8782 21.1292 35.0005 21.1596 35.1206 21.1596C35.3655 21.1596 35.6039 21.0332 35.7354 20.8062L36.4295 19.6076C36.6249 19.2692 36.5088 18.8371 36.1698 18.6419C35.8305 18.4467 35.3971 18.5617 35.201 18.9008L34.5072 20.0994C34.3115 20.4374 34.4275 20.8695 34.7669 21.0651Z" fill="black"/>
<path d="M23.3605 14.6602H21.2143C20.6193 14.6602 20.1367 15.141 20.1367 15.7346V30.9465C20.1367 31.5398 20.6193 32.021 21.2143 32.021H23.3605C23.9555 32.021 24.4381 31.5398 24.4381 30.9465V15.7346C24.4381 15.141 23.9555 14.6602 23.3605 14.6602ZM22.1309 23.5624C22.1309 23.855 21.893 24.0926 21.5995 24.0926C21.3057 24.0926 21.0677 23.8553 21.0677 23.5624V20.0068C21.0677 19.7142 21.3061 19.4765 21.5995 19.4765C21.893 19.4765 22.1309 19.7138 22.1309 20.0068V23.5624ZM22.1309 17.621C22.1309 17.9136 21.893 18.1512 21.5995 18.1512C21.3057 18.1512 21.0677 17.9139 21.0677 17.621V17.3291C21.0677 17.0365 21.3061 16.7988 21.5995 16.7988C21.893 16.7988 22.1309 17.0361 22.1309 17.3291V17.621Z" fill="black"/>
<path d="M33.6095 22.2547L28.7922 21.7109V21.0605C28.7922 20.4724 28.3184 20 27.7377 20H25.7803V26.6749H27.7377C28.3187 26.6749 28.7922 26.2025 28.7922 25.6231V24.9636L33.6095 24.4201C34.1633 24.3579 34.5834 23.8942 34.5834 23.3416C34.5834 22.7894 34.1636 22.317 33.6095 22.2547ZM27.7451 22.8692C27.7451 23.0673 27.589 23.2226 27.3907 23.2226C27.192 23.2226 27.0363 23.067 27.0363 22.8692V21.3988C27.0363 21.208 27.1924 21.0455 27.3907 21.0455C27.5894 21.0455 27.7451 21.2081 27.7451 21.3988V22.8692Z" fill="black"/>
</svg>
