<svg width="50" height="50" viewBox="0 0 50 50" fill="none" xmlns="http://www.w3.org/2000/svg">
<path d="M2.44209 1.22104C2.44209 1.8956 1.8956 2.44208 1.22104 2.44208C0.546992 2.44208 0 1.8956 0 1.22104C0 0.546992 0.546992 0 1.22104 0C1.8956 0 2.44209 0.546992 2.44209 1.22104Z" fill="black"/>
<path d="M7.19794 1.22104C7.19794 1.8956 6.65095 2.44208 5.9769 2.44208C5.30234 2.44208 4.75586 1.8956 4.75586 1.22104C4.75586 0.546992 5.30234 0 5.9769 0C6.65095 0 7.19794 0.546992 7.19794 1.22104Z" fill="black"/>
<path d="M11.9538 1.22104C11.9538 1.8956 11.4073 2.44208 10.7328 2.44208C10.0587 2.44208 9.51172 1.8956 9.51172 1.22104C9.51172 0.546992 10.0587 0 10.7328 0C11.4073 0 11.9538 0.546992 11.9538 1.22104Z" fill="black"/>
<path d="M21.4665 1.22104C21.4665 1.8956 20.92 2.44208 20.2455 2.44208C19.5709 2.44208 19.0244 1.8956 19.0244 1.22104C19.0244 0.546992 19.5709 0 20.2455 0C20.92 0 21.4665 0.546992 21.4665 1.22104Z" fill="black"/>
<path d="M26.2224 1.22104C26.2224 1.8956 25.6754 2.44208 25.0013 2.44208C24.3268 2.44208 23.7803 1.8956 23.7803 1.22104C23.7803 0.546992 24.3268 0 25.0013 0C25.6754 0 26.2224 0.546992 26.2224 1.22104Z" fill="black"/>
<path d="M30.9772 1.22104C30.9772 1.8956 30.4308 2.44208 29.7562 2.44208C29.0816 2.44208 28.5352 1.8956 28.5352 1.22104C28.5352 0.546992 29.0816 0 29.7562 0C30.4308 0 30.9772 0.546992 30.9772 1.22104Z" fill="black"/>
<path d="M40.489 1.22104C40.489 1.8956 39.9425 2.44208 39.2679 2.44208C38.5934 2.44208 38.0469 1.8956 38.0469 1.22104C38.0469 0.546992 38.5934 0 39.2679 0C39.9425 0 40.489 0.546992 40.489 1.22104Z" fill="black"/>
<path d="M45.2453 1.22104C45.2453 1.8956 44.6983 2.44208 44.0243 2.44208C43.3497 2.44208 42.8027 1.8956 42.8027 1.22104C42.8027 0.546992 43.3497 0 44.0243 0C44.6983 0 45.2453 0.546992 45.2453 1.22104Z" fill="black"/>
<path d="M50.0017 1.22104C50.0017 1.8956 49.4552 2.44208 48.7806 2.44208C48.1061 2.44208 47.5596 1.8956 47.5596 1.22104C47.5596 0.546992 48.1061 0 48.7806 0C49.4552 0 50.0017 0.546992 50.0017 1.22104Z" fill="black"/>
<path d="M2.44209 5.97886C2.44209 6.65291 1.8956 7.1999 1.22104 7.1999C0.546992 7.1999 0 6.65291 0 5.97886C0 5.3043 0.546992 4.75781 1.22104 4.75781C1.8956 4.75781 2.44209 5.3043 2.44209 5.97886Z" fill="black"/>
<path d="M7.19794 5.97886C7.19794 6.65291 6.65095 7.1999 5.9769 7.1999C5.30234 7.1999 4.75586 6.65291 4.75586 5.97886C4.75586 5.3043 5.30234 4.75781 5.9769 4.75781C6.65095 4.75781 7.19794 5.3043 7.19794 5.97886Z" fill="black"/>
<path d="M11.9538 5.97886C11.9538 6.65291 11.4073 7.1999 10.7328 7.1999C10.0587 7.1999 9.51172 6.65291 9.51172 5.97886C9.51172 5.3043 10.0587 4.75781 10.7328 4.75781C11.4073 4.75781 11.9538 5.3043 11.9538 5.97886Z" fill="black"/>
<path d="M21.4665 5.97886C21.4665 6.65291 20.92 7.1999 20.2455 7.1999C19.5709 7.1999 19.0244 6.65291 19.0244 5.97886C19.0244 5.3043 19.5709 4.75781 20.2455 4.75781C20.92 4.75781 21.4665 5.3043 21.4665 5.97886Z" fill="black"/>
<path d="M26.2224 5.97886C26.2224 6.65291 25.6754 7.1999 25.0013 7.1999C24.3268 7.1999 23.7803 6.65291 23.7803 5.97886C23.7803 5.3043 24.3268 4.75781 25.0013 4.75781C25.6754 4.75781 26.2224 5.3043 26.2224 5.97886Z" fill="black"/>
<path d="M30.9772 5.97886C30.9772 6.65291 30.4308 7.1999 29.7562 7.1999C29.0816 7.1999 28.5352 6.65291 28.5352 5.97886C28.5352 5.3043 29.0816 4.75781 29.7562 4.75781C30.4308 4.75781 30.9772 5.3043 30.9772 5.97886Z" fill="black"/>
<path d="M40.489 5.97886C40.489 6.65291 39.9425 7.1999 39.2679 7.1999C38.5934 7.1999 38.0469 6.65291 38.0469 5.97886C38.0469 5.3043 38.5934 4.75781 39.2679 4.75781C39.9425 4.75781 40.489 5.3043 40.489 5.97886Z" fill="black"/>
<path d="M45.2453 5.97886C45.2453 6.65291 44.6983 7.1999 44.0243 7.1999C43.3497 7.1999 42.8027 6.65291 42.8027 5.97886C42.8027 5.3043 43.3497 4.75781 44.0243 4.75781C44.6983 4.75781 45.2453 5.3043 45.2453 5.97886Z" fill="black"/>
<path d="M50.0017 5.97886C50.0017 6.65291 49.4552 7.1999 48.7806 7.1999C48.1061 7.1999 47.5596 6.65291 47.5596 5.97886C47.5596 5.3043 48.1061 4.75781 48.7806 4.75781C49.4552 4.75781 50.0017 5.3043 50.0017 5.97886Z" fill="black"/>
<path d="M2.44209 10.7328C2.44209 11.4073 1.8956 11.9538 1.22104 11.9538C0.546992 11.9538 0 11.4073 0 10.7328C0 10.0587 0.546992 9.51172 1.22104 9.51172C1.8956 9.51172 2.44209 10.0587 2.44209 10.7328Z" fill="black"/>
<path d="M7.19794 10.7328C7.19794 11.4073 6.65095 11.9538 5.9769 11.9538C5.30234 11.9538 4.75586 11.4073 4.75586 10.7328C4.75586 10.0587 5.30234 9.51172 5.9769 9.51172C6.65095 9.51172 7.19794 10.0587 7.19794 10.7328Z" fill="black"/>
<path d="M11.9538 10.7328C11.9538 11.4073 11.4073 11.9538 10.7328 11.9538C10.0587 11.9538 9.51172 11.4073 9.51172 10.7328C9.51172 10.0587 10.0587 9.51172 10.7328 9.51172C11.4073 9.51172 11.9538 10.0587 11.9538 10.7328Z" fill="black"/>
<path d="M21.4665 10.7328C21.4665 11.4073 20.92 11.9538 20.2455 11.9538C19.5709 11.9538 19.0244 11.4073 19.0244 10.7328C19.0244 10.0587 19.5709 9.51172 20.2455 9.51172C20.92 9.51172 21.4665 10.0587 21.4665 10.7328Z" fill="black"/>
<path d="M26.2224 10.7328C26.2224 11.4073 25.6754 11.9538 25.0013 11.9538C24.3268 11.9538 23.7803 11.4073 23.7803 10.7328C23.7803 10.0587 24.3268 9.51172 25.0013 9.51172C25.6754 9.51172 26.2224 10.0587 26.2224 10.7328Z" fill="black"/>
<path d="M30.9772 10.7328C30.9772 11.4073 30.4308 11.9538 29.7562 11.9538C29.0816 11.9538 28.5352 11.4073 28.5352 10.7328C28.5352 10.0587 29.0816 9.51172 29.7562 9.51172C30.4308 9.51172 30.9772 10.0587 30.9772 10.7328Z" fill="black"/>
<path d="M40.489 10.7328C40.489 11.4073 39.9425 11.9538 39.2679 11.9538C38.5934 11.9538 38.0469 11.4073 38.0469 10.7328C38.0469 10.0587 38.5934 9.51172 39.2679 9.51172C39.9425 9.51172 40.489 10.0587 40.489 10.7328Z" fill="black"/>
<path d="M45.2453 10.7328C45.2453 11.4073 44.6983 11.9538 44.0243 11.9538C43.3497 11.9538 42.8027 11.4073 42.8027 10.7328C42.8027 10.0587 43.3497 9.51172 44.0243 9.51172C44.6983 9.51172 45.2453 10.0587 45.2453 10.7328Z" fill="black"/>
<path d="M50.0017 10.7328C50.0017 11.4073 49.4552 11.9538 48.7806 11.9538C48.1061 11.9538 47.5596 11.4073 47.5596 10.7328C47.5596 10.0587 48.1061 9.51172 48.7806 9.51172C49.4552 9.51172 50.0017 10.0587 50.0017 10.7328Z" fill="black"/>
<path d="M2.44209 20.2445C2.44209 20.919 1.8956 21.4655 1.22104 21.4655C0.546992 21.4655 0 20.919 0 20.2445C0 19.5699 0.546992 19.0234 1.22104 19.0234C1.8956 19.0234 2.44209 19.5699 2.44209 20.2445Z" fill="black"/>
<path d="M7.19794 20.2445C7.19794 20.919 6.65095 21.4655 5.9769 21.4655C5.30234 21.4655 4.75586 20.919 4.75586 20.2445C4.75586 19.5699 5.30234 19.0234 5.9769 19.0234C6.65095 19.0234 7.19794 19.5699 7.19794 20.2445Z" fill="black"/>
<path d="M11.9538 20.2445C11.9538 20.919 11.4073 21.4655 10.7328 21.4655C10.0587 21.4655 9.51172 20.919 9.51172 20.2445C9.51172 19.5699 10.0587 19.0234 10.7328 19.0234C11.4073 19.0234 11.9538 19.5699 11.9538 20.2445Z" fill="black"/>
<path d="M21.4665 20.2445C21.4665 20.919 20.92 21.4655 20.2455 21.4655C19.5709 21.4655 19.0244 20.919 19.0244 20.2445C19.0244 19.5699 19.5709 19.0234 20.2455 19.0234C20.92 19.0234 21.4665 19.5699 21.4665 20.2445Z" fill="black"/>
<path d="M26.2224 20.2445C26.2224 20.919 25.6754 21.4655 25.0013 21.4655C24.3268 21.4655 23.7803 20.919 23.7803 20.2445C23.7803 19.5699 24.3268 19.0234 25.0013 19.0234C25.6754 19.0234 26.2224 19.5699 26.2224 20.2445Z" fill="black"/>
<path d="M30.9772 20.2445C30.9772 20.919 30.4308 21.4655 29.7562 21.4655C29.0816 21.4655 28.5352 20.919 28.5352 20.2445C28.5352 19.5699 29.0816 19.0234 29.7562 19.0234C30.4308 19.0234 30.9772 19.5699 30.9772 20.2445Z" fill="black"/>
<path d="M40.489 20.2445C40.489 20.919 39.9425 21.4655 39.2679 21.4655C38.5934 21.4655 38.0469 20.919 38.0469 20.2445C38.0469 19.5699 38.5934 19.0234 39.2679 19.0234C39.9425 19.0234 40.489 19.5699 40.489 20.2445Z" fill="black"/>
<path d="M45.2453 20.2445C45.2453 20.919 44.6983 21.4655 44.0243 21.4655C43.3497 21.4655 42.8027 20.919 42.8027 20.2445C42.8027 19.5699 43.3497 19.0234 44.0243 19.0234C44.6983 19.0234 45.2453 19.5699 45.2453 20.2445Z" fill="black"/>
<path d="M50.0017 20.2445C50.0017 20.919 49.4552 21.4655 48.7806 21.4655C48.1061 21.4655 47.5596 20.919 47.5596 20.2445C47.5596 19.5699 48.1061 19.0234 48.7806 19.0234C49.4552 19.0234 50.0017 19.5699 50.0017 20.2445Z" fill="black"/>
<path d="M2.44209 24.9984C2.44209 25.6724 1.8956 26.2194 1.22104 26.2194C0.546992 26.2194 0 25.6724 0 24.9984C0 24.3238 0.546992 23.7773 1.22104 23.7773C1.8956 23.7773 2.44209 24.3238 2.44209 24.9984Z" fill="black"/>
<path d="M7.19794 24.9984C7.19794 25.6724 6.65095 26.2194 5.9769 26.2194C5.30234 26.2194 4.75586 25.6724 4.75586 24.9984C4.75586 24.3238 5.30234 23.7773 5.9769 23.7773C6.65095 23.7773 7.19794 24.3238 7.19794 24.9984Z" fill="black"/>
<path d="M11.9538 24.9984C11.9538 25.6724 11.4073 26.2194 10.7328 26.2194C10.0587 26.2194 9.51172 25.6724 9.51172 24.9984C9.51172 24.3238 10.0587 23.7773 10.7328 23.7773C11.4073 23.7773 11.9538 24.3238 11.9538 24.9984Z" fill="black"/>
<path d="M21.4665 24.9984C21.4665 25.6724 20.92 26.2194 20.2455 26.2194C19.5709 26.2194 19.0244 25.6724 19.0244 24.9984C19.0244 24.3238 19.5709 23.7773 20.2455 23.7773C20.92 23.7773 21.4665 24.3238 21.4665 24.9984Z" fill="black"/>
<path d="M26.2224 24.9984C26.2224 25.6724 25.6754 26.2194 25.0013 26.2194C24.3268 26.2194 23.7803 25.6724 23.7803 24.9984C23.7803 24.3238 24.3268 23.7773 25.0013 23.7773C25.6754 23.7773 26.2224 24.3238 26.2224 24.9984Z" fill="black"/>
<path d="M30.9772 24.9984C30.9772 25.6724 30.4308 26.2194 29.7562 26.2194C29.0816 26.2194 28.5352 25.6724 28.5352 24.9984C28.5352 24.3238 29.0816 23.7773 29.7562 23.7773C30.4308 23.7773 30.9772 24.3238 30.9772 24.9984Z" fill="black"/>
<path d="M40.489 24.9984C40.489 25.6724 39.9425 26.2194 39.2679 26.2194C38.5934 26.2194 38.0469 25.6724 38.0469 24.9984C38.0469 24.3238 38.5934 23.7773 39.2679 23.7773C39.9425 23.7773 40.489 24.3238 40.489 24.9984Z" fill="black"/>
<path d="M45.2453 24.9984C45.2453 25.6724 44.6983 26.2194 44.0243 26.2194C43.3497 26.2194 42.8027 25.6724 42.8027 24.9984C42.8027 24.3238 43.3497 23.7773 44.0243 23.7773C44.6983 23.7773 45.2453 24.3238 45.2453 24.9984Z" fill="black"/>
<path d="M50.0017 24.9984C50.0017 25.6724 49.4552 26.2194 48.7806 26.2194C48.1061 26.2194 47.5596 25.6724 47.5596 24.9984C47.5596 24.3238 48.1061 23.7773 48.7806 23.7773C49.4552 23.7773 50.0017 24.3238 50.0017 24.9984Z" fill="black"/>
<path d="M2.44209 29.7562C2.44209 30.4308 1.8956 30.9772 1.22104 30.9772C0.546992 30.9772 0 30.4308 0 29.7562C0 29.0816 0.546992 28.5352 1.22104 28.5352C1.8956 28.5352 2.44209 29.0816 2.44209 29.7562Z" fill="black"/>
<path d="M7.19794 29.7562C7.19794 30.4308 6.65095 30.9772 5.9769 30.9772C5.30234 30.9772 4.75586 30.4308 4.75586 29.7562C4.75586 29.0816 5.30234 28.5352 5.9769 28.5352C6.65095 28.5352 7.19794 29.0816 7.19794 29.7562Z" fill="black"/>
<path d="M11.9538 29.7562C11.9538 30.4308 11.4073 30.9772 10.7328 30.9772C10.0587 30.9772 9.51172 30.4308 9.51172 29.7562C9.51172 29.0816 10.0587 28.5352 10.7328 28.5352C11.4073 28.5352 11.9538 29.0816 11.9538 29.7562Z" fill="black"/>
<path d="M21.4665 29.7562C21.4665 30.4308 20.92 30.9772 20.2455 30.9772C19.5709 30.9772 19.0244 30.4308 19.0244 29.7562C19.0244 29.0816 19.5709 28.5352 20.2455 28.5352C20.92 28.5352 21.4665 29.0816 21.4665 29.7562Z" fill="black"/>
<path d="M26.2224 29.7562C26.2224 30.4308 25.6754 30.9772 25.0013 30.9772C24.3268 30.9772 23.7803 30.4308 23.7803 29.7562C23.7803 29.0816 24.3268 28.5352 25.0013 28.5352C25.6754 28.5352 26.2224 29.0816 26.2224 29.7562Z" fill="black"/>
<path d="M30.9772 29.7562C30.9772 30.4308 30.4308 30.9772 29.7562 30.9772C29.0816 30.9772 28.5352 30.4308 28.5352 29.7562C28.5352 29.0816 29.0816 28.5352 29.7562 28.5352C30.4308 28.5352 30.9772 29.0816 30.9772 29.7562Z" fill="black"/>
<path d="M40.489 29.7562C40.489 30.4308 39.9425 30.9772 39.2679 30.9772C38.5934 30.9772 38.0469 30.4308 38.0469 29.7562C38.0469 29.0816 38.5934 28.5352 39.2679 28.5352C39.9425 28.5352 40.489 29.0816 40.489 29.7562Z" fill="black"/>
<path d="M45.2453 29.7562C45.2453 30.4308 44.6983 30.9772 44.0243 30.9772C43.3497 30.9772 42.8027 30.4308 42.8027 29.7562C42.8027 29.0816 43.3497 28.5352 44.0243 28.5352C44.6983 28.5352 45.2453 29.0816 45.2453 29.7562Z" fill="black"/>
<path d="M50.0017 29.7562C50.0017 30.4308 49.4552 30.9772 48.7806 30.9772C48.1061 30.9772 47.5596 30.4308 47.5596 29.7562C47.5596 29.0816 48.1061 28.5352 48.7806 28.5352C49.4552 28.5352 50.0017 29.0816 50.0017 29.7562Z" fill="black"/>
<path d="M2.44209 39.2679C2.44209 39.9425 1.8956 40.489 1.22104 40.489C0.546992 40.489 0 39.9425 0 39.2679C0 38.5934 0.546992 38.0469 1.22104 38.0469C1.8956 38.0469 2.44209 38.5934 2.44209 39.2679Z" fill="black"/>
<path d="M7.19794 39.2679C7.19794 39.9425 6.65095 40.489 5.9769 40.489C5.30234 40.489 4.75586 39.9425 4.75586 39.2679C4.75586 38.5934 5.30234 38.0469 5.9769 38.0469C6.65095 38.0469 7.19794 38.5934 7.19794 39.2679Z" fill="black"/>
<path d="M11.9538 39.2679C11.9538 39.9425 11.4073 40.489 10.7328 40.489C10.0587 40.489 9.51172 39.9425 9.51172 39.2679C9.51172 38.5934 10.0587 38.0469 10.7328 38.0469C11.4073 38.0469 11.9538 38.5934 11.9538 39.2679Z" fill="black"/>
<path d="M21.4665 39.2679C21.4665 39.9425 20.92 40.489 20.2455 40.489C19.5709 40.489 19.0244 39.9425 19.0244 39.2679C19.0244 38.5934 19.5709 38.0469 20.2455 38.0469C20.92 38.0469 21.4665 38.5934 21.4665 39.2679Z" fill="black"/>
<path d="M26.2224 39.2679C26.2224 39.9425 25.6754 40.489 25.0013 40.489C24.3268 40.489 23.7803 39.9425 23.7803 39.2679C23.7803 38.5934 24.3268 38.0469 25.0013 38.0469C25.6754 38.0469 26.2224 38.5934 26.2224 39.2679Z" fill="black"/>
<path d="M30.9772 39.2679C30.9772 39.9425 30.4308 40.489 29.7562 40.489C29.0816 40.489 28.5352 39.9425 28.5352 39.2679C28.5352 38.5934 29.0816 38.0469 29.7562 38.0469C30.4308 38.0469 30.9772 38.5934 30.9772 39.2679Z" fill="black"/>
<path d="M40.489 39.2679C40.489 39.9425 39.9425 40.489 39.2679 40.489C38.5934 40.489 38.0469 39.9425 38.0469 39.2679C38.0469 38.5934 38.5934 38.0469 39.2679 38.0469C39.9425 38.0469 40.489 38.5934 40.489 39.2679Z" fill="black"/>
<path d="M45.2453 39.2679C45.2453 39.9425 44.6983 40.489 44.0243 40.489C43.3497 40.489 42.8027 39.9425 42.8027 39.2679C42.8027 38.5934 43.3497 38.0469 44.0243 38.0469C44.6983 38.0469 45.2453 38.5934 45.2453 39.2679Z" fill="black"/>
<path d="M50.0017 39.2679C50.0017 39.9425 49.4552 40.489 48.7806 40.489C48.1061 40.489 47.5596 39.9425 47.5596 39.2679C47.5596 38.5934 48.1061 38.0469 48.7806 38.0469C49.4552 38.0469 50.0017 38.5934 50.0017 39.2679Z" fill="black"/>
<path d="M2.44209 44.0223C2.44209 44.6964 1.8956 45.2434 1.22104 45.2434C0.546992 45.2434 0 44.6964 0 44.0223C0 43.3478 0.546992 42.8008 1.22104 42.8008C1.8956 42.8008 2.44209 43.3478 2.44209 44.0223Z" fill="black"/>
<path d="M7.19794 44.0223C7.19794 44.6964 6.65095 45.2434 5.9769 45.2434C5.30234 45.2434 4.75586 44.6964 4.75586 44.0223C4.75586 43.3478 5.30234 42.8008 5.9769 42.8008C6.65095 42.8008 7.19794 43.3478 7.19794 44.0223Z" fill="black"/>
<path d="M11.9538 44.0223C11.9538 44.6964 11.4073 45.2434 10.7328 45.2434C10.0587 45.2434 9.51172 44.6964 9.51172 44.0223C9.51172 43.3478 10.0587 42.8008 10.7328 42.8008C11.4073 42.8008 11.9538 43.3478 11.9538 44.0223Z" fill="black"/>
<path d="M21.4665 44.0223C21.4665 44.6964 20.92 45.2434 20.2455 45.2434C19.5709 45.2434 19.0244 44.6964 19.0244 44.0223C19.0244 43.3478 19.5709 42.8008 20.2455 42.8008C20.92 42.8008 21.4665 43.3478 21.4665 44.0223Z" fill="black"/>
<path d="M26.2224 44.0223C26.2224 44.6964 25.6754 45.2434 25.0013 45.2434C24.3268 45.2434 23.7803 44.6964 23.7803 44.0223C23.7803 43.3478 24.3268 42.8008 25.0013 42.8008C25.6754 42.8008 26.2224 43.3478 26.2224 44.0223Z" fill="black"/>
<path d="M30.9772 44.0223C30.9772 44.6964 30.4308 45.2434 29.7562 45.2434C29.0816 45.2434 28.5352 44.6964 28.5352 44.0223C28.5352 43.3478 29.0816 42.8008 29.7562 42.8008C30.4308 42.8008 30.9772 43.3478 30.9772 44.0223Z" fill="black"/>
<path d="M40.489 44.0223C40.489 44.6964 39.9425 45.2434 39.2679 45.2434C38.5934 45.2434 38.0469 44.6964 38.0469 44.0223C38.0469 43.3478 38.5934 42.8008 39.2679 42.8008C39.9425 42.8008 40.489 43.3478 40.489 44.0223Z" fill="black"/>
<path d="M45.2453 44.0223C45.2453 44.6964 44.6983 45.2434 44.0243 45.2434C43.3497 45.2434 42.8027 44.6964 42.8027 44.0223C42.8027 43.3478 43.3497 42.8008 44.0243 42.8008C44.6983 42.8008 45.2453 43.3478 45.2453 44.0223Z" fill="black"/>
<path d="M50.0017 44.0223C50.0017 44.6964 49.4552 45.2434 48.7806 45.2434C48.1061 45.2434 47.5596 44.6964 47.5596 44.0223C47.5596 43.3478 48.1061 42.8008 48.7806 42.8008C49.4552 42.8008 50.0017 43.3478 50.0017 44.0223Z" fill="black"/>
<path d="M2.44209 48.7796C2.44209 49.4542 1.8956 50.0007 1.22104 50.0007C0.546992 50.0007 0 49.4542 0 48.7796C0 48.1051 0.546992 47.5586 1.22104 47.5586C1.8956 47.5586 2.44209 48.1051 2.44209 48.7796Z" fill="black"/>
<path d="M7.19794 48.7796C7.19794 49.4542 6.65095 50.0007 5.9769 50.0007C5.30234 50.0007 4.75586 49.4542 4.75586 48.7796C4.75586 48.1051 5.30234 47.5586 5.9769 47.5586C6.65095 47.5586 7.19794 48.1051 7.19794 48.7796Z" fill="black"/>
<path d="M11.9538 48.7796C11.9538 49.4542 11.4073 50.0007 10.7328 50.0007C10.0587 50.0007 9.51172 49.4542 9.51172 48.7796C9.51172 48.1051 10.0587 47.5586 10.7328 47.5586C11.4073 47.5586 11.9538 48.1051 11.9538 48.7796Z" fill="black"/>
<path d="M21.4665 48.7796C21.4665 49.4542 20.92 50.0007 20.2455 50.0007C19.5709 50.0007 19.0244 49.4542 19.0244 48.7796C19.0244 48.1051 19.5709 47.5586 20.2455 47.5586C20.92 47.5586 21.4665 48.1051 21.4665 48.7796Z" fill="black"/>
<path d="M26.2224 48.7796C26.2224 49.4542 25.6754 50.0007 25.0013 50.0007C24.3268 50.0007 23.7803 49.4542 23.7803 48.7796C23.7803 48.1051 24.3268 47.5586 25.0013 47.5586C25.6754 47.5586 26.2224 48.1051 26.2224 48.7796Z" fill="black"/>
<path d="M30.9772 48.7796C30.9772 49.4542 30.4308 50.0007 29.7562 50.0007C29.0816 50.0007 28.5352 49.4542 28.5352 48.7796C28.5352 48.1051 29.0816 47.5586 29.7562 47.5586C30.4308 47.5586 30.9772 48.1051 30.9772 48.7796Z" fill="black"/>
<path d="M40.489 48.7796C40.489 49.4542 39.9425 50.0007 39.2679 50.0007C38.5934 50.0007 38.0469 49.4542 38.0469 48.7796C38.0469 48.1051 38.5934 47.5586 39.2679 47.5586C39.9425 47.5586 40.489 48.1051 40.489 48.7796Z" fill="black"/>
<path d="M45.2453 48.7796C45.2453 49.4542 44.6983 50.0007 44.0243 50.0007C43.3497 50.0007 42.8027 49.4542 42.8027 48.7796C42.8027 48.1051 43.3497 47.5586 44.0243 47.5586C44.6983 47.5586 45.2453 48.1051 45.2453 48.7796Z" fill="black"/>
<path d="M50.0017 48.7796C50.0017 49.4542 49.4552 50.0007 48.7806 50.0007C48.1061 50.0007 47.5596 49.4542 47.5596 48.7796C47.5596 48.1051 48.1061 47.5586 48.7806 47.5586C49.4552 47.5586 50.0017 48.1051 50.0017 48.7796Z" fill="black"/>
</svg>
