<svg width="38" height="38" viewBox="0 0 38 38" fill="none" xmlns="http://www.w3.org/2000/svg">
<path d="M15.6749 31.9453H22.325V38.0009H15.6749V31.9453Z" fill="#232323"/>
<path d="M7.71912 31.9453H14.3692V38.0009H7.71912V31.9453Z" fill="#232323"/>
<path d="M0 31.9453H6.41237V38.0009H0V31.9453Z" fill="#232323"/>
<path d="M30.0441 29.921V0.117188L24.1067 1.30469C29.2128 26.24 29.9254 29.4455 30.0441 29.9207V29.921Z" fill="#232323"/>
<path d="M27.9066 30.0382H28.1442L23.6317 9.14062L19.4756 10.9217C20.4255 12.8215 16.5067 3.67833 27.9065 30.0383L27.9066 30.0382Z" fill="#232323"/>
<path d="M35.6257 34.9079C35.6257 35.3013 35.3065 35.6205 34.9131 35.6205C34.5196 35.6205 34.2004 35.3013 34.2004 34.9079C34.2004 34.5145 34.5196 34.1953 34.9131 34.1953C35.3065 34.1953 35.6257 34.5145 35.6257 34.9079Z" fill="#232323"/>
<path d="M23.6316 31.9453V38.0012H30.2817V31.9457C30.1627 31.9453 23.2753 31.9453 23.6316 31.9453Z" fill="#232323"/>
<path d="M31.944 15.6719H38V22.3213H31.944V15.6719Z" fill="#232323"/>
<path d="M31.944 7.72656H38V14.376H31.944V7.72656Z" fill="#232323"/>
<path d="M31.944 0H38V6.4118H31.944V0Z" fill="#232323"/>
<path d="M31.944 23.6328H38V30.2823H31.944V23.6328Z" fill="#232323"/>
<path d="M31.5875 37.9977H37.9999V31.5859H31.5875V37.9977ZM34.9124 33.0108C35.9811 33.0108 36.931 33.9606 36.931 35.0292C36.931 36.0977 35.9811 37.0476 34.9124 37.0476C33.8438 37.0476 32.8938 36.0977 32.8938 35.0292C33.0125 33.842 33.8438 33.0108 34.9124 33.0108Z" fill="#232323"/>
</svg>
