<svg width="49" height="49" viewBox="0 0 49 49" fill="none" xmlns="http://www.w3.org/2000/svg">
<path d="M10.25 21.5H2.75C1.50734 21.5 0.5 22.5073 0.5 23.75V46.25C0.5 47.4927 1.50734 48.5 2.75 48.5H10.25C11.4927 48.5 12.5 47.4927 12.5 46.25V23.75C12.5 22.5073 11.4927 21.5 10.25 21.5ZM6.5 44.75C5.25735 44.75 4.25 43.7427 4.25 42.5C4.25 41.2573 5.25735 40.25 6.5 40.25C7.74266 40.25 8.75001 41.2573 8.75001 42.5C8.75001 43.7427 7.74266 44.75 6.5 44.75ZM36.5 8.13613C36.5 12.1126 34.0653 14.3431 33.3803 17H42.9168C46.0478 17 48.4853 19.6012 48.4999 22.4467C48.5078 24.1284 47.7925 25.9388 46.6775 27.0589L46.6672 27.0692C47.5893 29.2571 47.4394 32.3227 45.7946 34.5194C46.6084 36.9471 45.7881 39.9292 44.2588 41.5279C44.6617 43.1777 44.4692 44.5818 43.6824 45.7122C41.769 48.4613 37.0265 48.5 33.0162 48.5L32.7495 48.4999C28.2225 48.4983 24.5176 46.8501 21.5407 45.5257C20.0447 44.8602 18.0887 44.0363 16.6047 44.009C15.9915 43.9977 15.5 43.4974 15.5 42.8842V22.8433C15.5 22.5433 15.6202 22.2553 15.8336 22.0444C19.5474 18.3747 21.1443 14.4894 24.1883 11.4403C25.5762 10.0498 26.0809 7.94938 26.5689 5.91819C26.9858 4.18372 27.8579 0.5 29.75 0.5C32 0.5 36.5 1.25 36.5 8.13613Z" fill="black"/>
</svg>
