<svg width="48" height="52" viewBox="0 0 48 52" fill="none" xmlns="http://www.w3.org/2000/svg">
<path d="M43.7549 49.2829C40.6671 49.2829 38.5926 46.0297 39.928 43.1734L43.2036 36.1303C43.4061 35.6961 44.1036 35.6961 44.3061 36.1303L47.5894 43.1734C48.9119 46.0007 46.882 49.2829 43.7549 49.2829Z" fill="black"/>
<path d="M26.5676 17.0227L25.3193 15.7617L25.5301 23.7385C25.7409 23.5991 25.976 23.5339 26.2271 23.5339C26.4054 23.5339 26.5758 23.5667 26.7381 23.632L26.5676 17.0227Z" fill="black"/>
<path d="M27.8647 20.0684L27.9376 22.9514C27.9784 22.9921 28.027 23.0333 28.0673 23.0741C29.0809 24.098 29.0809 25.7603 28.0673 26.7842C27.0537 27.8082 25.4081 27.8081 24.3945 26.7842C23.4134 25.7931 23.3809 24.2127 24.2973 23.1805L24.1191 16.2847L19.0925 11.207L16.7494 13.5739V13.5822L13.2874 17.0711L1.88071 28.5937C0.672763 29.8139 0 31.4437 0 33.1717C0 34.8997 0.672718 36.5213 1.88071 37.7415L14.1146 50.1075C15.3307 51.3278 16.936 51.9994 18.6466 51.9994C20.3572 51.9994 21.9624 51.3277 23.1786 50.1075L40.3902 32.7211L27.8647 20.0684Z" fill="black"/>
<path d="M24.0708 14.4983L19.8466 10.2317C18.5576 8.9296 18.5576 6.81644 19.8466 5.51422C20.9171 4.43289 22.4594 4.30363 23.5841 4.85087C23.7463 5.2522 23.8352 5.6864 23.8517 6.13683L24.0708 14.4983Z" fill="black"/>
<path d="M46.0255 31.9628C44.7447 33.2566 42.6528 33.2733 41.3477 31.9628L27.817 18.2946V18.2862L27.5654 8.59766L46.0261 27.237C47.3151 28.5475 47.3151 30.6606 46.0261 31.9628L46.0255 31.9628Z" fill="black"/>
<path d="M26.7631 24.4671C26.7713 24.811 26.5037 25.0897 26.1715 25.0976H26.1554C25.8232 25.0976 25.5556 24.8356 25.5473 24.4995C25.2363 12.5238 25.3435 16.6547 25.3205 15.7613L25.0685 6.10604C25.0282 4.74651 24.4604 3.49341 23.4794 2.56806C22.4983 1.6506 21.2418 1.17566 19.888 1.23309C17.2128 1.33956 15.1126 3.55084 15.1126 6.25331C15.1126 6.34357 15.1126 6.44171 15.1209 6.53197L15.5021 13.1002L14.3424 14.2713L13.9047 6.61385C13.8965 6.50738 13.8965 6.37638 13.8965 6.2537C13.8965 2.8879 16.5071 0.144262 19.8391 0.00495475C21.5094 -0.0607664 23.0903 0.528973 24.306 1.67563C25.5304 2.82228 26.2357 4.3781 26.2842 6.07368L26.5679 17.0232C26.5705 17.1082 26.7757 24.9574 26.7631 24.4671Z" fill="black"/>
</svg>
