<svg width="48" height="48" viewBox="0 0 48 48" fill="none" xmlns="http://www.w3.org/2000/svg">
<path d="M47.5497 23.365L44.2584 26.664C43.9675 26.9595 43.5698 27.1259 43.1552 27.1259C42.7402 27.1259 42.3424 26.9595 42.0515 26.664L21.6773 5.56934C21.3933 5.27998 21.2346 4.89071 21.2346 4.48524C21.2346 4.07978 21.3933 3.69056 21.6773 3.40085L24.6354 0.450372C24.9255 0.162162 25.3182 0 25.7275 0C26.1364 0 26.5291 0.162162 26.8193 0.450372L47.5496 21.181C47.8382 21.4712 48 21.8639 48 22.2732C48 22.6821 47.8382 23.0748 47.5496 23.365H47.5497ZM39.8985 28.871L20.0506 8.36458C19.614 7.92228 19.0184 7.67327 18.397 7.67327C17.7756 7.67327 17.1804 7.92228 16.7438 8.36458L15.5745 9.54165L25.8044 19.7412C26.0953 20.0191 26.2716 20.3956 26.2989 20.7968C26.3258 21.198 26.2021 21.5949 25.9515 21.9093C25.6706 22.236 25.266 22.4308 24.8356 22.4469C24.4052 22.4631 23.9871 22.2994 23.6824 21.9946L13.3826 11.7026L0.450365 24.635C0.162159 24.9251 0 25.3179 0 25.7272C0 26.1361 0.162159 26.5288 0.450365 26.819L21.1807 47.5496C21.4708 47.8382 21.8636 48 22.2729 48C22.6817 48 23.0744 47.8382 23.3646 47.5496L39.8826 31.0393C40.1685 30.7518 40.3303 30.3637 40.3329 29.9583C40.336 29.5529 40.18 29.1625 39.8979 28.8708L39.8985 28.871ZM12.3145 6.25837C12.0716 6.0155 11.9452 5.68003 11.9675 5.33725C11.9897 4.99485 12.1584 4.67859 12.4305 4.46916C12.9385 4.11447 13.6291 4.18365 14.0567 4.63209L14.831 5.40641C15.2211 5.79915 15.7913 5.95401 16.3266 5.8126C16.8619 5.67118 17.2811 5.255 17.426 4.72082C17.5713 4.18629 17.4207 3.61528 17.0302 3.22257L16.3024 2.49474V2.49436C15.5723 1.73733 14.5994 1.26044 13.5534 1.14711C12.2906 1.0372 11.0437 1.49104 10.1472 2.38752C9.25105 3.28367 8.79679 4.53063 8.90717 5.79338C9.02053 6.83941 9.49741 7.81234 10.2544 8.54249L13.3985 11.6867L15.59 9.49515L12.3145 6.25837ZM45.6829 43.3607C46.6997 42.3439 47.2711 40.9651 47.2711 39.5271C47.2711 38.0895 46.6997 36.7103 45.6829 35.6939L42.9415 32.9525C42.6514 32.6639 42.259 32.5021 41.8497 32.5021C41.4405 32.5021 41.0482 32.6639 40.7576 32.9525L38.0162 35.6939C36.647 37.0635 36.1122 39.0594 36.6132 40.9301C37.1147 42.8012 38.5757 44.2622 40.4467 44.7637C42.3174 45.2648 44.3133 44.7299 45.6829 43.3607Z" fill="black"/>
</svg>
