<svg width="48" height="48" viewBox="0 0 48 48" fill="none" xmlns="http://www.w3.org/2000/svg">
<path d="M27.5654 30.3438L31.808 26.1012L43.8004 38.0936L39.5578 42.3362L27.5654 30.3438Z" fill="black"/>
<path d="M35.0002 20.0016C38.8602 20.0016 42.0002 16.8616 42.0002 13.0016C42.0002 11.8416 41.6802 10.7616 41.1802 9.80156L35.7802 15.2016L32.8002 12.2216L38.2002 6.82156C37.2402 6.32156 36.1602 6.00156 35.0002 6.00156C31.1402 6.00156 28.0002 9.14156 28.0002 13.0016C28.0002 13.8216 28.1602 14.6016 28.4202 15.3216L24.7202 19.0216L21.1602 15.4616L22.5802 14.0416L19.7602 11.2216L24.0002 6.98156C21.6602 4.64156 17.8602 4.64156 15.5202 6.98156L8.4402 14.0616L11.2602 16.8816H5.6202L4.2002 18.3016L11.2802 25.3816L12.7002 23.9616V18.3016L15.5202 21.1216L16.9402 19.7016L20.5002 23.2616L5.6802 38.0816L9.9202 42.3216L32.6802 19.5816C33.4002 19.8416 34.1802 20.0016 35.0002 20.0016Z" fill="black"/>
</svg>
