<svg width="41" height="48" viewBox="0 0 41 48" fill="none" xmlns="http://www.w3.org/2000/svg">
<path fill-rule="evenodd" clip-rule="evenodd" d="M33.8728 10.2853H37.2157V20.5713H18.8303C17.9445 20.5713 17.0935 20.9328 16.4668 21.5759C15.8402 22.2186 15.4873 23.0914 15.4873 23.9999V30.8573H13.8161C12.8934 30.8573 12.1449 31.6254 12.1449 32.5714V42.8573C12.1449 45.696 14.3913 48 17.159 48C19.9267 48 22.1731 45.696 22.1731 42.8573V32.5714C22.1731 31.625 21.4241 30.8573 20.5019 30.8573H18.8306V23.9999H37.2161C39.0631 23.9999 40.5589 22.4657 40.5589 20.5713V10.2854C40.5589 8.39099 39.0631 6.85679 37.2161 6.85679H33.8732V5.1427C33.8732 2.30403 31.6268 0 28.8591 0H5.45845C2.69076 0 0.444336 2.30403 0.444336 5.1427V12C0.444336 14.8387 2.69076 17.1427 5.45845 17.1427H28.8591C31.6268 17.1427 33.8732 14.8387 33.8732 12V10.2859L33.8728 10.2853ZM15.4874 34.286H18.8303V42.8575C18.8303 43.8038 18.0813 44.5715 17.159 44.5715C16.2363 44.5715 15.4878 43.8034 15.4878 42.8575V34.286H15.4874Z" fill="black"/>
</svg>
