<svg width="48" height="48" viewBox="0 0 48 48" fill="none" xmlns="http://www.w3.org/2000/svg">
<path d="M40.002 17.6017V4.75247C40.0008 3.49245 39.4998 2.28436 38.609 1.39346C37.7181 0.502566 36.5101 0.0016261 35.2499 0H4.75248C3.49245 0.00158788 2.28436 0.502596 1.39346 1.39346C0.502566 2.28433 0.0016261 3.49235 0 4.75247V27.3613C0.00198496 28.6211 0.502992 29.8286 1.39387 30.7195C2.28475 31.6104 3.49276 32.1118 4.75248 32.1134H7.88871V38.4018C7.88911 38.7127 7.98002 39.0168 8.15073 39.2768C8.32104 39.5368 8.5636 39.7417 8.84865 39.866C9.05032 39.9553 9.26827 40.0017 9.48861 40.0017C9.88918 40.0017 10.2751 39.8517 10.5705 39.5809L17.6013 33.1392V24.4648C17.6053 22.6458 18.3298 20.9021 19.6165 19.6159C20.9027 18.3292 22.6463 17.6047 24.4654 17.6007L40.002 17.6017Z" fill="#232323"/>
<path d="M44.3385 20.7969H24.4656C23.4941 20.7977 22.5627 21.184 21.8756 21.8707C21.1888 22.5579 20.8025 23.4893 20.8018 24.4607V39.1972C20.8026 40.1687 21.1888 41.1004 21.8756 41.7872C22.5628 42.4744 23.4942 42.8606 24.4656 42.8614H35.0261L40.183 47.5785H40.1834C40.4792 47.8489 40.8658 47.9985 41.2664 47.9977C41.4871 47.9974 41.7051 47.9513 41.9068 47.8616C42.1914 47.7373 42.434 47.5325 42.6047 47.2724C42.775 47.0124 42.8663 46.7083 42.8667 46.3975V42.8614H44.3387C45.3102 42.8606 46.242 42.4743 46.9287 41.7872C47.6159 41.1004 48.0021 40.1686 48.0029 39.1972V24.4607C48.0021 23.4892 47.6159 22.5578 46.9287 21.8707C46.2419 21.1839 45.3101 20.7976 44.3387 20.7969L44.3385 20.7969Z" fill="#232323"/>
</svg>
