<svg width="36" height="48" viewBox="0 0 36 48" fill="none" xmlns="http://www.w3.org/2000/svg">
<path d="M14.2415 36.4023C14.2415 33.5985 12.2769 31.5982 10.5445 29.8313L10.3978 29.682C8.05762 27.2819 7.94188 25.151 7.9385 25.068C7.93 24.7379 7.72839 24.444 7.42598 24.3215C7.12271 24.1982 6.77692 24.2692 6.54468 24.5014C6.4443 24.6018 4.06416 26.9982 2.19818 30.0559C0.739661 32.4433 0 34.5785 0 36.4023C0 41.2384 2.5954 44.0111 7.12134 44.0111C7.27403 44.0111 7.428 44.0103 7.52924 44.0001C11.7949 43.8414 14.2415 41.072 14.2415 36.4023ZM7.12096 41.1733C4.11049 41.1733 2.76847 39.7016 2.76847 36.4023C2.76847 35.9447 3.13469 35.5742 3.58724 35.5742C4.03979 35.5742 4.406 35.9447 4.406 36.4023C4.406 39.0526 5.28135 39.5188 7.12216 39.5188C7.57386 39.5188 7.94092 39.8892 7.94092 40.3469C7.9388 40.8037 7.57181 41.1733 7.12096 41.1733Z" fill="black"/>
<path d="M19.6091 0.239344C19.3777 0.00711298 19.0315 -0.0630636 18.7295 0.0594328C18.4271 0.181929 18.2255 0.473285 18.2153 0.80334C18.2136 0.862461 17.966 6.90006 11.5311 13.4863L11.2053 13.8189C7.58148 17.5151 3.56121 21.6302 2.4043 26.8351C3.85465 24.8926 5.19362 23.5248 5.38885 23.327C5.85587 22.8599 6.46878 22.6052 7.11959 22.6052C7.43518 22.6052 7.74356 22.6651 8.03661 22.7842C8.94427 23.1538 9.54871 24.0322 9.57332 25.0224C9.57587 25.0411 9.71368 26.6217 11.5609 28.5169L11.7034 28.662C13.5634 30.5572 15.8768 32.9145 15.8768 36.3996C15.8768 41.3378 13.3278 44.6864 9.12673 45.4741C11.7774 47.1458 15.0912 48.0002 19.034 48.0002C25.3702 48.0002 36.0006 45.6337 36.0006 29.7891C36.0006 16.7968 20.2786 0.909318 19.6089 0.239672L19.6091 0.239344ZM16.4403 43.0358C15.9886 43.0358 15.6215 42.6653 15.6215 42.2076C15.6215 41.7508 15.9878 41.3795 16.4403 41.3795C16.892 41.3795 17.2582 41.7508 17.2582 42.2076C17.2578 42.6653 16.892 43.0358 16.4403 43.0358ZM19.034 43.1404C18.5823 43.1404 18.2152 42.7699 18.2152 42.3131C18.2152 41.8554 18.5823 41.485 19.034 41.485C26.5348 41.485 29.7354 38.0245 29.7354 29.9126C29.7354 29.455 30.1016 29.0845 30.5541 29.0845C31.0058 29.0845 31.3729 29.4549 31.3729 29.9126C31.3716 38.9378 27.4513 43.14 19.034 43.14V43.1404Z" fill="black"/>
</svg>
