<svg width="38" height="38" viewBox="0 0 38 38" fill="none" xmlns="http://www.w3.org/2000/svg">
<path d="M15.6749 31.9449H22.325V38.0004H15.6749V31.9449Z" fill="#232323"/>
<path d="M7.71912 31.9449H14.3692V38.0004H7.71912V31.9449Z" fill="#232323"/>
<path d="M0 31.9449H6.41237V38.0004H0V31.9449Z" fill="#232323"/>
<path d="M30.0441 29.9207V0.116913L24.1067 1.30442C29.2128 26.2398 29.9254 29.4452 30.0441 29.9204V29.9207Z" fill="#232323"/>
<path d="M27.9066 30.0391H28.1442L23.6317 9.1416L19.4756 10.9227C20.4255 12.8225 16.5067 3.67931 27.9065 30.0393L27.9066 30.0391Z" fill="#232323"/>
<path d="M35.6257 34.9097C35.6257 35.3031 35.3065 35.6223 34.9131 35.6223C34.5196 35.6223 34.2004 35.3031 34.2004 34.9097C34.2004 34.5163 34.5196 34.1971 34.9131 34.1971C35.3065 34.1971 35.6257 34.5163 35.6257 34.9097Z" fill="#232323"/>
<path d="M23.6316 31.9449V38.0008H30.2817V31.9452C30.1627 31.9449 23.2753 31.9449 23.6316 31.9449Z" fill="#232323"/>
<path d="M31.944 15.6724H38V22.3219H31.944V15.6724Z" fill="#232323"/>
<path d="M31.944 7.72321H38V14.3727H31.944V7.72321Z" fill="#232323"/>
<path d="M31.944 0H38V6.4118H31.944V0Z" fill="#232323"/>
<path d="M31.944 23.6294H38V30.2789H31.944V23.6294Z" fill="#232323"/>
<path d="M31.5875 37.9982H37.9999V31.5864H31.5875V37.9982ZM34.9124 33.0112C35.9811 33.0112 36.931 33.9611 36.931 35.0296C36.931 36.0982 35.9811 37.048 34.9124 37.048C33.8438 37.048 32.8938 36.0982 32.8938 35.0296C33.0125 33.8425 33.8438 33.0112 34.9124 33.0112Z" fill="#232323"/>
</svg>
