<svg width="38" height="38" viewBox="0 0 38 38" fill="none" xmlns="http://www.w3.org/2000/svg">
<path d="M37.1912 3.93583H34.4961V2.03591C34.4961 0.916293 33.5864 0 32.4747 0H5.52521C4.41353 0 3.50374 0.916282 3.50374 2.03591V3.93583H0.808686C0.364036 3.93583 3.05176e-05 4.30201 3.05176e-05 4.75026C3.05176e-05 5.19809 0.364026 5.56469 0.808686 5.56469H3.50374V7.46418C3.50374 8.5838 4.41352 9.50009 5.52521 9.50009H32.4757C33.5874 9.50009 34.4972 8.58381 34.4972 7.46418V5.56426H36.3837V10.3073L18.698 17.5682C18.3951 17.6902 18.1928 17.9887 18.1928 18.3212V22.3924L16.9796 22.3929C16.6093 22.3929 16.3059 22.698 16.3059 23.0713V35.2857C16.3059 36.7853 17.5119 38 19.0009 38C20.49 38 21.696 36.7853 21.696 35.2857L21.6956 23.0713C21.6956 22.698 21.3922 22.3929 21.0219 22.3929H19.8091V18.8712L37.4948 11.6104C37.7978 11.4883 38 11.1899 38 10.8574V4.75021C38.0005 4.30195 37.6365 3.93578 37.1918 3.93578L37.1912 3.93583Z" fill="#232323"/>
</svg>
