<svg width="37" height="49" viewBox="0 0 37 49" fill="none" xmlns="http://www.w3.org/2000/svg">
<path d="M35.1046 0H1.40729C0.877887 0 0.444336 0.431865 0.444336 0.960204V20.1611C0.444336 20.5452 0.665596 20.881 1.01226 21.0347L5.21969 22.9546C5.47006 23.0699 5.76835 23.0699 6.01873 22.9546L9.83207 21.2169L13.6351 22.9546C13.8949 23.0699 14.1838 23.0699 14.444 22.9546L18.247 21.2169L22.0594 22.9546C22.3098 23.0699 22.6081 23.0699 22.8585 22.9546L26.6709 21.2169L30.4932 22.9546C30.6182 23.0123 30.753 23.0408 30.8878 23.0408C31.0226 23.0408 31.1574 23.0123 31.2922 22.9546L35.5091 21.0347C35.8463 20.8806 36.0676 20.5447 36.0676 20.1607V0.960902C36.0676 0.432563 35.6345 0.000697827 35.1046 0.000697827L35.1046 0Z" fill="black"/>
<path d="M35.6252 25.1964C35.3556 25.0235 34.9995 24.995 34.7106 25.1294L30.8883 26.8671L27.0759 25.1294C26.8161 25.0142 26.5272 25.0142 26.2769 25.1294L22.4644 26.8671L18.652 25.1294C18.3922 25.0142 18.1033 25.0142 17.853 25.1294L14.0405 26.8671L10.2281 25.1294C9.97774 25.0142 9.67944 25.0142 9.42907 25.1294L5.61664 26.8671L1.81361 25.1294C1.51397 24.995 1.16731 25.0235 0.888278 25.1964C0.609243 25.379 0.445312 25.6765 0.445312 26.003V47.1235C0.445312 47.6612 0.878417 48.0837 1.40827 48.0837H35.1055C35.635 48.0837 36.0685 47.6612 36.0685 47.1235L36.0681 26.003C36.0681 25.6765 35.9047 25.379 35.6252 25.1964Z" fill="black"/>
</svg>
