<svg width="49" height="48" viewBox="0 0 49 48" fill="none" xmlns="http://www.w3.org/2000/svg">
<path d="M30.5156 0H38.5384V18.9997H30.5156V0Z" fill="black"/>
<path d="M22.4932 22H38.5394V29.9995H22.4932V22Z" fill="black"/>
<path d="M33.5244 32.9961H48.5674V40.9956H33.5244V32.9961Z" fill="black"/>
<path d="M0.429688 29.9961H8.45243V37.9956H0.429688V29.9961Z" fill="black"/>
<path d="M0.429688 10.9961H8.45243V26.9959H0.429688V10.9961Z" fill="black"/>
<path d="M19.4844 0H27.5071V7.99954H19.4844V0Z" fill="black"/>
<path d="M41.5469 13.9961H48.5674V29.9959H41.5469V13.9961Z" fill="black"/>
<path d="M0.429688 41H19.4845V48.0002H0.429688V41Z" fill="black"/>
<path d="M33.5244 44H48.5674V48.0002H33.5244V44Z" fill="black"/>
<path d="M0.429688 0H16.4759V7.99954H0.429688V0Z" fill="black"/>
<path d="M22.4932 32.9961H30.5159V47.9955H22.4932V32.9961Z" fill="black"/>
<path d="M41.5469 0H48.5674V10.9995H41.5469V0Z" fill="black"/>
<path d="M11.46 10.9961H27.5074V18.9956H11.46V10.9961Z" fill="black"/>
<path d="M11.4609 22H19.4837V37.9998H11.4609V22Z" fill="black"/>
</svg>
