<svg width="48" height="53" viewBox="0 0 48 53" fill="none" xmlns="http://www.w3.org/2000/svg">
<path d="M1.62766 47.169C1.49492 47.5997 1.43945 48.0412 1.43945 48.4723C1.43945 50.8905 3.39735 52.9997 5.98623 52.9997C7.98823 52.9997 9.76935 51.6856 10.3334 49.7642L13.641 38.6992H4.161L1.62766 47.169ZM4.71753 42.418L4.90664 41.7841C5.01074 41.4351 5.37987 41.2382 5.72536 41.3416C6.07358 41.4451 6.27178 41.8113 6.16813 42.1593L5.97857 42.7924C5.89356 43.0782 5.63171 43.262 5.34805 43.262C5.28577 43.262 5.22213 43.2534 5.15939 43.2348C4.81163 43.1313 4.61388 42.7656 4.71753 42.418ZM4.83254 44.3293C5.18076 44.4328 5.37896 44.799 5.27531 45.147L4.57115 47.5575C4.49751 47.8579 4.22885 48.0589 3.93245 48.0589C3.88063 48.0589 3.82835 48.053 3.77561 48.0403C3.42239 47.9541 3.20647 47.5988 3.29284 47.2467C3.31966 47.1123 3.33421 47.0456 3.35421 46.978L4.01382 44.7708C4.11792 44.4223 4.48795 44.2249 4.83254 44.3293Z" fill="black"/>
<path d="M20.8103 44.3643V38.6992H18.1777V44.9051C18.1777 45.2586 18.3105 45.5899 18.5646 45.8436L23.6314 50.9009C23.886 51.155 24.2288 51.2762 24.5606 51.2762C24.8925 51.2762 25.2357 51.1546 25.4898 50.9009C26.0099 50.3818 26.0099 49.5536 25.4898 49.0346L20.8103 44.3643Z" fill="black"/>
<path d="M19.2609 19.2873L17.7676 16.6149C20.2124 14.5942 20.9424 11.0384 19.3386 8.16731L16.8711 3.76153L16.5284 3.14303L16.9484 2.91114C17.3025 2.71239 17.4353 2.25951 17.2362 1.90648L16.3734 0.371318C16.1742 0.017819 15.7315 -0.103332 15.3669 0.0954192L2.75533 7.11812C2.3903 7.31687 2.26846 7.76975 2.46802 8.12324L3.31947 9.65793C3.51858 10.0114 3.97226 10.1326 4.32638 9.93383C4.47003 9.85669 4.61414 9.7791 4.74643 9.71285L5.08964 10.3313L7.55667 14.7262C9.10551 17.4871 12.4022 18.9006 15.577 17.8401L16.3957 19.2867L3.75042 19.2872C1.68162 19.2872 0 20.9548 0 23.0309V33.3004C0 35.3655 1.6815 37.0437 3.75042 37.0437H23.121V19.2874L19.2609 19.2873ZM4.41492 23.4062H3.87259C3.38572 23.4062 2.99887 23.0087 2.99887 22.5227C2.99887 22.0481 3.38572 21.6505 3.87259 21.6505H4.41445C4.8904 21.6505 5.28863 22.0481 5.28863 22.5227C5.28863 23.0087 4.89087 23.4062 4.41492 23.4062ZM13.0326 23.4062H7.78886C7.302 23.4062 6.91469 23.0087 6.91469 22.5227C6.91469 22.0481 7.302 21.6505 7.78886 21.6505H13.0326C13.5195 21.6505 13.9068 22.0481 13.9068 22.5227C13.9063 23.0087 13.5195 23.4062 13.0326 23.4062ZM15.8756 15.7982C13.464 17.1563 10.422 16.2728 9.08365 13.8768L7.64538 11.304C7.46809 10.9505 7.73356 10.5198 8.13224 10.5198H17.8672C18.155 10.5198 18.3873 10.7517 18.4091 11.0276C18.5969 13.1146 17.4799 14.9256 15.8756 15.7982Z" fill="black"/>
<path d="M47.1226 27.2891H45.4047C44.9201 27.2891 44.5273 27.6807 44.5273 28.1649C44.5273 28.6491 44.9201 29.0407 45.4047 29.0407H47.1226C47.6072 29.0407 48.0005 28.6491 48.0005 28.1649C48.0005 27.6807 47.6077 27.2891 47.1226 27.2891Z" fill="black"/>
<path d="M44.0939 31.3018C43.8507 30.8834 43.3156 30.7382 42.8951 30.981C42.4755 31.2233 42.3314 31.7588 42.5737 32.1776L43.4324 33.6638C43.5956 33.9442 43.8902 34.1017 44.1934 34.1017C44.342 34.1017 44.493 34.064 44.6316 33.9846C45.0512 33.7423 45.1948 33.2068 44.953 32.788L44.0939 31.3018Z" fill="black"/>
<path d="M42.8952 25.3391C43.0329 25.4185 43.1843 25.4562 43.333 25.4562C43.6362 25.4562 43.9312 25.2996 44.094 25.0183L44.9531 23.5331C45.195 23.1138 45.0513 22.5783 44.6317 22.3365C44.2117 22.0946 43.6753 22.2371 43.4325 22.6573L42.5738 24.1425C42.3315 24.5613 42.4752 25.0968 42.8952 25.3391Z" fill="black"/>
<path d="M28.7775 17.4062H26.1209C25.3845 17.4062 24.7871 18.0021 24.7871 18.7377V37.5871C24.7871 38.3222 25.3844 38.9185 26.1209 38.9185H28.7775C29.5139 38.9185 30.1113 38.3222 30.1113 37.5871V18.7377C30.1113 18.0021 29.5139 17.4062 28.7775 17.4062ZM27.2555 28.4372C27.2555 28.7998 26.961 29.0943 26.5978 29.0943C26.2341 29.0943 25.9395 28.8002 25.9395 28.4372V24.0314C25.9395 23.6689 26.2345 23.3744 26.5978 23.3744C26.961 23.3744 27.2555 23.6684 27.2555 24.0314V28.4372ZM27.2555 21.0751C27.2555 21.4376 26.961 21.7321 26.5978 21.7321C26.2341 21.7321 25.9395 21.4381 25.9395 21.0751V20.7134C25.9395 20.3508 26.2345 20.0563 26.5978 20.0563C26.961 20.0563 27.2555 20.3504 27.2555 20.7134V21.0751Z" fill="black"/>
<path d="M41.4624 26.8173L35.4996 26.1434V25.3375C35.4996 24.6088 34.9131 24.0234 34.1944 24.0234H31.7715V32.2945H34.1944C34.9136 32.2945 35.4996 31.7091 35.4996 30.9912V30.1739L41.4624 29.5005C42.1479 29.4234 42.6679 28.8489 42.6679 28.1641C42.6679 27.4798 42.1483 26.8944 41.4624 26.8173ZM34.2035 27.5788C34.2035 27.8243 34.0103 28.0167 33.7648 28.0167C33.5189 28.0167 33.3261 27.8238 33.3261 27.5788V25.7568C33.3261 25.5204 33.5193 25.3189 33.7648 25.3189C34.0107 25.3189 34.2035 25.5204 34.2035 25.7568V27.5788Z" fill="black"/>
</svg>
