<svg width="48" height="34" viewBox="0 0 48 34" fill="none" xmlns="http://www.w3.org/2000/svg">
<path d="M46.2857 15.2999H41.8526L32.0693 5.5983C31.7481 5.27889 31.3117 5.10006 30.8575 5.10006H22.286V1.69987C22.286 0.760944 21.5187 0 20.5719 0H13.7149C12.7681 0 12.0008 0.760978 12.0008 1.69987V5.10006H10.2867C8.39579 5.10006 6.85805 6.62514 6.85805 8.50025V15.3003H3.44618C1.24199 15.3003 -0.396803 17.3161 0.0843212 19.4408L3.07757 32.6727C3.25301 33.4481 3.94859 34 4.7505 34H35.9022C36.2655 34 36.6186 33.8853 36.9123 33.6736C43.3656 29.0053 46.9858 23.6363 47.9795 17.2597C48.1399 16.2299 47.3371 15.3002 46.2857 15.3002L46.2857 15.2999ZM13.7151 27.2C11.8242 27.2 10.2865 25.675 10.2865 23.7998C10.2865 21.9247 11.8243 20.3997 13.7151 20.3997C15.606 20.3997 17.1438 21.9247 17.1438 23.7998C17.1438 25.675 15.606 27.2 13.7151 27.2ZM12.001 15.2999V8.49988H30.1481L31.8622 10.1998L22.5928 10.2002C21.8472 10.2002 21.4741 11.0943 22.0009 11.6167L23.7558 13.3571C23.9127 13.5126 24.1253 13.6001 24.3473 13.6001H35.2904L37.0045 15.2999L12.001 15.2999ZM24.0008 27.2C22.1099 27.2 20.5721 25.675 20.5721 23.7998C20.5721 21.9247 22.11 20.3997 24.0008 20.3997C25.8916 20.3997 27.4294 21.9247 27.4294 23.7998C27.429 25.6751 25.8913 27.2 24.0008 27.2ZM34.2861 27.2C32.3952 27.2 30.8574 25.675 30.8574 23.7998C30.8574 21.9247 32.3953 20.3997 34.2861 20.3997C36.1769 20.3997 37.7147 21.9247 37.7147 23.7998C37.7147 25.675 36.1769 27.2 34.2861 27.2Z" fill="black"/>
</svg>
