<svg width="47" height="48" viewBox="0 0 47 48" fill="none" xmlns="http://www.w3.org/2000/svg">
<path d="M22.3492 18.1463V14.6341H32V33.3659H22.3492V29.8537H14.7302L5.07937 48H0L9.14286 18.1463H16.254L13.5 14.6341L11.6825 16.3902L2.03175 5.85366L8.63492 0L18.2857 10.5366L16.254 12.2927L21.3333 18.1463H22.3492Z" fill="black"/>
<circle cx="35" cy="24" r="1" fill="black"/>
<circle cx="46" cy="24" r="1" fill="black"/>
<circle cx="41" cy="22" r="1" fill="black"/>
<circle cx="41" cy="26" r="1" fill="black"/>
<circle cx="46" cy="20" r="1" fill="black"/>
<path d="M47 28C47 28.5523 46.5523 29 46 29C45.4477 29 45 28.5523 45 28C45 27.4477 45.4477 27 46 27C46.5523 27 47 27.4477 47 28Z" fill="black"/>
</svg>
